<?xml version="1.0" encoding="UTF-8" standalone="no"?>
<!DOCTYPE svg PUBLIC "-//W3C//DTD SVG 1.1//EN" "http://www.w3.org/Graphics/SVG/1.1/DTD/svg11.dtd">
<svg width="100%" height="100%" viewBox="0 0 960 300" version="1.1" xmlns="http://www.w3.org/2000/svg" xmlns:xlink="http://www.w3.org/1999/xlink" xml:space="preserve" xmlns:serif="http://www.serif.com/" style="fill-rule:evenodd;clip-rule:evenodd;stroke-linejoin:round;stroke-miterlimit:2;">
    <g transform="matrix(1.99324,0,0.170561,2.30753,-387.844,-528.593)">
        <path d="M438.973,319.993C438.818,319.994 438.687,319.91 438.646,319.784C438.606,319.657 438.666,319.517 438.795,319.434C453.293,310.071 469.925,294.382 466.727,266.993C466.366,263.901 466.075,260.637 465.592,257.221C465.559,257.007 465.727,256.794 465.976,256.736C466.226,256.678 466.471,256.794 466.536,257.001C474.211,281.106 474.656,300.672 460.678,318.349C459.929,319.289 458.697,319.864 457.419,319.872C452.951,319.906 442.362,319.972 438.973,319.993Z" style="fill:rgb(0,111,186);"/>
    </g>
    <g transform="matrix(136.764,0,-43.0246,136.764,65.2051,209.992)">
        <path d="M0.047,-0.727L0.293,-0.727L0.462,-0.315L0.47,-0.315L0.639,-0.727L0.885,-0.727L0.885,-0L0.692,-0L0.692,-0.42L0.686,-0.42L0.524,-0.006L0.408,-0.006L0.246,-0.423L0.24,-0.423L0.24,-0L0.047,-0L0.047,-0.727Z" style="fill:rgb(0,52,98);fill-rule:nonzero;"/>
    </g>
    <path d="M230.801,190.954L219.064,209.992L189.924,209.992L254.046,110.527L290.957,110.527L292.497,209.992L263.357,209.992L263.599,190.954L230.801,190.954ZM263.856,170.75L264.273,137.919L263.496,137.919L243.256,170.75L263.856,170.75Z" style="fill:rgb(0,52,98);fill-rule:nonzero;"/>
    <g transform="matrix(136.764,0,-43.0246,136.764,287.731,209.992)">
        <rect x="0.047" y="-0.727" width="0.197" height="0.727" style="fill:rgb(0,52,98);fill-rule:nonzero;"/>
    </g>
    <g transform="matrix(136.764,0,-43.0246,136.764,323.865,209.992)">
        <path d="M0.676,-0.727L0.676,-0L0.511,-0C0.511,0 0.27,-0.351 0.25,-0.38C0.249,-0.381 0.248,-0.382 0.247,-0.382L0.244,-0.382L0.244,-0L0.047,-0L0.047,-0.727L0.214,-0.727L0.473,-0.347L0.479,-0.347L0.479,-0.727L0.676,-0.727Z" style="fill:rgb(0,52,98);fill-rule:nonzero;"/>
    </g>
    <g transform="matrix(136.764,0,-43.0246,136.764,591.659,209.992)">
        <path d="M0.244,-0.727L0.244,-0L0.196,0C0.161,-0 0.123,-0.017 0.094,-0.045C0.064,-0.073 0.047,-0.109 0.047,-0.142L0.047,-0.727L0.244,-0.727Z" style="fill:rgb(0,52,98);fill-rule:nonzero;"/>
    </g>
    <g transform="matrix(136.764,0,-43.0246,136.764,627.793,209.992)">
        <path d="M0.047,-0L0.047,-0.727L0.244,-0.727L0.244,-0.159L0.538,-0.159L0.538,-0.136C0.538,-0.055 0.481,0 0.396,0L0.047,-0Z" style="fill:rgb(0,52,98);fill-rule:nonzero;"/>
    </g>
    <path d="M516.283,187.788C547.468,167.638 573.169,137.894 572.653,92.03C572.644,91.547 573.004,91.136 573.484,91.081C573.964,91.026 574.407,91.345 574.508,91.818C584.405,137.516 578.083,170.658 517.26,209.131C515.367,210.329 513.174,210.97 510.933,210.98C502.396,211.024 480.082,211.122 472.08,211.157C472.009,211.158 471.941,211.144 471.878,211.119C471.021,211.145 470.155,211.157 469.279,211.157C460.634,211.157 453.501,209.878 447.879,207.321C442.256,204.763 438.51,200.821 436.64,195.495C434.771,190.168 435.128,183.345 437.714,175.024L463.357,175.024C462.561,178.067 462.518,180.625 463.226,182.697C463.934,184.769 465.358,186.34 467.499,187.408C469.639,188.477 472.426,189.011 475.858,189.011C478.74,189.011 481.264,188.655 483.43,187.942C485.597,187.23 487.381,186.243 488.782,184.98C490.183,183.717 491.154,182.276 491.696,180.657C492.142,179.136 492.069,177.8 491.475,176.651C490.882,175.501 489.645,174.465 487.766,173.542C485.887,172.62 483.23,171.754 479.793,170.944L470.558,168.807C462.352,166.897 456.421,163.7 452.764,159.215C449.108,154.731 448.518,148.603 450.995,140.833C452.949,134.519 456.38,128.991 461.288,124.247C466.196,119.504 472.103,115.805 479.009,113.15C485.915,110.495 493.302,109.167 501.17,109.167C509.2,109.167 515.722,110.511 520.737,113.198C525.752,115.886 529.088,119.666 530.744,124.539C532.4,129.411 532.221,135.102 530.206,141.61L504.369,141.61C505.128,138.372 504.716,135.847 503.134,134.033C501.551,132.22 498.574,131.314 494.203,131.314C491.419,131.314 489.04,131.646 487.066,132.309C485.093,132.973 483.507,133.872 482.309,135.005C481.11,136.138 480.266,137.433 479.775,138.89C479.211,140.477 479.205,141.861 479.756,143.043C480.307,144.224 481.451,145.244 483.189,146.102C484.926,146.96 487.258,147.729 490.185,148.409L497.794,150.158C502.932,151.323 507.159,152.861 510.476,154.771C513.792,156.682 516.292,158.924 517.976,161.498C519.659,164.072 520.587,166.962 520.761,170.167C520.934,173.372 520.441,176.869 519.282,180.657C518.475,183.184 517.475,185.561 516.283,187.788Z" style="fill:rgb(0,52,98);"/>
    <g transform="matrix(1,0,0,1,4.55909,6.01688)">
        <path d="M891.327,92.895L784.241,92.895C770.52,92.895 757.87,102.204 753.521,115.502C741.311,152.838 718.265,223.308 718.265,223.308L825.308,223.308C839.054,223.308 851.727,213.982 856.084,200.659C868.298,163.313 891.327,92.895 891.327,92.895ZM812.185,124.696L830.113,124.696L815.777,167.001C814.072,172.031 811.4,176.379 807.761,180.044C804.122,183.709 799.827,186.536 794.875,188.525C789.923,190.513 784.621,191.507 778.967,191.507C773.271,191.507 768.62,190.513 765.016,188.525C761.412,186.536 759.044,183.709 757.91,180.044C756.777,176.379 757.063,172.031 758.767,167.001L773.104,124.696L791.032,124.696L777.22,165.453C776.528,167.496 776.362,169.317 776.722,170.919C777.082,172.52 777.91,173.773 779.206,174.675C780.501,175.578 782.17,176.03 784.212,176.03C786.276,176.03 788.256,175.578 790.153,174.675C792.05,173.773 793.721,172.52 795.166,170.919C796.612,169.317 797.681,167.496 798.373,165.453L812.185,124.696ZM858.36,124.696L835.981,190.734L818.053,190.734L840.432,124.696L858.36,124.696Z" style="fill:rgb(0,111,186);"/>
    </g>
</svg>
