<svg width="33" height="33" viewBox="0 0 33 33" fill="none" xmlns="http://www.w3.org/2000/svg">
<path id="add" d="M30.9837 17.0813C31.276 17.0892 31.5254 16.9879 31.7319 16.7814C31.9384 16.5749 32.0436 16.3216 32.0435 16.0215C32.0436 15.7372 31.9384 15.4917 31.7318 15.2851C31.5254 15.0787 31.276 14.9696 30.9837 14.9618L17.0816 14.9733L17.0816 1.05979C17.0816 0.775365 16.9764 0.529908 16.7698 0.323384C16.5633 0.116861 16.314 0.00777654 16.0218 0C15.7295 0.00779163 15.4802 0.116887 15.2737 0.323384C15.0672 0.529883 14.962 0.775343 14.962 1.05979L14.9619 14.9733L1.05977 14.9618C0.767512 14.9696 0.51812 15.0787 0.311706 15.2851C0.105156 15.4917 9.74739e-06 15.7371 9.06169e-09 16.0215C-3.56437e-05 16.3216 0.105134 16.5749 0.311634 16.7814C0.518135 16.9879 0.767526 17.0891 1.05981 17.0813L14.9619 17.0929L14.962 30.9833C14.962 31.2834 15.0672 31.5367 15.2736 31.7431C15.4801 31.9497 15.7295 32.0509 16.0218 32.0431C16.3139 32.051 16.5634 31.9497 16.7699 31.7431C16.9763 31.5367 17.0815 31.2834 17.0815 30.9833L17.0816 17.0929L30.9837 17.0813Z" fill="currentColor"/>
</svg>
