<svg width="32" height="24" viewBox="0 0 32 24" fill="none" xmlns="http://www.w3.org/2000/svg">
<path id="archive" d="M2.66668 0C1.205 0 0 1.1619 0 2.5713V4.28604C0 5.3949 0.748334 6.33986 1.77836 6.69664V21.3082C1.77836 22.785 3.04002 24 4.57338 24H27.4266C28.96 24 30.2216 22.785 30.2216 21.3082V6.69664C31.2516 6.33986 32 5.3949 32 4.28604V2.5713C32 1.1619 30.795 0 29.3334 0H2.66668ZM2.66668 1.71474H29.3334C29.8418 1.71474 30.2218 2.08276 30.2218 2.5713V4.28604C30.2218 4.77618 29.8418 5.14258 29.3334 5.14258H2.66668C2.15834 5.14258 1.77836 4.77618 1.77836 4.28604V2.5713C1.77836 2.08274 2.15836 1.71474 2.66668 1.71474ZM3.555 6.85734H28.4434V21.308C28.4434 21.8656 28.0052 22.2882 27.4268 22.2882H4.57354C3.9952 22.2882 3.55522 21.8656 3.55522 21.308L3.555 6.85734ZM10.6667 8.57208V10.2868H21.3334V8.57208H10.6667Z" fill="#003462"/>
</svg>
