<svg width="16" height="32" viewBox="0 0 16 32" fill="none" xmlns="http://www.w3.org/2000/svg">
<path id="bill" d="M15.2403 22.2863C15.2403 18.2764 12.839 17.0915 9.20765 15.2988L7.21139 14.3101C3.60883 12.5338 2.66771 11.9763 2.66771 9.71392C2.66771 6.80266 5.22647 5.7664 7.62035 5.7664C8.76035 5.7664 12.484 6.05015 12.484 9.71392C12.484 10.4514 13.0828 11.0477 13.8178 11.0477C14.5553 11.0477 15.1516 10.4514 15.1516 9.71392C15.1516 6.3728 12.9778 3.9776 9.59155 3.30752L9.5903 1.33376C9.5903 0.597504 8.99405 0 8.25654 0C7.52029 0 6.92278 0.597504 6.92278 1.33376V3.15126C2.76406 3.41376 0.00150391 5.96627 0.00150391 9.71382C0.00150391 13.7276 2.40026 14.91 6.0303 16.7013L8.02656 17.6914C11.6304 19.4701 12.5728 20.0276 12.5728 22.2875C12.5728 25.9099 8.78144 26.1912 7.62016 26.1912C6.45888 26.1912 2.66752 25.9099 2.66752 22.2875C2.66752 21.5513 2.07002 20.9538 1.33376 20.9538C0.597504 20.9538 0 21.5513 0 22.2875C0 26.0101 2.76374 28.5451 6.92384 28.8062L6.92634 30.6662C6.92634 31.4025 7.52384 32 8.2601 32C8.99636 32 9.59386 31.4025 9.59386 30.6662V28.6537C13.0326 27.9975 15.2403 25.6149 15.2403 22.2863Z" fill="currentColor"/>
</svg>
