<svg width="16" height="16" viewBox="0 0 16 16" fill="none" xmlns="http://www.w3.org/2000/svg">
<path d="M10.414 6.84126C12.0587 7.60248 13.2002 9.2675 13.2002 11.2001C13.2002 13.8506 11.0537 16 8.4019 16H3.59895C2.71622 16 2 15.286 2 14.404V1.5997C2 0.716218 2.71399 0 3.59596 0H7.59867C9.80815 0 11.5998 1.79095 11.5998 4.00041C11.5998 5.11114 11.1461 6.11619 10.4141 6.84136L10.414 6.84126ZM3.60049 6.40027H7.59859C8.92305 6.40027 10.0001 5.32404 10.0001 4.00033C10.0001 2.67438 8.92534 1.60039 7.59859 1.60039H3.60049V6.40027ZM3.60049 14.3996H8.4019C10.1696 14.3996 11.5998 12.9678 11.5998 11.2001C11.5998 9.43245 10.1681 7.99997 8.4019 7.99997H3.60049V14.3996Z" fill="#003462"/>
</svg>
