    <svg
        width="16"
        height="16"
        viewBox="0 0 16 16"
        fill="none"
        xmlns="http://www.w3.org/2000/svg">
        <g clipPath="url(#clip0)">
            <rect width="16" height="16" fill="currentColor" />
            <g clipPath="url(#clip1)">
                <path
                    d="M14.4307 2.00089C14.1635 2.00981 13.9094 2.13468 13.7235 2.34875C11.1712 5.18836 8.43909 8.44169 5.88879 11.3124L2.24874 7.98561C2.04283 7.76151 1.76159 7.64334 1.47331 7.66007C1.18604 7.67791 0.917844 7.82841 0.734041 8.07591C0.551231 8.3223 0.469883 8.64339 0.510051 8.96114C0.551234 9.27777 0.708932 9.56096 0.946981 9.74268L5.31833 13.7384C5.72713 14.113 6.3248 14.0818 6.70045 13.6671C9.46469 10.5923 12.4639 6.99104 15.186 3.96312C15.4934 3.63312 15.5848 3.12806 15.417 2.69327C15.2493 2.25736 14.8575 1.98194 14.4307 2.00089Z"
                    fill="#F4F8FA"
                />
            </g>
        </g>
        <defs>
            <clipPath id="clip0">
                <rect width="16" height="16" fill="white" />
            </clipPath>
            <clipPath id="clip1">
                <rect
                    width="16"
                    height="16"
                    fill="white"
                    transform="translate(-0.5)"
                />
            </clipPath>
        </defs>
    </svg>
