<svg width="100%" height="100%" viewBox="0 0 300 113" version="1.1" xmlns="http://www.w3.org/2000/svg" style="fill-rule:evenodd;clip-rule:evenodd;stroke-linejoin:round;stroke-miterlimit:2;">
    <g transform="matrix(0.496832,0,0,0.496832,61.6816,94.1597)">
        <path d="M0,-100.79L26.603,-100.79L26.603,-93.22C36.553,-100.574 46.285,-102.737 66.184,-102.737L66.184,-77.215C32.227,-77.215 26.603,-67.699 26.603,-49.963L26.603,1.947L0,1.947L0,-100.79Z" style="fill:rgb(35,31,32);fill-rule:nonzero;"/>
    </g>
    <g transform="matrix(0.496832,0,0,0.496832,120.355,84.4886)">
        <path d="M0,-59.047C-12.328,-59.047 -22.277,-51.693 -26.17,-40.663L25.09,-40.663C23.576,-51.045 12.762,-59.047 0,-59.047M1.515,0.216C10.814,0.216 20.764,-3.244 26.82,-11.247L44.989,3.245C35.688,16.438 19.25,24.224 1.73,24.224C-29.199,24.224 -52.991,1.081 -52.991,-28.983C-52.991,-58.182 -32.443,-83.271 0.217,-83.271C30.498,-83.271 51.91,-58.614 51.91,-29.631C51.91,-26.82 51.693,-23.792 51.261,-21.197L-27.036,-21.197C-24.008,-8.652 -13.842,0.216 1.515,0.216" style="fill:rgb(35,31,32);fill-rule:nonzero;"/>
    </g>
    <g transform="matrix(0.496832,0,0,0.496832,175.699,84.4886)">
        <path d="M0,-59.047C-12.328,-59.047 -22.277,-51.693 -26.171,-40.663L25.089,-40.663C23.576,-51.045 12.762,-59.047 0,-59.047M1.515,0.216C10.813,0.216 20.764,-3.244 26.82,-11.247L44.988,3.245C35.688,16.438 19.25,24.224 1.73,24.224C-29.199,24.224 -52.991,1.081 -52.991,-28.983C-52.991,-58.182 -32.443,-83.271 0.217,-83.271C30.497,-83.271 51.909,-58.614 51.909,-29.631C51.909,-26.82 51.692,-23.792 51.261,-21.197L-27.036,-21.197C-24.009,-8.652 -13.843,0.216 1.515,0.216" style="fill:rgb(35,31,32);fill-rule:nonzero;"/>
    </g>
    <g transform="matrix(0.496832,0,0,0.496832,204.178,56.5496)">
        <path d="M0,52.557L47.584,0.431L0,0.431L0,-25.09L82.406,-25.09L82.406,-0.866L35.039,52.124L82.406,52.124L82.406,77.647L0,77.647L0,52.557Z" style="fill:rgb(35,31,32);fill-rule:nonzero;"/>
    </g>
    <g transform="matrix(0.496832,0,0,0.496832,273.598,84.4886)">
        <path d="M0,-59.047C-12.328,-59.047 -22.278,-51.693 -26.171,-40.663L25.089,-40.663C23.575,-51.045 12.762,-59.047 0,-59.047M1.515,0.216C10.813,0.216 20.764,-3.244 26.82,-11.247L44.988,3.245C35.688,16.438 19.25,24.224 1.73,24.224C-29.199,24.224 -52.991,1.081 -52.991,-28.983C-52.991,-58.182 -32.443,-83.271 0.217,-83.271C30.497,-83.271 51.909,-58.614 51.909,-29.631C51.909,-26.82 51.692,-23.792 51.261,-21.197L-27.037,-21.197C-24.009,-8.652 -13.843,0.216 1.515,0.216" style="fill:rgb(35,31,32);fill-rule:nonzero;"/>
    </g>
    <g transform="matrix(0.496832,0,0,0.496832,28.1518,69.0142)">
        <path d="M0,-52.125C-10.597,-52.125 -20.331,-49.313 -28.55,-42.608L-28.55,-107.495L-55.153,-107.495L-55.153,-47.925C-55.153,-26.367 -49.218,-7.813 -28.052,-3.727L-27.999,-3.727C-25.4,-16.374 -13.861,-26.604 0,-26.604C15.573,-26.604 28.334,-13.626 28.334,1.515C28.334,16.871 15.573,29.849 0,29.849C-13.336,29.849 -24.54,20.546 -27.685,8.467L-27.789,8.467C-48.49,12.934 -55.153,31.112 -55.153,52.306L-55.153,52.559L-28.55,52.559L-28.55,45.854C-20.331,52.559 -10.597,55.37 0,55.37C30.281,55.37 54.505,31.146 54.505,1.515C54.505,-28.334 30.281,-52.125 0,-52.125" style="fill:rgb(35,31,32);fill-rule:nonzero;"/>
    </g>
</svg>
