<svg width="29" height="34" viewBox="0 0 29 34" fill="none" xmlns="http://www.w3.org/2000/svg">
<g id="bulktask">
<path id="Vector 14" d="M1 21.3984V5.07968H27.5179L24.1182 1" stroke="currentColor" stroke-width="2" stroke-linecap="round" stroke-linejoin="round"/>
<path id="Vector 15" d="M27.5181 12.6016V28.9203H1.00014L4.39987 33" stroke="currentColor" stroke-width="2" stroke-linecap="round" stroke-linejoin="round"/>
<g id="Group 687">
<circle id="Ellipse 68" cx="13.8649" cy="13.4142" r="2.66417" stroke="currentColor" stroke-width="1.5"/>
<path id="Ellipse 69" d="M19.1769 23.457C19.1769 23.457 19.1769 23.4571 19.1768 23.4571C19.1764 23.4575 19.1758 23.4581 19.175 23.4587C19.1679 23.4645 19.1478 23.4757 19.1141 23.4757H14.0553H8.86382C8.8291 23.4757 8.809 23.464 8.80229 23.4585C8.80193 23.4582 8.80161 23.4579 8.80133 23.4577C8.70265 22.6486 8.68585 21.3095 9.32171 20.199C9.91569 19.1617 11.1839 18.1473 14.0553 18.1473C16.9359 18.1473 18.1724 19.1671 18.7363 20.1985C19.3438 21.3097 19.2943 22.651 19.1769 23.457Z" stroke="currentColor" stroke-width="1.5"/>
</g>
</g>
</svg>
