<svg width="32" height="32" viewBox="0 0 32 32" fill="none" xmlns="http://www.w3.org/2000/svg">
<g id="calendar">
<path id="Vector" d="M27.5538 2.66765H24.8858V0.8887C24.8858 0.397885 24.4879 0 23.9971 0C23.5063 0 23.1084 0.397885 23.1084 0.8887V2.66765H8.88757V0.8888C8.88757 0.397929 8.48964 0 7.99877 0C7.5079 0 7.10997 0.397929 7.10997 0.8888V2.66765H4.44509C1.995 2.66765 -0.000488281 4.66135 -0.000488281 7.11285V27.5548C-0.000488281 30.0048 1.99337 32 4.44509 32H27.554C30.004 32 31.9996 30.0064 31.9996 27.5548L31.998 11.555V7.10983C31.9966 4.65993 30.0026 2.66765 27.5538 2.66765ZM30.2186 27.5518C30.2186 29.0212 29.0232 30.2164 27.5538 30.2164H4.44491C2.97247 30.2164 1.77702 29.0212 1.77702 27.5518V11.5546H30.2184L30.2186 27.5518ZM30.2186 9.77741H1.77721V7.10975C1.77721 5.63893 2.97263 4.44209 4.44509 4.44209H7.11297V5.33221C7.11297 5.82226 7.51023 6.21953 8.00029 6.21953C8.49034 6.21953 8.88761 5.82226 8.88761 5.33221V4.44505H23.1084V5.33369C23.1084 5.82456 23.5063 6.22249 23.9972 6.22249C24.488 6.22249 24.886 5.82456 24.886 5.33369V4.44505H27.5538C29.0232 4.44505 30.2186 5.63889 30.2186 7.10971V9.77741Z" fill="#003462"/>
</g>
</svg>
