    <svg
        width="16"
        height="16"
        viewBox="0 0 16 16"
        fill="none"
        xmlns="http://www.w3.org/2000/svg">
        <g clipPath="url(#clip0)">
            <path
                d="M13.666 1.22274H12.3321V-0.111084H11.4433V1.22274H4.33294V-0.111084H3.44415V1.22274H2.11171C0.88666 1.22274 -0.111084 2.21959 -0.111084 3.44534V13.6663C-0.111084 14.8913 0.885844 15.8889 2.11171 15.8889H13.6661C14.8912 15.8889 15.8889 14.8921 15.8889 13.6663L15.8882 5.66643V3.44383C15.8874 2.21888 14.8905 1.22274 13.6661 1.22274H13.666ZM14.9985 13.6648C14.9985 14.3995 14.4008 14.9971 13.666 14.9971H2.11161C1.3754 14.9971 0.777672 14.3995 0.777672 13.6648V5.66624H14.9984L14.9985 13.6648ZM14.9985 4.77762H0.777767V3.44379C0.777767 2.70838 1.37547 2.10996 2.11171 2.10996H3.44565V2.99868H4.33296V2.11144H11.4433V3.00016H12.3321V2.11144H13.666C14.4008 2.11144 14.9985 2.70836 14.9985 3.44377L14.9985 4.77762Z"
                fill="currentColor"
            />
        </g>
        <defs>
            <clipPath id="clip0">
                <rect width="16" height="16" fill="white" />
            </clipPath>
        </defs>
    </svg>
