<svg width="32" height="21" viewBox="0 0 32 21" fill="none" xmlns="http://www.w3.org/2000/svg">
<path id="card" d="M28.9995 0H3.00052C1.34996 0 0 1.34996 0 3.00052V17.9995C0 19.6501 1.34996 21 3.00052 21H28.9995C30.65 21 32 19.6501 32 17.9995V3.00052C32 1.34996 30.65 0 28.9995 0ZM3.00052 2.00033H28.9995C29.5497 2.00033 29.9997 2.45032 29.9997 3.00052V5.00085H2.00006V3.00052C2.00006 2.45032 2.45032 2.00033 3.00052 2.00033ZM28.9995 18.9995H3.00052C2.45032 18.9995 2.00033 18.5495 2.00033 17.9993V6.99958H29.9999V17.9993C29.9999 18.5495 29.5497 18.9995 28.9995 18.9995Z" fill="#003462"/>
</svg>
