<svg width="32" height="29" viewBox="0 0 32 29" fill="none" xmlns="http://www.w3.org/2000/svg">
<path id="chart_bar" fill-rule="evenodd" clip-rule="evenodd" d="M25.7419 2H28.9677V22.7742L25.7419 22.7742V2ZM23.7419 2C23.7419 0.895432 24.6374 0 25.7419 0H28.9677C30.0723 0 30.9677 0.895431 30.9677 2V22.7742C30.9677 23.8788 30.0723 24.7742 28.9677 24.7742H25.7419C24.6374 24.7742 23.7419 23.8788 23.7419 22.7742V2ZM17.6129 5.09677H14.3871V22.7742L17.6129 22.7742V5.09677ZM14.3871 3.09677C13.2825 3.09677 12.3871 3.9922 12.3871 5.09677V22.7742C12.3871 23.8788 13.2825 24.7742 14.3871 24.7742H17.6129C18.7175 24.7742 19.6129 23.8788 19.6129 22.7742V5.09677C19.6129 3.9922 18.7175 3.09677 17.6129 3.09677H14.3871ZM3.03226 10.2581H6.25806V22.7742H3.03226V10.2581ZM1.03226 10.2581C1.03226 9.1535 1.92769 8.25806 3.03226 8.25806H6.25806C7.36263 8.25806 8.25806 9.15349 8.25806 10.2581V22.7742C8.25806 23.8788 7.36263 24.7742 6.25806 24.7742H3.03226C1.92769 24.7742 1.03226 23.8788 1.03226 22.7742V10.2581ZM1 26.9033C0.447715 26.9033 0 27.351 0 27.9033C0 28.4556 0.447715 28.9033 1 28.9033H31C31.5523 28.9033 32 28.4556 32 27.9033C32 27.351 31.5523 26.9033 31 26.9033H1Z" fill="#003462"/>
</svg>
