    <svg
        width="16"
        height="12"
        viewBox="0 0 16 12"
        fill="currentColor"
        xmlns="http://www.w3.org/2000/svg">
        <path
            d="M14.4307 0.000890793C14.1635 0.00980987 13.9094 0.134677 13.7235 0.348749C11.1712 3.18836 8.43909 6.44169 5.88879 9.31235L2.24874 5.98561C2.04283 5.76151 1.76159 5.64334 1.47331 5.66007C1.18604 5.67791 0.917844 5.82841 0.734041 6.07591C0.551231 6.3223 0.469883 6.64339 0.510051 6.96114C0.551234 7.27777 0.708932 7.56096 0.946981 7.74268L5.31833 11.7384C5.72713 12.113 6.3248 12.0818 6.70045 11.6671C9.46469 8.59235 12.4639 4.99104 15.186 1.96312C15.4934 1.63312 15.5848 1.12806 15.417 0.693268C15.2493 0.257361 14.8575 -0.0180605 14.4307 0.000890793Z"
            fill="currentColor"
        />
    </svg>
