    <svg
        width="16"
        height="8"
        viewBox="0 0 16 8"
        fill="currentColor"
        xmlns="http://www.w3.org/2000/svg">
        <path
            d="M0.284528 0.253733C0.102728 0.415857 0 0.636355 0 0.865746C0 1.09514 0.102718 1.31484 0.284528 1.47695L7.31383 7.74546V7.74627C7.49563 7.90839 7.74289 8 8.00012 8C8.25735 8 8.50462 7.9084 8.68641 7.74627L15.7157 1.47776V1.47695C16.0948 1.13973 16.0948 0.59176 15.7157 0.253733C15.3367 -0.0842936 14.7222 -0.0842936 14.344 0.253733L8.00005 5.9111L1.65606 0.253733C1.47426 0.0916094 1.22793 0 0.97068 0C0.713426 0 0.466176 0.0916011 0.284388 0.253733H0.284528Z"
            fill="currentColor"
        />
    </svg>
