    <svg
        width="8"
        height="16"
        viewBox="0 0 8 16"
        fill="currentColor"
        xmlns="http://www.w3.org/2000/svg">
        <path
            d="M0.253733 15.7155C0.415857 15.8973 0.636355 16 0.865746 16C1.09514 16 1.31484 15.8973 1.47695 15.7155L7.74546 8.68617H7.74627C7.90839 8.50437 8 8.25711 8 7.99988C8 7.74265 7.9084 7.49538 7.74627 7.31359L1.47776 0.284289H1.47695C1.13973 -0.094763 0.59176 -0.094763 0.253733 0.284289C-0.0842936 0.663341 -0.0842936 1.27782 0.253733 1.65596L5.9111 7.99995L0.253733 14.3439C0.0916094 14.5257 0 14.7721 0 15.0293C0 15.2866 0.0916011 15.5338 0.253733 15.7156V15.7155Z"
            fill="currentColor"
        />
    </svg>
