<svg width="32" height="32" viewBox="0 0 32 32" fill="none" xmlns="http://www.w3.org/2000/svg">
<path id="close" d="M31.5643 2.47348C31.856 2.19697 32 1.85608 32 1.45453C32 1.05297 31.856 0.704512 31.5643 0.412877C31.288 0.136363 30.9469 0 30.5453 0C30.144 0 29.7955 0.136363 29.5037 0.412877L15.9998 13.9392L2.47348 0.412877C2.19697 0.136363 1.85608 0 1.45453 0C1.05297 0 0.704512 0.136363 0.412877 0.412877C0.136363 0.704541 0 1.05302 0 1.45453C0 1.85603 0.136363 2.19693 0.412877 2.47348L13.9392 15.9998L0.412877 29.5037C0.136363 29.7955 0 30.144 0 30.5453C0 30.9469 0.136363 31.2877 0.412877 31.5643C0.704541 31.856 1.05302 32 1.45453 32C1.85603 32 2.19693 31.856 2.47348 31.5643L15.9998 18.0604L29.5037 31.5643C29.7955 31.856 30.144 32 30.5453 32C30.9469 32 31.2877 31.856 31.5643 31.5643C31.856 31.288 32 30.9469 32 30.5453C32 30.144 31.856 29.7955 31.5643 29.5037L18.0604 15.9998L31.5643 2.47348Z" fill="#003462"/>
</svg>
