<svg width="16" height="16" viewBox="0 0 16 16" fill="none" xmlns="http://www.w3.org/2000/svg">
<path d="M14.8094 2.08215C14.937 1.96117 15 1.81203 15 1.63635C15 1.46068 14.937 1.30822 14.8094 1.18063C14.6885 1.05966 14.5393 1 14.3636 1C14.188 1 14.0355 1.05966 13.9079 1.18063L7.99991 7.09839L2.08215 1.18063C1.96117 1.05966 1.81203 1 1.63635 1C1.46068 1 1.30822 1.05966 1.18063 1.18063C1.05966 1.30824 1 1.4607 1 1.63635C1 1.81201 1.05966 1.96115 1.18063 2.08215L7.09839 7.99991L1.18063 13.9079C1.05966 14.0355 1 14.188 1 14.3636C1 14.5393 1.05966 14.6884 1.18063 14.8094C1.30824 14.937 1.4607 15 1.63635 15C1.81201 15 1.96115 14.937 2.08215 14.8094L7.99991 8.90142L13.9079 14.8094C14.0355 14.937 14.188 15 14.3636 15C14.5393 15 14.6884 14.937 14.8094 14.8094C14.937 14.6885 15 14.5393 15 14.3636C15 14.188 14.937 14.0355 14.8094 13.9079L8.90142 7.99991L14.8094 2.08215Z" fill="#003462"/>
</svg>
