    <svg
        width="16"
        height="16"
        viewBox="0 0 16 16"
        fill="currentColor"
        xmlns="http://www.w3.org/2000/svg">
        <path
            d="M6.68296 7.94139L0.201174 1.45789C-0.145509 1.11121 -0.145509 0.547857 0.201174 0.201174C0.547857 -0.145509 1.11121 -0.145509 1.45789 0.201174L7.94139 6.68296L14.4232 0.201174C14.7699 -0.145509 15.3332 -0.145509 15.6799 0.201174C16.0282 0.547857 16.0282 1.11121 15.6799 1.45789L9.19811 7.94139L15.6799 14.4232C16.0282 14.7699 16.0282 15.3332 15.6799 15.6799C15.3332 16.0282 14.7699 16.0282 14.4232 15.6799L7.94139 9.19811L1.45789 15.6799C1.11121 16.0282 0.547857 16.0282 0.201174 15.6799C-0.145509 15.3332 -0.145509 14.7699 0.201174 14.4232L6.68296 7.94139Z"
            fill="currentColor"
        />
    </svg>
