<svg width="32" height="32" viewBox="0 0 32 32" fill="none" xmlns="http://www.w3.org/2000/svg">
<g id="delete">
<path id="Vector" d="M26.3467 5.83849C26.3467 6.58634 26.3467 7.3342 26.3467 8.08205C26.3467 9.86074 26.3467 11.6394 26.3467 13.4181C26.3467 15.5572 26.3467 17.693 26.3467 19.8321C26.3467 21.658 26.3467 23.4872 26.3467 25.3131C26.3467 26.1586 26.3502 27.0042 26.3467 27.8497C26.3467 27.9946 26.336 28.1394 26.3182 28.2843C26.3324 28.1933 26.3431 28.1057 26.3573 28.0148C26.3182 28.2843 26.2434 28.547 26.133 28.7997C26.1686 28.7188 26.2042 28.638 26.2398 28.5571C26.1615 28.7357 26.0653 28.9041 25.9549 29.0658C25.9442 29.0826 25.8659 29.2107 25.8481 29.2107C25.8695 29.2107 26.044 28.9816 25.9015 29.1433C25.8374 29.2174 25.7698 29.2881 25.6985 29.3555C25.6273 29.4229 25.5525 29.4869 25.4742 29.5475C25.4065 29.6014 25.2712 29.6654 25.5454 29.497C25.4991 29.524 25.4564 29.5576 25.4136 29.5846C25.2391 29.6958 25.0504 29.7901 24.8581 29.8676C24.9436 29.8339 25.029 29.8002 25.1145 29.7665C24.8474 29.8709 24.5697 29.9417 24.2848 29.9787C24.3809 29.9653 24.4735 29.9551 24.5697 29.9417C23.9215 30.0192 23.2449 29.9686 22.5932 29.9686C21.2578 29.9686 19.9224 29.9686 18.587 29.9686C16.9524 29.9686 15.3214 29.9686 13.6869 29.9686C12.2803 29.9686 10.8772 29.9686 9.47054 29.9686C8.8331 29.9686 8.19566 29.972 7.55822 29.9686C7.40865 29.9686 7.25908 29.9585 7.10952 29.9417C7.20567 29.9551 7.29826 29.9653 7.39441 29.9787C7.10952 29.9417 6.83175 29.8709 6.56467 29.7665C6.65013 29.8002 6.7356 29.8339 6.82107 29.8676C6.63233 29.7934 6.45427 29.7025 6.28334 29.5981C6.26553 29.588 6.13021 29.5138 6.13021 29.497C6.13021 29.5172 6.37237 29.6823 6.20143 29.5475C6.12309 29.4869 6.04831 29.4229 5.97708 29.3555C5.90586 29.2881 5.8382 29.2174 5.7741 29.1433C5.71712 29.0793 5.64946 28.9513 5.82752 29.2107C5.79903 29.1669 5.76342 29.1264 5.73493 29.086C5.61741 28.9209 5.5177 28.7424 5.43579 28.5605C5.47141 28.6413 5.50702 28.7222 5.54263 28.803C5.43223 28.5504 5.35745 28.2876 5.31828 28.0181C5.33252 28.1091 5.3432 28.1967 5.35745 28.2876C5.31828 27.9844 5.32896 27.6745 5.32896 27.368C5.32896 26.8492 5.32896 26.3304 5.32896 25.815C5.32896 24.07 5.32896 22.325 5.32896 20.58C5.32896 18.4442 5.32896 16.3085 5.32896 14.1727C5.32896 12.3165 5.32896 10.4604 5.32896 8.6042C5.32896 7.69802 5.34321 6.79183 5.32896 5.88565C5.32896 5.87217 5.32896 5.8587 5.32896 5.84522C5.32896 5.31633 4.83753 4.81103 4.26063 4.83461C3.68016 4.85819 3.19229 5.27928 3.19229 5.84522C3.19229 6.25621 3.19229 6.66719 3.19229 7.07817C3.19229 8.14269 3.19229 9.2072 3.19229 10.2717C3.19229 11.7203 3.19229 13.1655 3.19229 14.614C3.19229 16.1872 3.19229 17.757 3.19229 19.3302C3.19229 20.7653 3.19229 22.2004 3.19229 23.6354C3.19229 24.673 3.19229 25.7106 3.19229 26.7515C3.19229 27.2299 3.15668 27.7217 3.2101 28.2C3.28488 28.8704 3.48074 29.524 3.87959 30.0933C4.26063 30.6424 4.7663 31.114 5.36813 31.4441C6.06967 31.8282 6.86024 32 7.66505 32C8.48767 32 9.31029 32 10.1329 32C11.6321 32 13.1349 32 14.6342 32C16.2651 32 17.8997 32 19.5307 32C20.7486 32 21.9665 32 23.1844 32C23.4693 32 23.7506 32 24.0355 32C24.8617 32 25.6878 31.8113 26.3929 31.397C27.6322 30.6727 28.3943 29.4263 28.4833 28.0586C28.494 27.9002 28.4904 27.7419 28.4904 27.5836C28.4904 26.8323 28.4904 26.0811 28.4904 25.3299C28.4904 24.0565 28.4904 22.7798 28.4904 21.5064C28.4904 19.9669 28.4904 18.4308 28.4904 16.8913C28.4904 15.3517 28.4904 13.8122 28.4904 12.2694C28.4904 10.9859 28.4904 9.70241 28.4904 8.41556C28.4904 7.65759 28.4904 6.903 28.4904 6.14504C28.4904 6.04398 28.4904 5.94292 28.4904 5.84185C28.4904 5.31297 27.999 4.80766 27.4221 4.83124C26.8345 4.85145 26.3467 5.26917 26.3467 5.83849Z" fill="#003462"/>
<path id="Vector_2" d="M30.3714 4.65946C30.1114 4.65946 29.855 4.65946 29.5951 4.65946C28.89 4.65946 28.1884 4.65946 27.4833 4.65946C26.4364 4.65946 25.3894 4.65946 24.3424 4.65946C23.0711 4.65946 21.7998 4.65946 20.5285 4.65946C19.1361 4.65946 17.7437 4.65946 16.3513 4.65946C14.9447 4.65946 13.538 4.65946 12.1349 4.65946C10.8244 4.65946 9.51396 4.65946 8.1999 4.65946C7.0924 4.65946 5.98489 4.65946 4.87382 4.65946C4.07613 4.65946 3.27844 4.65946 2.48075 4.65946C2.10328 4.65946 1.72224 4.65609 1.3412 4.65946C1.32339 4.65946 1.30915 4.65946 1.29134 4.65946C0.732247 4.65946 0.19808 5.12434 0.223008 5.67007C0.247935 6.21917 0.693075 6.68069 1.29134 6.68069C1.5513 6.68069 1.8077 6.68069 2.06766 6.68069C2.77277 6.68069 3.4743 6.68069 4.17941 6.68069C5.22637 6.68069 6.27334 6.68069 7.32031 6.68069C8.59163 6.68069 9.86294 6.68069 11.1343 6.68069C12.5267 6.68069 13.9191 6.68069 15.3114 6.68069C16.7181 6.68069 18.1247 6.68069 19.5278 6.68069C20.8383 6.68069 22.1488 6.68069 23.4628 6.68069C24.5703 6.68069 25.6779 6.68069 26.7889 6.68069C27.5866 6.68069 28.3843 6.68069 29.182 6.68069C29.5595 6.68069 29.9405 6.68406 30.3215 6.68069C30.3394 6.68069 30.3536 6.68069 30.3714 6.68069C30.9305 6.68069 31.4647 6.2158 31.4397 5.67007C31.4112 5.12097 30.9697 4.65946 30.3714 4.65946Z" fill="#003462"/>
<path id="Vector_3" d="M24.599 5.67009C24.599 4.9694 24.599 4.26871 24.599 3.56801C24.599 3.18061 24.599 2.81342 24.5243 2.42602C24.3676 1.61752 23.7942 0.903355 23.0713 0.465421C22.4125 0.0645438 21.6718 0.000538194 20.9168 0.000538194C20.2758 0.000538194 19.6348 0.000538194 18.9938 0.000538194C17.0993 0.000538194 15.2084 0.000538194 13.3139 0.000538194C12.5696 0.000538194 11.8289 0.000538194 11.0846 0.000538194C10.6145 0.000538194 10.1623 -0.00956794 9.69577 0.0578064C8.81974 0.189186 8.06478 0.721444 7.57691 1.40529C7.21011 1.91734 7.06055 2.54055 7.06055 3.15366C7.06055 3.92173 7.06055 4.6898 7.06055 5.45786C7.06055 5.52861 7.06055 5.59935 7.06055 5.67009C7.06055 6.19898 7.55198 6.70429 8.12888 6.68071C8.70934 6.65713 9.19722 6.23604 9.19722 5.67009C9.19722 5.20184 9.19722 4.73359 9.19722 4.26534C9.19722 3.77687 9.15448 3.2682 9.21858 2.7831C9.20434 2.87406 9.19365 2.96164 9.17941 3.0526C9.2079 2.87406 9.25775 2.69888 9.32898 2.53045C9.29336 2.6113 9.25775 2.69214 9.22214 2.77299C9.27556 2.65846 9.3361 2.54729 9.41088 2.44286C9.42869 2.41928 9.44649 2.3957 9.4643 2.37212C9.52484 2.28116 9.30405 2.55066 9.38239 2.47318C9.43225 2.42602 9.47142 2.37549 9.52128 2.32832C9.56401 2.2879 9.61387 2.25084 9.6566 2.21042C9.76343 2.11609 9.54977 2.29127 9.54977 2.2879C9.54977 2.28116 9.61743 2.24074 9.62455 2.23737C9.74207 2.16326 9.86314 2.10262 9.9949 2.04872C9.90944 2.08241 9.82397 2.11609 9.7385 2.14978C9.91656 2.08241 10.0982 2.03524 10.2905 2.00829C10.1943 2.02177 10.1017 2.03188 10.0056 2.04535C10.44 1.99482 10.8959 2.02514 11.3339 2.02514C12.2242 2.02514 13.118 2.02514 14.0083 2.02514C16.031 2.02514 18.0537 2.02514 20.0729 2.02514C20.5928 2.02514 21.1376 1.98471 21.654 2.04535C21.5578 2.03188 21.4653 2.02177 21.3691 2.00829C21.5578 2.03524 21.743 2.08241 21.9211 2.14978C21.8356 2.11609 21.7501 2.08241 21.6647 2.04872C21.7858 2.09925 21.9033 2.15652 22.0137 2.22726C22.0386 2.24411 22.0635 2.26095 22.0884 2.27779C22.1846 2.33506 21.8997 2.1262 21.9816 2.20031C22.0315 2.24747 22.0849 2.28453 22.1347 2.33169C22.1775 2.37212 22.2166 2.41928 22.2594 2.4597C22.3591 2.56076 22.1739 2.35864 22.1775 2.35864C22.1846 2.35864 22.2273 2.42265 22.2309 2.42938C22.3092 2.54055 22.3733 2.65509 22.4303 2.77973C22.3947 2.69888 22.3591 2.61803 22.3235 2.53718C22.3947 2.70562 22.4446 2.87742 22.473 3.05933C22.4588 2.96838 22.4481 2.88079 22.4339 2.78984C22.498 3.27493 22.4552 3.78361 22.4552 4.27207C22.4552 4.74033 22.4552 5.20858 22.4552 5.67683C22.4552 6.20572 22.9467 6.71103 23.5236 6.68745C24.1112 6.65713 24.599 6.23604 24.599 5.67009Z" fill="#003462"/>
<path id="Vector_4" d="M8.37791 11.7583C8.37791 12.1334 8.37791 12.5084 8.37791 12.8857C8.37791 13.7867 8.37791 14.6877 8.37791 15.5909C8.37791 16.6772 8.37791 17.7634 8.37791 18.8496C8.37791 19.7894 8.37791 20.7293 8.37791 21.6691C8.37791 22.1288 8.36367 22.5884 8.37791 23.0458C8.37791 23.0526 8.37791 23.0595 8.37791 23.0663C8.37791 23.4254 8.86935 23.7684 9.44625 23.7524C10.0267 23.7364 10.5146 23.4505 10.5146 23.0663C10.5146 22.6913 10.5146 22.3163 10.5146 21.939C10.5146 21.038 10.5146 20.137 10.5146 19.2337C10.5146 18.1475 10.5146 17.0613 10.5146 15.9751C10.5146 15.0353 10.5146 14.0954 10.5146 13.1556C10.5146 12.6959 10.5288 12.2363 10.5146 11.7789C10.5146 11.7721 10.5146 11.7652 10.5146 11.7583C10.5146 11.3993 10.0231 11.0563 9.44625 11.0723C8.86579 11.0883 8.37791 11.3719 8.37791 11.7583Z" fill="#003462"/>
<path id="Vector_5" d="M16.8993 23.0596C16.8993 22.6846 16.8993 22.3096 16.8993 21.9323C16.8993 21.0313 16.8993 20.1303 16.8993 19.227C16.8993 18.1408 16.8993 17.0546 16.8993 15.9684C16.8993 15.0286 16.8993 14.0887 16.8993 13.1488C16.8993 12.6892 16.9136 12.2296 16.8993 11.7722C16.8993 11.7654 16.8993 11.7585 16.8993 11.7516C16.8993 11.3926 16.4079 11.0496 15.831 11.0656C15.2506 11.0816 14.7627 11.3675 14.7627 11.7516C14.7627 12.1267 14.7627 12.5017 14.7627 12.879C14.7627 13.78 14.7627 14.681 14.7627 15.5842C14.7627 16.6704 14.7627 17.7566 14.7627 18.8429C14.7627 19.7827 14.7627 20.7226 14.7627 21.6624C14.7627 22.1221 14.7484 22.5817 14.7627 23.0391C14.7627 23.0459 14.7627 23.0528 14.7627 23.0596C14.7627 23.4187 15.2541 23.7617 15.831 23.7457C16.4115 23.7297 16.8993 23.4438 16.8993 23.0596Z" fill="#003462"/>
<path id="Vector_6" d="M23.2846 23.0596C23.2846 22.6846 23.2846 22.3096 23.2846 21.9323C23.2846 21.0313 23.2846 20.1303 23.2846 19.227C23.2846 18.1408 23.2846 17.0546 23.2846 15.9684C23.2846 15.0286 23.2846 14.0887 23.2846 13.1488C23.2846 12.6892 23.2988 12.2296 23.2846 11.7722C23.2846 11.7654 23.2846 11.7585 23.2846 11.7516C23.2846 11.3926 22.7932 11.0496 22.2163 11.0656C21.6358 11.0816 21.1479 11.3675 21.1479 11.7516C21.1479 12.1267 21.1479 12.5017 21.1479 12.879C21.1479 13.78 21.1479 14.681 21.1479 15.5842C21.1479 16.6704 21.1479 17.7566 21.1479 18.8429C21.1479 19.7827 21.1479 20.7226 21.1479 21.6624C21.1479 22.1221 21.1337 22.5817 21.1479 23.0391C21.1479 23.0459 21.1479 23.0528 21.1479 23.0596C21.1479 23.4187 21.6394 23.7617 22.2163 23.7457C22.7967 23.7297 23.2846 23.4438 23.2846 23.0596Z" fill="#003462"/>
</g>
</svg>
