    <svg
        width="16"
        height="16"
        viewBox="0 0 16 16"
        fill="currentColor"
        xmlns="http://www.w3.org/2000/svg">
        <path
            d="M12.3566 2.91924C12.3566 3.29317 12.3566 3.6671 12.3566 4.04103C12.3566 4.93037 12.3566 5.81971 12.3566 6.70905C12.3566 7.77862 12.3566 8.8465 12.3566 9.91607C12.3566 10.829 12.3566 11.7436 12.3566 12.6565C12.3566 13.0793 12.3583 13.5021 12.3566 13.9248C12.3566 13.9973 12.3516 14.0697 12.3431 14.1421C12.3499 14.0967 12.3549 14.0529 12.3617 14.0074C12.3431 14.1421 12.3078 14.2735 12.2556 14.3998C12.2724 14.3594 12.2892 14.319 12.3061 14.2786C12.269 14.3678 12.2236 14.4521 12.1713 14.5329C12.1663 14.5413 12.1292 14.6053 12.1208 14.6053C12.1309 14.6053 12.2134 14.4908 12.1461 14.5716C12.1158 14.6087 12.0838 14.6441 12.0501 14.6778C12.0164 14.7114 11.981 14.7434 11.944 14.7738C11.9119 14.8007 11.8479 14.8327 11.9776 14.7485C11.9557 14.762 11.9355 14.7788 11.9153 14.7923C11.8328 14.8479 11.7435 14.895 11.6526 14.9338C11.693 14.9169 11.7334 14.9001 11.7738 14.8832C11.6475 14.9355 11.5161 14.9708 11.3814 14.9894C11.4269 14.9826 11.4706 14.9776 11.5161 14.9708C11.2096 15.0096 10.8895 14.9843 10.5813 14.9843C9.94967 14.9843 9.31804 14.9843 8.6864 14.9843C7.91328 14.9843 7.14184 14.9843 6.36872 14.9843C5.7034 14.9843 5.03976 14.9843 4.37444 14.9843C4.07294 14.9843 3.77144 14.986 3.46994 14.9843C3.3992 14.9843 3.32845 14.9793 3.25771 14.9708C3.30319 14.9776 3.34698 14.9826 3.39246 14.9894C3.25771 14.9708 3.12633 14.9355 3 14.8832C3.04043 14.9001 3.08085 14.9169 3.12128 14.9338C3.03201 14.8967 2.94779 14.8512 2.86694 14.799C2.85852 14.794 2.79451 14.7569 2.79451 14.7485C2.79451 14.7586 2.90905 14.8411 2.8282 14.7738C2.79114 14.7434 2.75577 14.7114 2.72208 14.6778C2.6884 14.6441 2.65639 14.6087 2.62607 14.5716C2.59912 14.5396 2.56712 14.4756 2.65134 14.6053C2.63787 14.5834 2.62102 14.5632 2.60755 14.543C2.55196 14.4605 2.5048 14.3712 2.46606 14.2802C2.4829 14.3207 2.49975 14.3611 2.51659 14.4015C2.46438 14.2752 2.429 14.1438 2.41048 14.0091C2.41721 14.0545 2.42227 14.0983 2.429 14.1438C2.41048 13.9922 2.41553 13.8373 2.41553 13.684C2.41553 13.4246 2.41553 13.1652 2.41553 12.9075C2.41553 12.035 2.41553 11.1625 2.41553 10.29C2.41553 9.22212 2.41553 8.15423 2.41553 7.08635C2.41553 6.15827 2.41553 5.23018 2.41553 4.3021C2.41553 3.84901 2.42227 3.39592 2.41553 2.94282C2.41553 2.93609 2.41553 2.92935 2.41553 2.92261C2.41553 2.65817 2.18309 2.40551 1.91022 2.4173C1.63567 2.42909 1.40491 2.63964 1.40491 2.92261C1.40491 3.1281 1.40491 3.3336 1.40491 3.53909C1.40491 4.07134 1.40491 4.6036 1.40491 5.13586C1.40491 5.86013 1.40491 6.58272 1.40491 7.307C1.40491 8.0936 1.40491 8.87851 1.40491 9.6651C1.40491 10.3826 1.40491 11.1002 1.40491 11.8177C1.40491 12.3365 1.40491 12.8553 1.40491 13.3757C1.40491 13.6149 1.38807 13.8608 1.41334 14.1C1.44871 14.4352 1.54135 14.762 1.73 15.0466C1.91022 15.3212 2.1494 15.557 2.43406 15.7221C2.76588 15.9141 3.1398 16 3.52047 16C3.90956 16 4.29864 16 4.68773 16C5.39685 16 6.10765 16 6.81676 16C7.5882 16 8.36132 16 9.13276 16C9.70881 16 10.2849 16 10.8609 16C10.9957 16 11.1287 16 11.2635 16C11.6542 16 12.045 15.9057 12.3785 15.6985C12.9647 15.3363 13.3251 14.7131 13.3672 14.0293C13.3723 13.9501 13.3706 13.8709 13.3706 13.7918C13.3706 13.4162 13.3706 13.0406 13.3706 12.6649C13.3706 12.0283 13.3706 11.3899 13.3706 10.7532C13.3706 9.98345 13.3706 9.21538 13.3706 8.44563C13.3706 7.67587 13.3706 6.90612 13.3706 6.13468C13.3706 5.49294 13.3706 4.8512 13.3706 4.20778C13.3706 3.8288 13.3706 3.4515 13.3706 3.07252C13.3706 3.02199 13.3706 2.97146 13.3706 2.92093C13.3706 2.65648 13.1382 2.40383 12.8653 2.41562C12.5874 2.42573 12.3566 2.63459 12.3566 2.91924Z"
            fill="currentColor"
        />
        <path
            d="M14.2602 2.32973C14.1372 2.32973 14.016 2.32973 13.893 2.32973C13.5595 2.32973 13.2277 2.32973 12.8942 2.32973C12.399 2.32973 11.9038 2.32973 11.4086 2.32973C10.8072 2.32973 10.2059 2.32973 9.60462 2.32973C8.94603 2.32973 8.28745 2.32973 7.62886 2.32973C6.96354 2.32973 6.29822 2.32973 5.63458 2.32973C5.01474 2.32973 4.39489 2.32973 3.77336 2.32973C3.24953 2.32973 2.72569 2.32973 2.20017 2.32973C1.82287 2.32973 1.44558 2.32973 1.06828 2.32973C0.889739 2.32973 0.709512 2.32804 0.529286 2.32973C0.520864 2.32973 0.514127 2.32973 0.505705 2.32973C0.241261 2.32973 -0.0113934 2.56217 0.000397114 2.83504C0.0121876 3.10959 0.222733 3.34034 0.505705 3.34034C0.628663 3.34034 0.749937 3.34034 0.872895 3.34034C1.2064 3.34034 1.53822 3.34034 1.87172 3.34034C2.36692 3.34034 2.86212 3.34034 3.35733 3.34034C3.95864 3.34034 4.55996 3.34034 5.16127 3.34034C5.81986 3.34034 6.47844 3.34034 7.13703 3.34034C7.80235 3.34034 8.46767 3.34034 9.13131 3.34034C9.75115 3.34034 10.371 3.34034 10.9925 3.34034C11.5164 3.34034 12.0402 3.34034 12.5657 3.34034C12.943 3.34034 13.3203 3.34034 13.6976 3.34034C13.8762 3.34034 14.0564 3.34203 14.2366 3.34034C14.245 3.34034 14.2518 3.34034 14.2602 3.34034C14.5246 3.34034 14.7773 3.1079 14.7655 2.83504C14.752 2.56049 14.5432 2.32973 14.2602 2.32973Z"
            fill="currentColor"
        />
        <path
            d="M11.5298 2.83505C11.5298 2.4847 11.5298 2.13435 11.5298 1.78401C11.5298 1.5903 11.5298 1.40671 11.4945 1.21301C11.4204 0.808762 11.1492 0.451677 10.8073 0.232711C10.4956 0.0322719 10.1453 0.000269097 9.78822 0.000269097C9.48503 0.000269097 9.18185 0.000269097 8.87866 0.000269097C7.98258 0.000269097 7.08819 0.000269097 6.19211 0.000269097C5.84008 0.000269097 5.48973 0.000269097 5.1377 0.000269097C4.91537 0.000269097 4.70145 -0.00478397 4.4808 0.0289032C4.06645 0.0945932 3.70936 0.360722 3.47861 0.702647C3.30512 0.95867 3.23438 1.27028 3.23438 1.57683C3.23438 1.96086 3.23438 2.3449 3.23438 2.72893C3.23438 2.7643 3.23438 2.79967 3.23438 2.83505C3.23438 3.09949 3.46682 3.35214 3.73968 3.34035C4.01423 3.32856 4.24499 3.11802 4.24499 2.83505C4.24499 2.60092 4.24499 2.36679 4.24499 2.13267C4.24499 1.88844 4.22478 1.6341 4.2551 1.39155C4.24836 1.43703 4.24331 1.48082 4.23657 1.5263C4.25004 1.43703 4.27362 1.34944 4.30731 1.26522C4.29047 1.30565 4.27362 1.34607 4.25678 1.3865C4.28205 1.32923 4.31068 1.27364 4.34605 1.22143C4.35447 1.20964 4.3629 1.19785 4.37132 1.18606C4.39995 1.14058 4.29552 1.27533 4.33258 1.23659C4.35616 1.21301 4.37469 1.18774 4.39827 1.16416C4.41848 1.14395 4.44206 1.12542 4.46227 1.10521C4.5128 1.05805 4.41174 1.14563 4.41174 1.14395C4.41174 1.14058 4.44375 1.12037 4.44711 1.11868C4.5027 1.08163 4.55997 1.05131 4.62229 1.02436C4.58186 1.0412 4.54144 1.05805 4.50101 1.07489C4.58523 1.0412 4.67113 1.01762 4.76209 1.00415C4.71661 1.01088 4.67282 1.01594 4.62734 1.02268C4.83283 0.99741 5.04843 1.01257 5.25561 1.01257C5.6767 1.01257 6.09947 1.01257 6.52056 1.01257C7.47728 1.01257 8.43399 1.01257 9.38902 1.01257C9.63494 1.01257 9.89265 0.992357 10.1369 1.02268C10.0914 1.01594 10.0476 1.01088 10.0021 1.00415C10.0914 1.01762 10.179 1.0412 10.2632 1.07489C10.2228 1.05805 10.1824 1.0412 10.1419 1.02436C10.1992 1.04963 10.2548 1.07826 10.307 1.11363C10.3188 1.12205 10.3306 1.13047 10.3424 1.1389C10.3878 1.16753 10.2531 1.0631 10.2918 1.10016C10.3154 1.12374 10.3407 1.14226 10.3643 1.16585C10.3845 1.18606 10.403 1.20964 10.4232 1.22985C10.4704 1.28038 10.3828 1.17932 10.3845 1.17932C10.3878 1.17932 10.4081 1.21132 10.4097 1.21469C10.4468 1.27028 10.4771 1.32754 10.5041 1.38987C10.4872 1.34944 10.4704 1.30902 10.4535 1.26859C10.4872 1.35281 10.5108 1.43871 10.5243 1.52967C10.5175 1.48419 10.5125 1.4404 10.5058 1.39492C10.5361 1.63747 10.5159 1.8918 10.5159 2.13604C10.5159 2.37016 10.5159 2.60429 10.5159 2.83841C10.5159 3.10286 10.7483 3.35551 11.0212 3.34372C11.2991 3.32856 11.5298 3.11802 11.5298 2.83505Z"
            fill="currentColor"
        />
        <path
            d="M3.85749 5.87917C3.85749 6.06669 3.85749 6.2542 3.85749 6.44286C3.85749 6.89335 3.85749 7.34384 3.85749 7.79547C3.85749 8.33858 3.85749 8.88168 3.85749 9.42479C3.85749 9.89471 3.85749 10.3646 3.85749 10.8346C3.85749 11.0644 3.85075 11.2942 3.85749 11.5229C3.85749 11.5263 3.85749 11.5297 3.85749 11.5332C3.85749 11.7127 4.08993 11.8842 4.36279 11.8762C4.63735 11.8682 4.8681 11.7253 4.8681 11.5332C4.8681 11.3457 4.8681 11.1581 4.8681 10.9695C4.8681 10.519 4.8681 10.0685 4.8681 9.61687C4.8681 9.07377 4.8681 8.53066 4.8681 7.98756C4.8681 7.51763 4.8681 7.0477 4.8681 6.57778C4.8681 6.34796 4.87484 6.11814 4.8681 5.88946C4.8681 5.88603 4.8681 5.8826 4.8681 5.87917C4.8681 5.69966 4.63566 5.52815 4.36279 5.53616C4.08824 5.54416 3.85749 5.68594 3.85749 5.87917Z"
            fill="currentColor"
        />
        <path
            d="M7.88812 11.5298C7.88812 11.3423 7.88812 11.1548 7.88812 10.9661C7.88812 10.5156 7.88812 10.0652 7.88812 9.61352C7.88812 9.07041 7.88812 8.52731 7.88812 7.9842C7.88812 7.51428 7.88812 7.04435 7.88812 6.57442C7.88812 6.3446 7.89486 6.11478 7.88812 5.88611C7.88812 5.88268 7.88812 5.87924 7.88812 5.87581C7.88812 5.6963 7.65568 5.5248 7.38281 5.5328C7.10826 5.5408 6.87751 5.68373 6.87751 5.87581C6.87751 6.06333 6.87751 6.25084 6.87751 6.4395C6.87751 6.88999 6.87751 7.34048 6.87751 7.79212C6.87751 8.33522 6.87751 8.87832 6.87751 9.42143C6.87751 9.89136 6.87751 10.3613 6.87751 10.8312C6.87751 11.061 6.87077 11.2909 6.87751 11.5195C6.87751 11.523 6.87751 11.5264 6.87751 11.5298C6.87751 11.7093 7.10995 11.8808 7.38281 11.8728C7.65736 11.8648 7.88812 11.7219 7.88812 11.5298Z"
            fill="currentColor"
        />
        <path
            d="M10.9081 11.5298C10.9081 11.3423 10.9081 11.1548 10.9081 10.9661C10.9081 10.5156 10.9081 10.0652 10.9081 9.61352C10.9081 9.07041 10.9081 8.52731 10.9081 7.9842C10.9081 7.51428 10.9081 7.04435 10.9081 6.57442C10.9081 6.3446 10.9149 6.11478 10.9081 5.88611C10.9081 5.88268 10.9081 5.87924 10.9081 5.87581C10.9081 5.6963 10.6757 5.5248 10.4028 5.5328C10.1283 5.5408 9.89753 5.68373 9.89753 5.87581C9.89753 6.06333 9.89753 6.25084 9.89753 6.4395C9.89753 6.88999 9.89753 7.34048 9.89753 7.79212C9.89753 8.33522 9.89753 8.87832 9.89753 9.42143C9.89753 9.89136 9.89753 10.3613 9.89753 10.8312C9.89753 11.061 9.89079 11.2909 9.89753 11.5195C9.89753 11.523 9.89753 11.5264 9.89753 11.5298C9.89753 11.7093 10.13 11.8808 10.4028 11.8728C10.6774 11.8648 10.9081 11.7219 10.9081 11.5298Z"
            fill="currentColor"
        />
    </svg>
