<svg width="27" height="31" viewBox="0 0 27 31" fill="none" xmlns="http://www.w3.org/2000/svg">
<path fill-rule="evenodd" clip-rule="evenodd" d="M4.05722 1.07483H20.8565C23.2309 1.07483 25.1558 2.99971 25.1558 5.37416V25.6258C25.1558 28.0003 23.2309 29.9252 20.8565 29.9252H4.05722C3.46361 29.9252 2.98239 29.4439 2.98239 28.8503V27.1845H5.36617C5.58877 27.1845 5.76923 27.004 5.76923 26.7814C5.76923 26.5588 5.58877 26.3784 5.36617 26.3784H2.98239V21.461H5.36617C5.58877 21.461 5.76923 21.2806 5.76923 21.0579C5.76923 20.8353 5.58877 20.6549 5.36617 20.6549H2.98239V15.7383H5.36617C5.58877 15.7383 5.76923 15.5579 5.76923 15.3353C5.76923 15.1127 5.58877 14.9322 5.36617 14.9322H2.98239V10.0157H5.36617C5.58877 10.0157 5.76923 9.83521 5.76923 9.61261C5.76923 9.39 5.58877 9.20955 5.36617 9.20955H2.98239V4.2922H5.36617C5.58877 4.2922 5.76923 4.11174 5.76923 3.88914C5.76923 3.66653 5.58877 3.48608 5.36617 3.48608H2.98239V2.14967C2.98239 1.55605 3.46361 1.07483 4.05722 1.07483ZM1.90756 26.3784V21.461H0.403062C0.180457 21.461 0 21.2806 0 21.0579C0 20.8353 0.180457 20.6549 0.403062 20.6549H1.90756V15.7383H0.403062C0.180457 15.7383 0 15.5579 0 15.3353C0 15.1127 0.180457 14.9322 0.403062 14.9322H1.90756V10.0157H0.403062C0.180457 10.0157 0 9.83521 0 9.61261C0 9.39 0.180457 9.20955 0.403062 9.20955H1.90756V4.2922H0.403062C0.180457 4.2922 0 4.11174 0 3.88914C0 3.66653 0.180457 3.48608 0.403062 3.48608H1.90756V2.14967C1.90756 0.962438 2.86999 0 4.05722 0H20.8565C23.8245 0 26.2306 2.4061 26.2306 5.37416V25.6258C26.2306 28.5939 23.8245 31 20.8565 31H4.05722C2.87 31 1.90756 30.0376 1.90756 28.8503V27.1845H0.403062C0.180457 27.1845 0 27.004 0 26.7814C0 26.5588 0.180457 26.3784 0.403062 26.3784H1.90756ZM14.9777 10.4333C15.7411 10.4333 16.4783 9.73471 16.4783 8.72039C16.4783 7.70607 15.7411 7.00744 14.9777 7.00744C14.2142 7.00744 13.477 7.70607 13.477 8.72039C13.477 9.73471 14.2142 10.4333 14.9777 10.4333ZM14.9777 11.2395C16.2517 11.2395 17.2844 10.1116 17.2844 8.72039C17.2844 7.32915 16.2517 6.20132 14.9777 6.20132C13.7037 6.20132 12.6709 7.32915 12.6709 8.72039C12.6709 10.1116 13.7037 11.2395 14.9777 11.2395ZM18.2927 15.8911C18.3502 15.2772 18.325 14.4306 17.9552 13.7501C17.6112 13.117 16.8811 12.4651 15.1059 12.4651C13.3362 12.4651 12.5841 13.114 12.2211 13.7537C11.8355 14.4333 11.7908 15.2768 11.8345 15.8911H15.1059H18.2927ZM18.3538 16.6972C18.7222 16.6972 19.0426 16.4462 19.0836 16.0801C19.2344 14.7352 19.1385 11.659 15.1059 11.659C11.0867 11.659 10.9179 14.7148 11.0399 16.0667C11.0735 16.4392 11.3969 16.6972 11.7709 16.6972H15.1059H18.3538ZM8.63092 20.655C8.63092 20.2097 8.99184 19.8488 9.43705 19.8488H21.1325C21.5777 19.8488 21.9386 20.2097 21.9386 20.655C21.9386 21.1002 21.5777 21.4611 21.1325 21.4611H9.43705C8.99184 21.4611 8.63092 21.1002 8.63092 20.655ZM9.43509 23.1877C8.98988 23.1877 8.62897 23.5486 8.62897 23.9938C8.62897 24.439 8.98988 24.7999 9.43509 24.7999H11.5459C11.9911 24.7999 12.352 24.439 12.352 23.9938C12.352 23.5486 11.9911 23.1877 11.5459 23.1877H9.43509ZM13.3057 23.9938C13.3057 23.5486 13.6666 23.1877 14.1119 23.1877H21.1304C21.5756 23.1877 21.9365 23.5486 21.9365 23.9938C21.9365 24.439 21.5756 24.7999 21.1304 24.7999H14.1119C13.6666 24.7999 13.3057 24.439 13.3057 23.9938Z" fill="#003462"/>
<line x1="5.5" y1="2.18558e-08" x2="5.5" y2="30" stroke="#003462"/>
</svg>
