<svg width="33" height="32" viewBox="0 0 33 32" fill="none" xmlns="http://www.w3.org/2000/svg">
<path id="drafts" d="M32.0393 8.22118C32.0277 8.17692 32.0121 8.13436 31.9945 8.09182C31.9867 8.07138 31.9829 8.04926 31.9712 8.03054H31.973C31.9497 7.98458 31.9246 7.94202 31.8953 7.89948C31.8855 7.88416 31.8777 7.86884 31.8661 7.85352C31.8233 7.79904 31.7746 7.74798 31.7221 7.70032L23.2622 0.29967C23.2078 0.25201 23.1495 0.20946 23.0873 0.173715C23.0716 0.163502 23.0522 0.156693 23.0347 0.148183C22.9861 0.122651 22.9374 0.098822 22.8849 0.080098C22.8615 0.0715872 22.8382 0.0681832 22.8149 0.0596726C22.6943 0.0188217 22.5659 -0.00160139 22.4375 9.80036e-05H4.5018C2.14023 0.00350202 0.226102 1.6784 0.222168 3.74478V28.2554C0.226058 30.3216 2.14023 31.9966 4.5018 32H27.7829C30.1445 31.9966 32.0587 30.3216 32.0626 28.2554V8.42204C32.0626 8.35396 32.0549 8.28758 32.0393 8.2212V8.22118ZM23.6043 3.48596L28.0784 7.40084H25.5495C24.4759 7.40084 23.6043 6.6383 23.6043 5.69874V3.48596ZM27.7826 29.9574H4.5016C3.42781 29.9574 2.55634 29.1948 2.55634 28.2552V3.7447C2.55634 2.80516 3.42781 2.0426 4.5016 2.0426H21.27V5.69874C21.2738 7.76512 23.1881 9.43998 25.5497 9.44344H29.728V28.2554C29.728 28.7064 29.5239 29.1404 29.1582 29.4588C28.7943 29.7788 28.2983 29.9574 27.7829 29.9574H27.7826Z" fill="#003462"/>
</svg>
