<svg width="33" height="32" viewBox="0 0 33 32" fill="none" xmlns="http://www.w3.org/2000/svg">
<path id="edit" d="M24.2711 0.368942C23.7791 -0.122981 22.9913 -0.122981 22.5493 0.368942L4.05205 18.8161C4.00209 18.866 3.95405 18.964 3.90409 19.0121C3.90409 19.0121 3.90409 19.062 3.85413 19.062C3.80417 19.112 3.80417 19.16 3.75613 19.258V19.308L0.0667034 30.3763C-0.0812572 30.8182 0.0167431 31.3101 0.362624 31.656C0.608585 31.902 0.904527 32 1.24848 32C1.39644 32 1.49444 32 1.6424 31.95L12.7107 28.2606H12.7606C12.8106 28.2606 12.8586 28.2107 12.9566 28.1626C12.9566 28.1626 13.0066 28.1626 13.0066 28.1127C13.1046 28.0627 13.1546 28.0147 13.2026 27.9647L31.6497 9.51758C32.1416 9.02566 32.1416 8.23779 31.6497 7.79585L24.2711 0.368942ZM3.21627 28.8026L5.4799 21.9658L10.0552 26.5411L3.21627 28.8026ZM12.3168 25.3591L6.65973 19.702L23.3851 2.97663L29.0422 8.63374L12.3168 25.3591Z" fill="currentColor"/>
</svg>
