    <svg
        width="16"
        height="16"
        viewBox="0 0 16 16"
        fill="currentColor"
        xmlns="http://www.w3.org/2000/svg">
        <path
            d="M1.52381 2C0.678571 2 0 2.77264 0 3.70045V12.2931C0 13.2209 0.678571 14 1.52381 14H14.4762C15.3214 14 16 13.2209 16 12.2931V3.70045C16 2.77264 15.3214 2 14.4762 2H1.52381ZM1.52381 2.82759H14.4762C14.5878 2.82759 14.6964 2.85749 14.7917 2.90518L8.49413 9.23499C8.20322 9.52756 7.81556 9.52756 7.52389 9.23499L1.21436 2.90518C1.30886 2.85911 1.41377 2.82759 1.52389 2.82759H1.52381ZM0.77381 3.59052L5.2441 8.07771L0.857238 12.7135C0.799202 12.589 0.762 12.4484 0.762 12.2932V3.70055C0.762 3.66257 0.770185 3.627 0.773905 3.59064L0.77381 3.59052ZM15.2262 3.59699C15.2299 3.63174 15.2381 3.66488 15.2381 3.70044V12.2931C15.2381 12.445 15.2046 12.5849 15.1488 12.7069L10.7738 8.07114L15.2262 3.59699ZM10.2203 8.62707L14.5001 13.1724H14.4763H1.5239H1.50605L5.80357 8.63349L7.00595 9.84255C7.57144 10.4099 8.44643 10.4107 9.01186 9.84255L10.2203 8.62707Z"
            fill="currentColor"
        />
    </svg>
