<svg width="33" height="24" viewBox="0 0 33 24" fill="none" xmlns="http://www.w3.org/2000/svg">
<path id="email" d="M3.06617 0C1.3757 0 0.0185547 1.54528 0.0185547 3.4009V20.5862C0.0185547 22.4418 1.3757 24 3.06617 24H28.971C30.6614 24 32.0186 22.4418 32.0186 20.5862V3.4009C32.0186 1.54528 30.6614 0 28.971 0H3.06617ZM3.06617 1.65518H28.971C29.1942 1.65518 29.4114 1.71498 29.602 1.81036L17.0068 14.47C16.425 15.0551 15.6497 15.0551 15.0663 14.47L2.44727 1.81036C2.63627 1.71822 2.84609 1.65518 3.06633 1.65518H3.06617ZM1.56617 3.18104L10.5068 12.1554L1.73303 21.427C1.61696 21.178 1.54255 20.8968 1.54255 20.5864V3.4011C1.54255 3.32514 1.55892 3.254 1.56636 3.18128L1.56617 3.18104ZM30.471 3.19398C30.4784 3.26348 30.4948 3.32976 30.4948 3.40088V20.5862C30.4948 20.89 30.4278 21.1698 30.3162 21.4138L21.5662 12.1423L30.471 3.19398ZM20.4592 13.2541L29.0188 22.3448H28.9712H3.06635H3.03065L11.6257 13.267L14.0305 15.6851C15.1614 16.8198 16.9114 16.8214 18.0423 15.6851L20.4592 13.2541Z" fill="currentColor"/>
</svg>
