<svg width="16" height="16" viewBox="0 0 16 16" fill="none" xmlns="http://www.w3.org/2000/svg">
<path fill-rule="evenodd" clip-rule="evenodd" d="M15 8C15 11.866 11.866 15 8 15C4.13401 15 1 11.866 1 8C1 4.13401 4.13401 1 8 1C11.866 1 15 4.13401 15 8ZM16 8C16 12.4183 12.4183 16 8 16C3.58172 16 0 12.4183 0 8C0 3.58172 3.58172 0 8 0C12.4183 0 16 3.58172 16 8ZM5 6.5C5.55228 6.5 6 6.05228 6 5.5C6 4.94772 5.55228 4.5 5 4.5C4.44772 4.5 4 4.94772 4 5.5C4 6.05228 4.44772 6.5 5 6.5ZM12 5.5C12 6.05228 11.5523 6.5 11 6.5C10.4477 6.5 10 6.05228 10 5.5C10 4.94772 10.4477 4.5 11 4.5C11.5523 4.5 12 4.94772 12 5.5ZM12.9698 8.99399C13.0031 8.72254 12.7783 8.5 12.5048 8.5C12.2313 8.5 12.0134 8.72298 11.972 8.99331C11.8532 9.76816 11.4568 10.4923 10.8352 11.0517C10.0833 11.7285 9.06342 12.1087 8 12.1087C6.93658 12.1087 5.91672 11.7285 5.16477 11.0517C4.54322 10.4923 4.1468 9.76816 4.02801 8.99331C3.98656 8.72298 3.76868 8.5 3.49519 8.5C3.2217 8.5 2.9969 8.72254 3.0302 8.99399C3.15433 10.0058 3.65708 10.9553 4.46447 11.682C5.40215 12.5259 6.67392 13 8 13C9.32608 13 10.5979 12.5259 11.5355 11.682C12.3429 10.9553 12.8457 10.0058 12.9698 8.99399Z" fill="#003462"/>
</svg>
