<svg width="27" height="29" viewBox="0 0 27 29" fill="none" xmlns="http://www.w3.org/2000/svg">
<path id="extensions" fill-rule="evenodd" clip-rule="evenodd" d="M24.3238 10.8355C24.3238 10.1876 24.8175 9.6629 25.4274 9.6629C25.7197 9.6629 26.0013 9.78608 26.2082 10.0059C26.4151 10.2258 26.531 10.5248 26.531 10.8355V23.6219C26.531 26.1445 24.6065 28.1891 22.2323 28.1891H4.29864C1.92442 28.1891 0 26.1443 0 23.6219V4.5673C0 2.0447 1.92446 0 4.29864 0H16.3328C16.9426 0 17.4364 0.52472 17.4364 1.17258C17.4364 1.82046 16.9426 2.34518 16.3328 2.34518H4.29864C3.14394 2.34518 2.20727 3.34044 2.20727 4.56726V23.6217C2.20727 24.8487 3.14398 25.8439 4.29864 25.8439H22.2323C23.3871 25.8439 24.3238 24.8487 24.3238 23.6217V10.8355ZM22 0C22.502 0 22.9091 0.407014 22.9091 0.909091V4.30863H26.0909C26.593 4.30863 27 4.71564 27 5.21772C27 5.7198 26.593 6.12681 26.0909 6.12681H22.9091V9.09546C22.9091 9.59754 22.502 10.0046 22 10.0046C21.4979 10.0046 21.0909 9.59754 21.0909 9.09546V6.12681H17.9091C17.407 6.12681 17 5.7198 17 5.21772C17 4.71564 17.407 4.30863 17.9091 4.30863H21.0909V0.909091C21.0909 0.407014 21.4979 0 22 0Z" fill="#003462"/>
</svg>
