<svg width="31" height="31" viewBox="0 0 31 31" fill="none" xmlns="http://www.w3.org/2000/svg">
<path id="fields" fill-rule="evenodd" clip-rule="evenodd" d="M5 0C4.44772 0 4 0.447715 4 1C4 1.55228 4.44772 2 5 2H28C28.5523 2 29 2.44772 29 3V26C29 26.5523 29.4477 27 30 27C30.5523 27 31 26.5523 31 26V3C31 1.34315 29.6569 0 28 0H5ZM23 7H3C2.44772 7 2 7.44772 2 8V28C2 28.5523 2.44772 29 3 29H23C23.5523 29 24 28.5523 24 28V8C24 7.44772 23.5523 7 23 7ZM3 5C1.34315 5 0 6.34315 0 8V28C0 29.6569 1.34315 31 3 31H23C24.6569 31 26 29.6569 26 28V8C26 6.34315 24.6569 5 23 5H3ZM10.9928 22.2045L19.9599 11.3906C20.3381 10.935 21.0187 10.8684 21.4805 11.2414C21.9424 11.6145 22.0099 12.286 21.6318 12.7417L11.9085 24.467C11.5034 24.9547 10.7607 24.9907 10.3083 24.5456L4.90647 19.2159C4.48512 18.7989 4.48512 18.1247 4.90647 17.7076C5.32918 17.2919 6.01248 17.2919 6.43519 17.7076L10.9928 22.2045Z" fill="#003462"/>
</svg>
