    <svg
        width="16"
        height="16"
        viewBox="0 0 16 16"
        fill="currentColor"
        xmlns="http://www.w3.org/2000/svg">
        <path
            d="M1.14286 3.42856V14.8571H12.5714V3.42856H1.14286ZM1.14286 2.28571H12.5714C13.2029 2.28571 13.7143 2.79714 13.7143 3.42856V14.8571C13.7143 15.4886 13.2029 16 12.5714 16H1.14286C0.511433 16 0 15.4886 0 14.8571V3.42856C0 2.79714 0.511433 2.28571 1.14286 2.28571Z"
            fill="currentColor"
        />
        <path
            d="M5.67224 11.1494L10.4152 5.35224C10.6152 5.10796 10.9752 5.07225 11.2195 5.27224C11.4637 5.47225 11.4995 5.83224 11.2995 6.07652L6.15661 12.3622C5.94232 12.6237 5.54947 12.643 5.31018 12.4044L2.45304 9.54723C2.23017 9.32365 2.23017 8.96224 2.45304 8.73866C2.67662 8.51579 3.03803 8.51579 3.26161 8.73866L5.67224 11.1494Z"
            fill="currentColor"
        />
        <path
            d="M2.28566 1.14286C1.96994 1.14286 1.71423 0.88715 1.71423 0.571429C1.71423 0.255707 1.96994 0 2.28566 0H14.8571C15.4885 0 15.9999 0.511433 15.9999 1.14286V13.1429C15.9999 13.4586 15.7442 13.7143 15.4285 13.7143C15.1128 13.7143 14.8571 13.4586 14.8571 13.1429V1.14286H2.28566Z"
            fill="currentColor"
        />
    </svg>
