<svg width="25" height="32" viewBox="0 0 25 32" fill="none" xmlns="http://www.w3.org/2000/svg">
<path id="filter" fill-rule="evenodd" clip-rule="evenodd" d="M20.6102 30.9153C20.6102 31.5143 20.1245 32 19.5254 32C18.9263 32 18.4407 31.5143 18.4407 30.9153V16.2712C18.4407 16.2349 18.4425 16.1991 18.4459 16.1638C15.9677 15.6633 14.1017 13.4733 14.1017 10.8475C14.1017 8.22165 15.9677 6.03166 18.4459 5.53116C18.4425 5.49582 18.4407 5.45998 18.4407 5.42373V1.08475C18.4407 0.485658 18.9263 0 19.5254 0C20.1245 0 20.6102 0.485658 20.6102 1.08475V5.42373C20.6102 5.45998 20.6084 5.49582 20.6049 5.53116C23.0832 6.03166 24.9492 8.22165 24.9492 10.8475C24.9492 13.4733 23.0832 15.6633 20.6049 16.1638C20.6084 16.1991 20.6102 16.2349 20.6102 16.2712V30.9153ZM22.7797 10.8475C22.7797 9.05019 21.3227 7.59322 19.5254 7.59322C17.7282 7.59322 16.2712 9.05019 16.2712 10.8475C16.2712 12.6447 17.7282 14.1017 19.5254 14.1017C21.3227 14.1017 22.7797 12.6447 22.7797 10.8475ZM6.42373 1.08475C6.42373 0.532461 5.97601 0.0847458 5.42373 0.0847458C4.87144 0.0847458 4.42373 0.532461 4.42373 1.08475V15.7288C4.42373 15.7596 4.42512 15.79 4.42783 15.82C1.90805 16.2877 0 18.4973 0 21.1525C0 23.8078 1.90805 26.0174 4.42784 26.485C4.42512 26.5151 4.42373 26.5455 4.42373 26.5763L4.42373 30.9153C4.42373 31.4675 4.87144 31.9153 5.42373 31.9153C5.97601 31.9153 6.42373 31.4675 6.42373 30.9153V26.5763C6.42373 26.5455 6.42234 26.5151 6.41962 26.485C8.9394 26.0174 10.8475 23.8078 10.8475 21.1525C10.8475 18.4973 8.93941 16.2877 6.41962 15.82C6.42234 15.79 6.42373 15.7596 6.42373 15.7288V1.08475ZM8.84746 21.1525C8.84746 23.0434 7.3146 24.5763 5.42373 24.5763C3.53286 24.5763 2 23.0434 2 21.1525C2 19.2617 3.53286 17.7288 5.42373 17.7288C7.3146 17.7288 8.84746 19.2617 8.84746 21.1525Z" fill="#003462"/>
</svg>
