    <svg
        width="11"
        height="16"
        viewBox="0 0 11 16"
        fill="currentColor"
        xmlns="http://www.w3.org/2000/svg">
        <path
            d="M0 10.8231C0 11.4268 0.191434 12.0125 0.541638 12.485C0.892426 12.9575 1.38211 13.2894 1.93076 13.4263V15.3856C1.93076 15.725 2.18758 16 2.50449 16C2.82141 16 3.07882 15.725 3.07882 15.3856V13.4263C3.81366 13.2394 4.43001 12.7069 4.75574 11.9769C5.08142 11.2475 5.08142 10.3994 4.75574 9.66937C4.43005 8.93999 3.8137 8.4075 3.07882 8.22062L3.07882 0.614368C3.07882 0.274992 2.82142 0 2.50449 0C2.18756 0 1.93076 0.275008 1.93076 0.614368V8.22062C1.38211 8.35749 0.892426 8.68937 0.541638 9.16187C0.191434 9.63436 0 10.22 0 10.8231L0 10.8231ZM3.86214 10.8231H3.86156C3.86156 11.4081 3.53296 11.9356 3.02809 12.1594C2.52381 12.3831 1.94307 12.2594 1.55668 11.8456C1.1703 11.4325 1.05472 10.81 1.26368 10.27C1.47263 9.72935 1.96524 9.37748 2.51156 9.37748C2.86934 9.37748 3.21312 9.52936 3.46643 9.8006C3.71973 10.0718 3.86156 10.44 3.86156 10.8231H3.86214Z"
            fill="currentColor"
        />
        <path
            d="M6 5.15493C6.00058 5.75868 6.19143 6.34369 6.54222 6.81622C6.89243 7.28934 7.38211 7.62058 7.93076 7.75746V15.3856C7.93076 15.725 8.18816 16 8.50509 16C8.82202 16 9.07882 15.725 9.07882 15.3856V7.77938C9.81366 7.5925 10.43 7.06001 10.7557 6.33063C11.0814 5.60063 11.0814 4.7525 10.7557 4.02311C10.4301 3.29311 9.8137 2.76061 9.07882 2.57373V0.614368C9.07882 0.274992 8.822 0 8.50509 0C8.18818 0 7.93076 0.275008 7.93076 0.614368V2.57373C7.38562 2.70998 6.89885 3.03872 6.54865 3.50685C6.19844 3.97498 6.00526 4.55498 6 5.15501V5.15493ZM9.8487 5.15493C9.8487 5.73993 9.51952 6.26681 9.01523 6.49057C8.51036 6.71494 7.92962 6.59119 7.54323 6.17745C7.15743 5.7637 7.04186 5.14181 7.25082 4.60181C7.45976 4.06119 7.9518 3.70869 8.49811 3.70869C8.85648 3.70869 9.19967 3.86119 9.45298 4.13244C9.70629 4.40368 9.8487 4.77119 9.8487 5.15493Z"
            fill="currentColor"
        />
    </svg>
