<svg width="32" height="27" viewBox="0 0 32 27" fill="none" xmlns="http://www.w3.org/2000/svg">
<path id="folder" d="M2.54545 7.2822e-05C1.14771 7.2822e-05 0 1.14778 0 2.54553V23.6364C0 25.0342 1.14771 26.1819 2.54545 26.1819H29.4545C30.8523 26.1819 32 25.0342 32 23.6364V5.10226C32 4.72156 31.6534 4.37498 31.2727 4.37498C31.2599 3.63066 31.1051 1.76276 30.7159 1.23862C30.0852 0.532655 29.1861 0.467309 28.3864 0.465891H11.4813C11.2126 0.5 10.5143 0.044 9.85229 0L2.54545 7.2822e-05ZM2.54545 1.45462H9.76146C10.8381 2.35091 11.6322 3.95036 12.5228 4.92051C12.9603 5.38215 13.4589 5.81967 14.1819 5.81826C19.1594 5.81826 26.7005 5.82962 30.5456 5.82962V23.6365C30.5456 24.253 30.0711 24.7274 29.4547 24.7274H2.54556C1.92909 24.7274 1.45465 24.253 1.45465 23.6365V2.54562C1.44045 1.88369 2.02982 1.46884 2.54545 1.45462ZM11.9813 1.92051H28.3865C29.459 1.92051 29.8027 3.50716 29.7956 4.37506C25.7971 4.37363 18.932 4.36369 14.1818 4.36369C14.1776 4.36369 13.9091 4.26852 13.5796 3.92049C13.2798 3.58384 12.2015 2.22735 11.9813 1.92051Z" fill="currentColor"/>
</svg>
