    <svg
        width="16"
        height="13"
        viewBox="0 0 16 13"
        fill="none"
        xmlns="http://www.w3.org/2000/svg">
        <path
            d="M14.3189 2.51187H8.37125C8.10668 2.51187 7.86525 2.36996 7.74685 2.14516L7.2177 1.14045C7.00671 0.747982 6.5814 0.501192 6.11707 0.502446H1.55572C0.988866 0.502446 0.529175 0.938861 0.529175 1.47702V11.5844C0.529175 11.8432 0.63765 12.0906 0.830121 12.2733C1.0226 12.456 1.28321 12.559 1.55572 12.559H14.3188C14.5913 12.559 14.8519 12.456 15.0444 12.2733C15.2369 12.0906 15.3454 11.8432 15.3454 11.5844V3.48645C15.3454 3.22773 15.2369 2.98033 15.0444 2.79758C14.8519 2.61485 14.5913 2.51187 14.3188 2.51187H14.3189Z"
            fill="currentColor"
        />
    </svg>
