<svg width="13" height="16" viewBox="0 0 13 16" fill="none" xmlns="http://www.w3.org/2000/svg">
<path fill-rule="evenodd" clip-rule="evenodd" d="M6.90962 0.485865C6.80113 0.197556 6.52739 0.00490125 6.21938 9.205e-05C5.91137 -0.00471721 5.63175 0.179297 5.51431 0.464079L1.72154 9.66155L1.72119 9.66239L0.583606 12.4116C0.42523 12.7943 0.607114 13.233 0.989854 13.3913C1.37259 13.5497 1.81126 13.3678 1.96963 12.9851L2.91588 10.6983H9.17546L10.1655 12.9952C10.3295 13.3756 10.7707 13.551 11.1511 13.3871C11.5315 13.2231 11.7069 12.7818 11.543 12.4015L10.3646 9.66767L6.90962 0.485865ZM8.58533 9.19831H3.5351L6.17574 2.79474L8.58533 9.19831ZM0.914798 15.302H11.5476H11.9431C12.2296 15.302 12.4624 15.4588 12.4624 15.6517C12.4624 15.8446 12.2296 16.0014 11.9431 16.0014H11.5476H0.914797H0.519281C0.23281 16.0014 0 15.8446 0 15.6517C0 15.4588 0.23281 15.302 0.519281 15.302H0.914798Z" fill="#003462"/>
</svg>
