<svg width="30" height="32" viewBox="0 0 30 32" fill="none" xmlns="http://www.w3.org/2000/svg">
<path id="gift" d="M3.81356 32H26.1135C28.2163 32 29.9275 30.2889 29.9275 28.186L29.9289 11.7541C29.9289 9.65131 28.2178 7.94007 26.1149 7.94007L21.8482 7.93868C22.9246 7.13453 23.6232 5.85536 23.6232 4.40815C23.6232 1.97343 21.6496 0 19.2151 0C17.1804 0 15.4722 1.38054 14.9637 3.25413C14.4554 1.38054 12.7471 0 10.7124 0C8.27767 0 6.30282 1.9736 6.30282 4.40957C6.30282 5.85539 7.00283 7.13595 8.07781 7.94011L3.81402 7.93872C1.71124 7.93872 8.44113e-07 9.64982 8.44113e-07 11.7527V28.1846C-0.00138795 30.2888 1.7111 31.9997 3.81402 31.9997L3.81356 32ZM1.75942 28.186V20.8499H14.0829V30.2386H3.81345C2.68012 30.2386 1.75931 29.3178 1.75931 28.1858L1.75942 28.186ZM28.1674 28.186C28.1674 29.3179 27.2452 30.2401 26.1133 30.2401H15.8438V20.85H28.1673L28.1674 28.186ZM26.1133 9.70006C27.2452 9.70006 28.1674 10.6223 28.1674 11.7542V19.0903L15.8439 19.0889V9.7002L26.1133 9.70006ZM16.566 4.40979C16.566 2.95006 17.7549 1.7612 19.2146 1.7612C20.6742 1.7612 21.8631 2.9501 21.8631 4.40979C21.8631 5.86951 20.6742 7.05837 19.2146 7.05837H16.566V4.40979ZM8.06327 4.40979C8.06327 2.95006 9.25217 1.7612 10.7119 1.7612C12.1715 1.7612 13.3604 2.9501 13.3604 4.40979V7.05837H10.7119C9.25213 7.05837 8.06327 5.86947 8.06327 4.40979ZM1.75931 11.7541C1.75931 10.6222 2.68154 9.69996 3.81345 9.69996H14.0829V19.0887H1.75942L1.75931 11.7541Z" fill="#003462"/>
</svg>
