<svg width="32" height="32" viewBox="0 0 32 32" fill="none" xmlns="http://www.w3.org/2000/svg">
<path id="giving" fill-rule="evenodd" clip-rule="evenodd" d="M17.389 3.21611C17.3472 3.17436 17.311 3.12834 17.2808 3.07924C16.5821 2.00306 15.565 1.50353 14.7275 1.50002C13.9348 1.49669 13.2362 1.92536 12.9788 2.93467C12.7065 4.00263 13.3681 5.16557 14.4122 6.26551L17.9193 9.96041L21.4265 6.26551C22.4706 5.16557 23.1322 4.00263 22.8599 2.93467C22.6025 1.92536 21.9039 1.49669 21.1111 1.50002C20.2737 1.50353 19.2566 2.00306 18.5579 3.07923C18.5277 3.12834 18.4915 3.17435 18.4497 3.21611C18.3858 3.28005 18.3121 3.3307 18.2325 3.36717C18.1321 3.41346 18.0252 3.43576 17.9193 3.43566C17.7239 3.43548 17.5316 3.35895 17.389 3.21611ZM17.9193 1.4744C17.0197 0.525563 15.8591 0.00475347 14.7338 3.19648e-05C13.2746 -0.00609068 11.958 0.867418 11.5253 2.56405C11.0402 4.46655 12.2578 6.1747 13.3242 7.29817L17.3713 11.5618C17.3771 11.568 17.383 11.5741 17.389 11.5802C17.5349 11.7262 17.7269 11.7998 17.9193 11.7998C18.0294 11.7998 18.1397 11.7758 18.2414 11.7274C18.3172 11.6913 18.3882 11.6419 18.4506 11.5792C18.4563 11.5735 18.4618 11.5678 18.4673 11.562L22.5145 7.29817C23.5808 6.1747 24.7985 4.46655 24.3134 2.56405C23.8807 0.867418 22.5641 -0.00609068 21.1048 3.19648e-05C19.9796 0.00475347 18.8189 0.525563 17.9193 1.4744ZM28.4376 13.8168L25.1632 17.395C25.1586 17.843 25.0491 18.3025 24.8214 18.7313C23.8858 20.4941 21.2403 21.6105 16.5286 20.9561C16.1183 20.8991 15.8319 20.5203 15.8889 20.11C15.9459 19.6998 16.3247 19.4134 16.7349 19.4703C21.2931 20.1034 23.0297 18.9076 23.4965 18.0281C23.9925 17.0937 23.382 16.314 22.738 16.306C20.3507 16.2765 18.4454 16.1851 16.8974 16.1108L16.8974 16.1108C16.4528 16.0895 16.0377 16.0696 15.6492 16.0529C13.8847 15.9774 12.7166 15.9737 11.7541 16.1724C9.96316 16.542 8.77056 17.6272 5.83707 21.0816L9.98358 25.2282C10.421 24.8093 10.9978 24.5494 11.4874 24.393C12.1503 24.1812 12.8779 24.0882 13.3949 24.1336C13.4336 24.1327 13.4728 24.1347 13.5123 24.14C17.3653 24.6537 20.0267 24.8053 21.9042 24.6068C23.7609 24.4106 24.7527 23.8832 25.3891 23.1168C25.4039 23.0991 25.4194 23.082 25.4357 23.0657L25.4358 23.0656L25.436 23.0654L25.4378 23.0637L25.4459 23.0555L25.4801 23.0208C25.5105 22.9897 25.5561 22.943 25.6147 22.8819C25.7321 22.7597 25.9018 22.5802 26.1083 22.354C26.5219 21.901 27.0807 21.2634 27.6621 20.5249C28.8491 19.0171 30.0398 17.1996 30.3853 15.7025C30.7288 14.2137 30.2533 13.6802 29.9329 13.5133C29.5244 13.3007 28.8819 13.3841 28.4376 13.8168ZM13.4155 25.6403C17.2351 26.1461 20.0145 26.3149 22.0618 26.0985C24.1324 25.8797 25.5489 25.2561 26.5212 24.1013L26.5509 24.0712C26.5849 24.0365 26.6342 23.9859 26.6967 23.9208C26.8218 23.7905 27.0001 23.6019 27.216 23.3654C27.6474 22.893 28.2312 22.227 28.8407 21.4528C30.0355 19.9351 31.4199 17.8901 31.8468 16.0398C32.2758 14.1812 31.7857 12.7868 30.6255 12.1828C29.5568 11.6265 28.2112 11.9261 27.3684 12.7645C27.3601 12.7727 27.352 12.7812 27.344 12.7899L24.6399 15.745C24.2244 15.1899 23.5775 14.8163 22.7565 14.8061C20.3989 14.777 18.5281 14.6873 16.9823 14.6131L16.9822 14.6131L16.9821 14.6131L16.982 14.6131C16.533 14.5916 16.1114 14.5713 15.7133 14.5543C13.9674 14.4796 12.6209 14.4619 11.451 14.7033C9.09813 15.1889 7.58988 16.7008 4.75399 20.0396C3.67718 19.2371 2.14648 19.3248 1.16879 20.3025L0.805458 20.6658C-0.282838 21.7541 -0.266148 23.5236 0.842485 24.5912L6.72367 30.2546C7.76281 31.2552 9.39856 31.2828 10.4708 30.3178L10.7387 30.0767C11.8384 29.087 11.9476 27.4213 11.0343 26.2994C11.2186 26.1282 11.5232 25.9562 11.9438 25.8219C12.5185 25.6383 13.0763 25.5997 13.3074 25.6327C13.3437 25.6379 13.3799 25.6404 13.4155 25.6403ZM2.22945 21.3631C2.71761 20.875 3.50906 20.875 3.99722 21.3631L9.78288 27.1488C10.2893 27.6552 10.2675 28.4827 9.73521 28.9618L9.46739 29.2028C8.97999 29.6415 8.23647 29.6289 7.76413 29.1741L1.88295 23.5107C1.37902 23.0255 1.37144 22.2211 1.86612 21.7264L2.22945 21.3631Z" fill="#003462"/>
</svg>
