<svg
    width="24"
    height="18"
    viewBox="0 0 24 18"
    fill="none"
    xmlns="http://www.w3.org/2000/svg">
    <path
        d="M0.99348 9.9348C0.44581 9.9348 0 9.49023 0 8.94132C0 8.39241 0.44581 7.94784 0.99348 7.94784H23.0039C23.5516 7.94784 23.9974 8.39241 23.9974 8.94132C23.9974 9.49023 23.5516 9.9348 23.0039 9.9348H0.99348ZM1.07048 17.8826C0.521566 17.8826 0.0769953 17.4381 0.0769953 16.8892C0.0769953 16.3403 0.521566 15.8957 1.07048 15.8957H23.0065C23.5554 15.8957 24 16.3403 24 16.8892C24 17.4381 23.5554 17.8826 23.0065 17.8826H1.07048ZM1.07048 1.98696C0.521566 1.98696 0.0769953 1.54239 0.0769953 0.99348C0.0769953 0.44457 0.521566 0 1.07048 0H23.0065C23.5554 0 24 0.44457 24 0.99348C24 1.54239 23.5554 1.98696 23.0065 1.98696H1.07048Z"
        fill="currentColor"
    />
</svg>
