<svg width="29" height="30" viewBox="0 0 29 30" fill="none" xmlns="http://www.w3.org/2000/svg">
<path id="history" fill-rule="evenodd" clip-rule="evenodd" d="M5.51935 6.29928L4.11878 6.71952C5.59059 4.84535 7.56878 3.4171 9.83214 2.61309C12.5358 1.65267 15.4856 1.64006 18.1974 2.57732C20.9092 3.51458 23.2217 5.34602 24.7552 7.77094C26.2888 10.1959 26.9523 13.0702 26.6368 15.9219C26.3213 18.7737 25.0455 21.4334 23.019 23.4645C20.9924 25.4955 18.3355 26.7772 15.4845 27.099C12.6334 27.4209 9.75766 26.7637 7.32934 25.2356C5.16751 23.8751 3.47468 21.8962 2.4636 19.5664C2.25655 19.0893 1.72298 18.8279 1.23179 18.9989C0.740601 19.1699 0.478176 19.7082 0.680611 20.1872C1.8353 22.92 3.80261 25.2415 6.32617 26.8296C9.11611 28.5854 12.4201 29.3404 15.6957 28.9706C18.9714 28.6008 22.0239 27.1283 24.3523 24.7948C26.6806 22.4613 28.1463 19.4055 28.5088 16.129C28.8713 12.8526 28.109 9.55027 26.3471 6.76423C24.5851 3.9782 21.9282 1.87403 18.8127 0.79719C15.6971 -0.279647 12.3079 -0.265157 9.20167 0.838284C6.50155 1.79745 4.15466 3.52987 2.44555 5.8062L1.93026 4.50249C1.72725 3.98887 1.14631 3.73707 0.632687 3.94008C0.119067 4.14309 -0.132734 4.72403 0.0702755 5.23765L1.42331 8.66088C1.61424 9.14393 2.1432 9.40039 2.6407 9.25112L6.09414 8.2149C6.62313 8.05618 6.92328 7.49868 6.76456 6.9697C6.60584 6.44071 6.04834 6.14056 5.51935 6.29928ZM14.0676 7.52231C13.5236 7.52231 13.057 7.98899 13.057 8.533L13.057 8.53172V16.6147C13.057 16.8481 13.2117 17.0814 13.3677 17.3147L16.7092 20.6562C17.0972 21.0442 17.7198 21.0442 18.1079 20.6562C18.4959 20.2682 18.4959 19.6455 18.1079 19.2575L14.9997 16.1493V8.533C14.9997 7.98895 14.6117 7.52231 14.0676 7.52231Z" fill="#003462"/>
</svg>
