    <svg
        width="32"
        height="31"
        viewBox="0 0 32 31"
        fill="currentColor"
        xmlns="http://www.w3.org/2000/svg">
        <path
            d="M28.6111 0.777771H3.39113C1.51936 0.779838 0.00218573 2.21267 0 3.97844V27.7973C0.00218909 29.565 1.5193 30.9979 3.39113 31H28.6111C30.4806 30.9979 31.9978 29.5651 32 27.7973V3.97844C31.9978 2.21272 30.4807 0.779835 28.6111 0.777771ZM30.6011 27.8095H30.5989C30.5967 28.8453 29.7079 29.6848 28.6111 29.6869H3.39112C2.29215 29.6848 1.40329 28.8454 1.4011 27.8095V3.99067C1.40329 2.95275 2.2921 2.11327 3.39112 2.1112H28.6111C29.7078 2.11327 30.5967 2.95269 30.5989 3.99067L30.6011 27.8095Z"
            fill="currentColor"
        />
        <path
            d="M20.7911 17.0106C20.6751 16.8514 20.4912 16.7501 20.2876 16.7294C20.0818 16.7087 19.876 16.7728 19.7272 16.9114L16.8461 19.4938L12.726 14.3868L12.7282 14.3848C12.5881 14.2111 12.3692 14.1139 12.1393 14.1263C11.9094 14.1366 11.7014 14.2504 11.5788 14.4323L4.00164 25.8246C3.86372 26.0272 3.85496 26.2857 3.97975 26.4986C4.10235 26.7095 4.33878 26.8418 4.59495 26.8398H26.6495C26.9144 26.8398 27.1574 26.6992 27.2756 26.4738C27.3938 26.2505 27.3676 25.9817 27.2099 25.7811L20.7911 17.0106ZM5.86261 25.5123L12.2287 15.9414L16.2131 20.8788V20.8809C16.3335 21.0298 16.513 21.1228 16.7122 21.1393C16.918 21.1621 17.1238 21.0959 17.2727 20.9595L20.1252 18.3977L25.3312 25.5121L5.86261 25.5123Z"
            fill="currentColor"
        />
        <path
            d="M7.5048 11.4321C8.84022 11.4321 10.0465 10.6713 10.5588 9.50514C11.071 8.33696 10.7886 6.99299 9.84291 6.10185C8.89717 5.20864 7.47415 4.93986 6.23943 5.4237C5.00254 5.90752 4.1969 7.04677 4.1969 8.31007C4.1969 10.0344 5.6768 11.4321 7.5048 11.4321ZM7.5048 6.51535C8.27541 6.51535 8.96941 6.95368 9.26493 7.62567C9.55829 8.29763 9.39628 9.07301 8.85116 9.58782C8.30604 10.1006 7.48727 10.2556 6.77579 9.97652C6.06212 9.69946 5.59796 9.04198 5.59796 8.31418C5.59796 7.83657 5.79718 7.37757 6.15403 7.03844C6.51306 6.69936 6.99688 6.50914 7.50481 6.50914L7.5048 6.51535Z"
            fill="currentColor"
        />
    </svg>
