    <svg
        width="12"
        height="12"
        viewBox="0 0 12 12"
        fill="none"
        xmlns="http://www.w3.org/2000/svg">
        <circle cx="6" cy="6" r="5.5" fill="#E3F2FA" stroke="#003462" />
        <path
            d="M6.05946 3.29978L6.00457 3.29872C5.9575 3.2933 5.91261 3.27135 5.87686 3.23337L5.87691 3.23333L5.87158 3.22785C5.7762 3.12957 5.77621 2.97051 5.87157 2.87226L5.87164 2.87233L5.8784 2.86508C5.91883 2.82174 5.9753 2.79831 6.03419 2.80015L6.04683 2.80055L6.05947 2.8003C6.11989 2.79914 6.17877 2.82261 6.22311 2.86729L6.22298 2.86742L6.23266 2.87666C6.27673 2.91877 6.30115 2.97744 6.30001 3.03808L6.29986 3.04591L6.29996 3.05374C6.30079 3.1206 6.27477 3.17938 6.23267 3.2196L6.2262 3.22578L6.21995 3.23218C6.17585 3.27744 6.11656 3.30087 6.05946 3.29978Z"
            fill="#2D3E4C"
            stroke="#003462"
        />
        <path
            d="M6.19328 8.48066L6.19328 8.74058H6.00682V8.48066V5.42692V5.16699H6.19325L6.19328 8.48066Z"
            fill="#2D3E4C"
            stroke="#003462"
        />
    </svg>
