<svg width="31" height="31" viewBox="0 0 31 31" fill="none" xmlns="http://www.w3.org/2000/svg">
<path id="install" fill-rule="evenodd" clip-rule="evenodd" d="M5 0C4.44772 0 4 0.447715 4 1C4 1.55228 4.44772 2 5 2H28C28.5523 2 29 2.44772 29 3V26C29 26.5523 29.4477 27 30 27C30.5523 27 31 26.5523 31 26V3C31 1.34315 29.6569 0 28 0H5ZM3 7H23C23.5523 7 24 7.44772 24 8V28C24 28.5523 23.5523 29 23 29H3C2.44772 29 2 28.5523 2 28V8C2 7.44772 2.44772 7 3 7ZM0 8C0 6.34315 1.34315 5 3 5H23C24.6569 5 26 6.34315 26 8V28C26 29.6569 24.6569 31 23 31H3C1.34315 31 0 29.6569 0 28V8ZM13 9.5C13.5523 9.5 14 9.94771 14 10.5V17H20.5C21.0523 17 21.5 17.4477 21.5 18C21.5 18.5523 21.0523 19 20.5 19H14V25.5C14 26.0523 13.5523 26.5 13 26.5C12.4477 26.5 12 26.0523 12 25.5V19H5.5C4.94772 19 4.5 18.5523 4.5 18C4.5 17.4477 4.94772 17 5.5 17H12V10.5C12 9.94771 12.4477 9.5 13 9.5Z" fill="#003462"/>
</svg>
