<svg width="16" height="16" viewBox="0 0 16 16" fill="none" xmlns="http://www.w3.org/2000/svg">
<path d="M12.7785 0H6.1627C5.85478 0 5.60454 0.250238 5.60454 0.558154C5.60454 0.86607 5.85478 1.11631 6.1627 1.11631H8.80463L6.39727 14.8837H3.55815C3.25024 14.8837 3 15.1339 3 15.4418C3 15.7498 3.25024 16 3.55815 16H10.1739C10.4819 16 10.7321 15.7498 10.7321 15.4418C10.7321 15.1339 10.4819 14.8837 10.1739 14.8837H7.53201L9.93937 1.11631H12.7785C13.0864 1.11631 13.3366 0.86607 13.3366 0.558154C13.3366 0.250238 13.0864 0 12.7785 0Z" fill="#003462"/>
</svg>
