<svg width="26" height="20" viewBox="0 0 26 20" fill="none" xmlns="http://www.w3.org/2000/svg">
<mask id="path-1-outside-1" maskUnits="userSpaceOnUse" x="0" y="0" width="26" height="20" fill="black">
<rect fill="white" width="26" height="20"/>
<path fill-rule="evenodd" clip-rule="evenodd" d="M11.2884 12.5889C11.8304 12.8636 12.4298 13.0052 13.0365 13.004L13.0362 13.0038C13.6197 13.005 14.1959 12.8732 14.7208 12.6181L20.5222 9.81751V14.7714C20.5222 14.9118 20.4404 15.04 20.3122 15.0986L14.5258 17.6523C13.2186 18.2236 11.7207 18.1589 10.4683 17.4765L6.30318 15.1962C6.18843 15.1315 6.11763 15.0107 6.11763 14.8788V9.96951L11.2884 12.5889ZM5.14105 9.4748L3.06903 8.42515L3.1878 13.4091C3.2536 13.4274 3.31877 13.4499 3.38295 13.4764C4.02749 13.7438 4.4474 14.3724 4.4474 15.0695C4.4474 15.526 4.26551 15.9655 3.94202 16.2878C3.61976 16.6113 3.18029 16.7931 2.72375 16.7931L2.72378 16.7931C2.02673 16.7931 1.39807 16.3732 1.13072 15.7287C0.8646 15.0853 1.01231 14.3431 1.50547 13.8512C1.70674 13.6494 1.94989 13.5055 2.21103 13.424L2.07808 7.92315L1.64945 7.70602C1.35404 7.54244 1.17216 7.22994 1.17704 6.89178C1.1807 6.55487 1.36991 6.24602 1.66898 6.08977L11.6251 1.37781C12.6969 0.863891 13.9457 0.87486 15.0089 1.4071L24.6332 6.19719C24.9432 6.351 25.1398 6.66839 25.1398 7.01508C25.1398 7.36177 24.9432 7.67916 24.6332 7.83297L21.4987 9.34608V14.7567C21.4975 15.2853 21.1862 15.7638 20.7028 15.9774L14.9165 18.5312C14.2036 18.8437 13.4333 19.0036 12.6557 18.9999L12.6558 19C11.7256 18.9915 10.8126 18.7498 9.99955 18.2969L5.81978 16.0361C5.40231 15.8005 5.14227 15.3586 5.14105 14.8788V9.4748ZM11.7277 11.7199L4.3967 8.00731L13.1733 7.48604C13.3027 7.47871 13.4236 7.42012 13.5102 7.32246C13.5969 7.22603 13.6409 7.09785 13.6323 6.96845C13.625 6.83906 13.5664 6.71821 13.4687 6.63154C13.3723 6.54487 13.2441 6.50093 13.1147 6.50947L2.66896 7.13235L2.21096 6.90041L12.0452 2.24216C12.8472 1.86128 13.7799 1.86985 14.5746 2.26657L24.0619 6.97853L14.2961 11.7199C13.4855 12.1154 12.5383 12.1154 11.7277 11.7199ZM2.03408 14.7838C2.14883 14.5043 2.42104 14.3224 2.72378 14.3224L2.72382 14.3224C3.1352 14.3249 3.46845 14.6581 3.47089 15.0695C3.47089 15.3722 3.28899 15.6444 3.00944 15.7592C2.7311 15.8752 2.40884 15.8117 2.19521 15.5981C1.98159 15.3844 1.91811 15.0622 2.03408 14.7838Z"/>
</mask>
<path fill-rule="evenodd" clip-rule="evenodd" d="M11.2884 12.5889C11.8304 12.8636 12.4298 13.0052 13.0365 13.004L13.0362 13.0038C13.6197 13.005 14.1959 12.8732 14.7208 12.6181L20.5222 9.81751V14.7714C20.5222 14.9118 20.4404 15.04 20.3122 15.0986L14.5258 17.6523C13.2186 18.2236 11.7207 18.1589 10.4683 17.4765L6.30318 15.1962C6.18843 15.1315 6.11763 15.0107 6.11763 14.8788V9.96951L11.2884 12.5889ZM5.14105 9.4748L3.06903 8.42515L3.1878 13.4091C3.2536 13.4274 3.31877 13.4499 3.38295 13.4764C4.02749 13.7438 4.4474 14.3724 4.4474 15.0695C4.4474 15.526 4.26551 15.9655 3.94202 16.2878C3.61976 16.6113 3.18029 16.7931 2.72375 16.7931L2.72378 16.7931C2.02673 16.7931 1.39807 16.3732 1.13072 15.7287C0.8646 15.0853 1.01231 14.3431 1.50547 13.8512C1.70674 13.6494 1.94989 13.5055 2.21103 13.424L2.07808 7.92315L1.64945 7.70602C1.35404 7.54244 1.17216 7.22994 1.17704 6.89178C1.1807 6.55487 1.36991 6.24602 1.66898 6.08977L11.6251 1.37781C12.6969 0.863891 13.9457 0.87486 15.0089 1.4071L24.6332 6.19719C24.9432 6.351 25.1398 6.66839 25.1398 7.01508C25.1398 7.36177 24.9432 7.67916 24.6332 7.83297L21.4987 9.34608V14.7567C21.4975 15.2853 21.1862 15.7638 20.7028 15.9774L14.9165 18.5312C14.2036 18.8437 13.4333 19.0036 12.6557 18.9999L12.6558 19C11.7256 18.9915 10.8126 18.7498 9.99955 18.2969L5.81978 16.0361C5.40231 15.8005 5.14227 15.3586 5.14105 14.8788V9.4748ZM11.7277 11.7199L4.3967 8.00731L13.1733 7.48604C13.3027 7.47871 13.4236 7.42012 13.5102 7.32246C13.5969 7.22603 13.6409 7.09785 13.6323 6.96845C13.625 6.83906 13.5664 6.71821 13.4687 6.63154C13.3723 6.54487 13.2441 6.50093 13.1147 6.50947L2.66896 7.13235L2.21096 6.90041L12.0452 2.24216C12.8472 1.86128 13.7799 1.86985 14.5746 2.26657L24.0619 6.97853L14.2961 11.7199C13.4855 12.1154 12.5383 12.1154 11.7277 11.7199ZM2.03408 14.7838C2.14883 14.5043 2.42104 14.3224 2.72378 14.3224L2.72382 14.3224C3.1352 14.3249 3.46845 14.6581 3.47089 15.0695C3.47089 15.3722 3.28899 15.6444 3.00944 15.7592C2.7311 15.8752 2.40884 15.8117 2.19521 15.5981C1.98159 15.3844 1.91811 15.0622 2.03408 14.7838Z" fill="#003462"/>
<path d="M13.0365 13.004L13.0367 13.104L13.0812 12.9145L13.0365 13.004ZM11.2884 12.5889L11.3336 12.4997L11.3336 12.4997L11.2884 12.5889ZM13.0362 13.0038L13.0364 12.9038L12.9915 13.0933L13.0362 13.0038ZM14.7208 12.6181L14.6773 12.528L14.6771 12.5281L14.7208 12.6181ZM20.5222 9.81751H20.6222V9.65819L20.4787 9.72745L20.5222 9.81751ZM20.3122 15.0986L20.3526 15.1901L20.3538 15.1895L20.3122 15.0986ZM14.5258 17.6523L14.5659 17.744L14.5662 17.7438L14.5258 17.6523ZM10.4683 17.4765L10.4202 17.5643L10.4204 17.5644L10.4683 17.4765ZM6.30318 15.1962L6.25407 15.2833L6.25516 15.2839L6.30318 15.1962ZM6.11763 9.96951L6.16282 9.88031L6.01763 9.80676V9.96951H6.11763ZM3.06903 8.42515L3.11422 8.33594L2.96508 8.26039L2.96906 8.42753L3.06903 8.42515ZM5.14105 9.4748H5.24105V9.41335L5.18624 9.38559L5.14105 9.4748ZM3.1878 13.4091L3.08783 13.4114L3.08959 13.4855L3.1609 13.5054L3.1878 13.4091ZM3.38295 13.4764L3.42126 13.3841L3.42117 13.384L3.38295 13.4764ZM3.94202 16.2878L3.87144 16.2169L3.87117 16.2172L3.94202 16.2878ZM2.72375 16.7931L2.65317 16.7223L2.48168 16.8931H2.72375V16.7931ZM2.72378 16.7931L2.79435 16.864L2.96585 16.6931H2.72378V16.7931ZM1.13072 15.7287L1.03831 15.7669L1.03835 15.767L1.13072 15.7287ZM1.50547 13.8512L1.5761 13.922L1.57627 13.9218L1.50547 13.8512ZM2.21103 13.424L2.2408 13.5195L2.31282 13.497L2.311 13.4216L2.21103 13.424ZM2.07808 7.92315L2.17805 7.92073L2.17661 7.86096L2.12327 7.83394L2.07808 7.92315ZM1.64945 7.70602L1.60098 7.79356L1.60426 7.79522L1.64945 7.70602ZM1.17704 6.89178L1.27703 6.89322L1.27703 6.89287L1.17704 6.89178ZM1.66898 6.08977L1.62617 5.99931L1.62268 6.00113L1.66898 6.08977ZM11.6251 1.37781L11.6679 1.4682L11.6683 1.46798L11.6251 1.37781ZM15.0089 1.4071L14.9641 1.49653L14.9644 1.49663L15.0089 1.4071ZM24.6332 6.19719L24.5886 6.28672L24.5887 6.28677L24.6332 6.19719ZM24.6332 7.83297L24.6766 7.92303L24.6776 7.92255L24.6332 7.83297ZM21.4987 9.34608L21.4553 9.25602L21.3987 9.28331V9.34608H21.4987ZM21.4987 14.7567L21.5987 14.7569V14.7567H21.4987ZM20.7028 15.9774L20.7432 16.0689L20.7432 16.0689L20.7028 15.9774ZM14.9165 18.5312L14.9566 18.6228L14.9568 18.6227L14.9165 18.5312ZM12.6557 18.9999L12.6561 18.8999L12.6231 19.0945L12.6557 18.9999ZM12.6558 19L12.6549 19.1L12.6884 18.9054L12.6558 19ZM9.99955 18.2969L10.0482 18.2095L10.0471 18.2089L9.99955 18.2969ZM5.81978 16.0361L5.77063 16.1232L5.77221 16.124L5.81978 16.0361ZM5.14105 14.8788H5.04105L5.04105 14.8791L5.14105 14.8788ZM4.3967 8.00731L4.39077 7.90749L4.02155 7.92942L4.35152 8.09652L4.3967 8.00731ZM11.7277 11.7199L11.6825 11.8091L11.6838 11.8097L11.7277 11.7199ZM13.1733 7.48604L13.1677 7.3862L13.1674 7.38621L13.1733 7.48604ZM13.5102 7.32246L13.4359 7.25561L13.4355 7.25608L13.5102 7.32246ZM13.6323 6.96845L13.5325 6.97411L13.5325 6.97504L13.6323 6.96845ZM13.4687 6.63154L13.4019 6.70592L13.4024 6.70633L13.4687 6.63154ZM13.1147 6.50947L13.1207 6.6093L13.1213 6.60925L13.1147 6.50947ZM2.66896 7.13235L2.62379 7.22156L2.64792 7.23378L2.67492 7.23217L2.66896 7.13235ZM2.21096 6.90041L2.16815 6.81003L1.98369 6.89741L2.16578 6.98962L2.21096 6.90041ZM12.0452 2.24216L12.088 2.33253L12.0881 2.33249L12.0452 2.24216ZM14.5746 2.26657L14.5299 2.35604L14.5301 2.35613L14.5746 2.26657ZM24.0619 6.97853L24.1056 7.06849L24.2888 6.97955L24.1064 6.88897L24.0619 6.97853ZM14.2961 11.7199L14.2524 11.6299L14.2523 11.63L14.2961 11.7199ZM2.72378 14.3224L2.79504 14.2522L2.76566 14.2224H2.72378V14.3224ZM2.03408 14.7838L2.12639 14.8223L2.12659 14.8218L2.03408 14.7838ZM2.72382 14.3224L2.65255 14.3926L2.68169 14.4222L2.72322 14.4224L2.72382 14.3224ZM3.47089 15.0695H3.57089L3.57089 15.0689L3.47089 15.0695ZM3.00944 15.7592L2.97147 15.6667L2.97099 15.6669L3.00944 15.7592ZM2.19521 15.5981L2.1245 15.6688H2.1245L2.19521 15.5981ZM13.0363 12.904C12.4453 12.9051 11.8614 12.7672 11.3336 12.4997L11.2432 12.6781C11.7993 12.9599 12.4143 13.1052 13.0367 13.104L13.0363 12.904ZM12.9915 13.0933L12.9917 13.0934L13.0812 12.9145L13.0809 12.9144L12.9915 13.0933ZM14.6771 12.5281C14.1658 12.7766 13.6047 12.905 13.0364 12.9038L13.036 13.1038C13.6347 13.1051 14.2259 12.9698 14.7645 12.708L14.6771 12.5281ZM20.4787 9.72745L14.6773 12.528L14.7643 12.7081L20.5656 9.90756L20.4787 9.72745ZM20.6222 14.7714V9.81751H20.4222V14.7714H20.6222ZM20.3538 15.1895C20.5177 15.1146 20.6222 14.9507 20.6222 14.7714H20.4222C20.4222 14.8728 20.363 14.9654 20.2706 15.0076L20.3538 15.1895ZM14.5662 17.7438L20.3526 15.19L20.2718 15.0071L14.4855 17.5608L14.5662 17.7438ZM10.4204 17.5644C11.7 18.2615 13.2303 18.3276 14.5659 17.744L14.4858 17.5607C13.2068 18.1196 11.7414 18.0563 10.5161 17.3887L10.4204 17.5644ZM6.25516 15.2839L10.4202 17.5643L10.5163 17.3888L6.35121 15.1085L6.25516 15.2839ZM6.01763 14.8788C6.01763 15.0469 6.10796 15.201 6.25407 15.2833L6.35229 15.1091C6.26891 15.0621 6.21763 14.9745 6.21763 14.8788H6.01763ZM6.01763 9.96951V14.8788H6.21763V9.96951H6.01763ZM11.3336 12.4997L6.16282 9.88031L6.07244 10.0587L11.2432 12.6781L11.3336 12.4997ZM3.02384 8.51435L5.09586 9.564L5.18624 9.38559L3.11422 8.33594L3.02384 8.51435ZM3.28777 13.4067L3.169 8.42276L2.96906 8.42753L3.08783 13.4114L3.28777 13.4067ZM3.1609 13.5054C3.22287 13.5227 3.28425 13.5438 3.34472 13.5688L3.42117 13.384C3.35328 13.3559 3.28434 13.3322 3.2147 13.3128L3.1609 13.5054ZM3.34463 13.5688C3.95186 13.8207 4.3474 14.4129 4.3474 15.0695H4.5474C4.5474 14.332 4.10312 13.6669 3.42126 13.3841L3.34463 13.5688ZM4.3474 15.0695C4.3474 15.4995 4.17604 15.9135 3.87144 16.2169L4.01259 16.3586C4.35499 16.0175 4.5474 15.5525 4.5474 15.0695H4.3474ZM3.87117 16.2172C3.56775 16.5218 3.15379 16.6931 2.72375 16.6931V16.8931C3.20678 16.8931 3.67178 16.7007 4.01287 16.3583L3.87117 16.2172ZM2.79432 16.864L2.79435 16.864L2.6532 16.7223L2.65317 16.7223L2.79432 16.864ZM2.72378 16.6931C2.0672 16.6931 1.47496 16.2975 1.22309 15.6903L1.03835 15.767C1.32117 16.4488 1.98627 16.8931 2.72378 16.8931V16.6931ZM1.22312 15.6904C0.972455 15.0845 1.11162 14.3853 1.5761 13.922L1.43485 13.7804C0.912988 14.301 0.756744 15.0862 1.03831 15.7669L1.22312 15.6904ZM1.57627 13.9218C1.76583 13.7318 1.99481 13.5962 2.2408 13.5195L2.18126 13.3286C1.90498 13.4147 1.64765 13.5671 1.43468 13.7806L1.57627 13.9218ZM1.97811 7.92557L2.11106 13.4264L2.311 13.4216L2.17805 7.92073L1.97811 7.92557ZM1.60426 7.79522L2.03289 8.01236L2.12327 7.83394L1.69464 7.61681L1.60426 7.79522ZM1.07705 6.89034C1.07164 7.2655 1.27343 7.61211 1.60101 7.7935L1.69789 7.61853C1.43464 7.47276 1.27268 7.19439 1.27703 6.89322L1.07705 6.89034ZM1.62268 6.00113C1.29094 6.17445 1.08111 6.51695 1.07704 6.89069L1.27703 6.89287C1.28029 6.59279 1.44888 6.31759 1.71529 6.1784L1.62268 6.00113ZM11.5823 1.28742L1.6262 5.99938L1.71176 6.18015L11.6679 1.46819L11.5823 1.28742ZM15.0537 1.31768C13.9629 0.771613 12.6816 0.760345 11.5819 1.28764L11.6683 1.46798C12.7122 0.967437 13.9286 0.978106 14.9641 1.49653L15.0537 1.31768ZM24.6777 6.10767L15.0535 1.31758L14.9644 1.49663L24.5886 6.28672L24.6777 6.10767ZM25.2398 7.01508C25.2398 6.63049 25.0218 6.27835 24.6776 6.10761L24.5887 6.28677C24.8647 6.42366 25.0398 6.70628 25.0398 7.01508H25.2398ZM24.6776 7.92255C25.0218 7.75181 25.2398 7.39967 25.2398 7.01508H25.0398C25.0398 7.32388 24.8647 7.6065 24.5887 7.74339L24.6776 7.92255ZM21.5422 9.43613L24.6766 7.92303L24.5897 7.74292L21.4553 9.25602L21.5422 9.43613ZM21.5987 14.7567V9.34608H21.3987V14.7567H21.5987ZM20.7432 16.0689C21.2629 15.8393 21.5974 15.3249 21.5987 14.7569L21.3987 14.7565C21.3976 15.2457 21.1095 15.6884 20.6624 15.886L20.7432 16.0689ZM14.9568 18.6227L20.7432 16.0689L20.6624 15.8859L14.8761 18.4397L14.9568 18.6227ZM12.6552 19.0999C13.4468 19.1037 14.231 18.9409 14.9566 18.6228L14.8763 18.4396C14.1762 18.7465 13.4197 18.9035 12.6561 18.8999L12.6552 19.0999ZM12.6884 18.9054L12.6882 18.9054L12.6231 19.0945L12.6233 19.0946L12.6884 18.9054ZM9.95088 18.3842C10.7785 18.8452 11.708 19.0913 12.6549 19.1L12.6568 18.9C11.7433 18.8916 10.8466 18.6543 10.0482 18.2095L9.95088 18.3842ZM5.77221 16.124L9.95197 18.3848L10.0471 18.2089L5.86736 15.9481L5.77221 16.124ZM5.04105 14.8791C5.04236 15.395 5.32196 15.87 5.77064 16.1232L5.86893 15.949C5.48265 15.731 5.24218 15.3222 5.24105 14.8786L5.04105 14.8791ZM5.04105 9.4748V14.8788H5.24105V9.4748H5.04105ZM4.35152 8.09652L11.6825 11.8091L11.7729 11.6307L4.44188 7.9181L4.35152 8.09652ZM13.1674 7.38621L4.39077 7.90749L4.40263 8.10713L13.1793 7.58586L13.1674 7.38621ZM13.4355 7.25608C13.3663 7.33395 13.2703 7.38039 13.1677 7.3862L13.179 7.58588C13.3351 7.57704 13.4808 7.50629 13.585 7.38884L13.4355 7.25608ZM13.5325 6.97504C13.5393 7.07775 13.5044 7.17939 13.4359 7.25561L13.5846 7.38931C13.6895 7.27266 13.7424 7.11795 13.7321 6.96187L13.5325 6.97504ZM13.4024 6.70633C13.4802 6.77544 13.5267 6.87146 13.5325 6.97411L13.7322 6.9628C13.7233 6.80667 13.6526 6.66098 13.5351 6.55675L13.4024 6.70633ZM13.1213 6.60925C13.224 6.60247 13.3257 6.63741 13.4019 6.70592L13.5356 6.55717C13.4189 6.45233 13.2642 6.39938 13.1081 6.40969L13.1213 6.60925ZM2.67492 7.23217L13.1207 6.60929L13.1088 6.40965L2.66301 7.03253L2.67492 7.23217ZM2.16578 6.98962L2.62379 7.22156L2.71414 7.04314L2.25614 6.81119L2.16578 6.98962ZM12.0024 2.15178L2.16815 6.81003L2.25377 6.99078L12.088 2.33253L12.0024 2.15178ZM14.6192 2.1771C13.797 1.76663 12.8321 1.75779 12.0023 2.15183L12.0881 2.33249C12.8624 1.96478 13.7627 1.97307 14.5299 2.35604L14.6192 2.1771ZM24.1064 6.88897L14.619 2.17701L14.5301 2.35613L24.0174 7.0681L24.1064 6.88897ZM14.3398 11.8098L24.1056 7.06849L24.0182 6.88858L14.2524 11.6299L14.3398 11.8098ZM11.6838 11.8097C12.5221 12.2188 13.5017 12.2188 14.34 11.8097L14.2523 11.63C13.4694 12.012 12.5545 12.012 11.7715 11.63L11.6838 11.8097ZM2.72378 14.2224C2.38066 14.2224 2.07179 14.4286 1.94157 14.7458L2.12659 14.8218C2.22587 14.5799 2.46141 14.4224 2.72378 14.4224V14.2224ZM2.79508 14.2523L2.79504 14.2522L2.65251 14.3925L2.65255 14.3926L2.79508 14.2523ZM3.57089 15.0689C3.56812 14.6028 3.19056 14.2252 2.72441 14.2224L2.72322 14.4224C3.07984 14.4245 3.36878 14.7135 3.37089 15.0701L3.57089 15.0689ZM3.04742 15.8517C3.36466 15.7215 3.57089 15.4126 3.57089 15.0695H3.37089C3.37089 15.3318 3.21332 15.5674 2.97147 15.6667L3.04742 15.8517ZM2.1245 15.6688C2.3668 15.9111 2.73218 15.983 3.0479 15.8515L2.97099 15.6669C2.73001 15.7673 2.45087 15.7123 2.26592 15.5273L2.1245 15.6688ZM1.94177 14.7454C1.81023 15.0611 1.8822 15.4265 2.1245 15.6688L2.26592 15.5273C2.08097 15.3424 2.02599 15.0632 2.12639 14.8223L1.94177 14.7454Z" fill="#003462" mask="url(#path-1-outside-1)"/>
</svg>
