    <svg
        width="19"
        height="18"
        viewBox="0 0 19 18"
        fill="none"
        xmlns="http://www.w3.org/2000/svg">
        <path
            d="M6.62719 14.8646C5.11335 16.3785 2.65002 16.3785 1.13538 14.8646C-0.378461 13.3508 -0.378461 10.8875 1.13538 9.37283L3.881 6.62723C5.39484 5.11339 7.85817 5.11339 9.37281 6.62723C9.48506 6.73568 9.548 6.88433 9.54952 7.04057C9.55028 7.19605 9.48885 7.34622 9.37887 7.45619C9.2689 7.56692 9.11874 7.62836 8.9625 7.62684C8.80702 7.62608 8.65761 7.56237 8.54915 7.45088C7.47749 6.37922 5.77713 6.37922 4.70459 7.45088L1.95898 10.1965C0.887315 11.2681 0.887315 12.9685 1.95898 14.041C3.03065 15.1127 4.731 15.1127 5.80276 14.041L8.27442 11.5694C8.38287 11.4579 8.53228 11.3942 8.68776 11.3934C8.844 11.3919 8.99341 11.4533 9.10414 11.5641C9.21411 11.674 9.27554 11.8242 9.27479 11.9797C9.27327 12.1359 9.20956 12.2846 9.09807 12.393L6.627 14.8641L6.62719 14.8646ZM12.119 9.37283C10.6052 10.8867 8.14183 10.8867 6.62719 9.37283C6.5157 9.26438 6.45199 9.11497 6.45048 8.95949C6.44972 8.80325 6.51115 8.65384 6.62113 8.54387C6.73186 8.43314 6.88126 8.37171 7.0375 8.37322C7.19298 8.37398 7.34239 8.43769 7.45085 8.54918C8.52251 9.62084 10.2229 9.62084 11.2954 8.54918L14.041 5.80358C15.1127 4.73191 15.1127 3.03157 14.041 1.95903C12.9694 0.88737 11.269 0.88737 10.1965 1.95903L7.72539 4.43009V4.43085C7.61693 4.54234 7.46753 4.60605 7.31204 4.60681C7.1558 4.60833 7.0064 4.54689 6.89567 4.43616C6.78569 4.32619 6.72426 4.17603 6.72502 4.02054C6.72654 3.86431 6.78949 3.71566 6.90174 3.60644L9.37281 1.13538C10.8867 -0.37846 13.35 -0.37846 14.8646 1.13538C16.3785 2.64922 16.3785 5.11253 14.8646 6.62717L12.119 9.37283Z"
            fill="#003462"
        />
    </svg>
