<svg width="33" height="32" viewBox="0 0 33 32" fill="none" xmlns="http://www.w3.org/2000/svg">
<path id="link" d="M13.2729 29.7292C10.2453 32.757 5.3186 32.757 2.28932 29.7292C-0.738366 26.7016 -0.738366 21.775 2.28932 18.7457L7.78056 13.2545C10.8082 10.2268 15.7349 10.2268 18.7642 13.2545C18.9887 13.4714 19.1146 13.7687 19.1176 14.0811C19.1191 14.3921 18.9963 14.6924 18.7763 14.9124C18.5564 15.1338 18.256 15.2567 17.9436 15.2537C17.6326 15.2522 17.3338 15.1247 17.1169 14.9018C14.9735 12.7584 11.5728 12.7584 9.42774 14.9018L3.93652 20.393C1.79319 22.5362 1.79319 25.937 3.93652 28.082C6.07986 30.2254 9.48056 30.2254 11.6241 28.082L16.5674 23.1388C16.7843 22.9158 17.0831 22.7884 17.3941 22.7868C17.7066 22.7838 18.0054 22.9066 18.2268 23.1282C18.4468 23.348 18.5696 23.6484 18.5681 23.9594C18.5651 24.2718 18.4377 24.5692 18.2147 24.786L13.2726 29.7282L13.2729 29.7292ZM24.2566 18.7457C21.229 21.7734 16.3022 21.7734 13.2729 18.7457C13.05 18.5288 12.9225 18.2299 12.9195 17.919C12.918 17.6065 13.0409 17.3077 13.2608 17.0877C13.4823 16.8663 13.7811 16.7434 14.0936 16.7464C14.4045 16.748 14.7033 16.8754 14.9203 17.0984C17.0636 19.2417 20.4644 19.2417 22.6094 17.0984L28.1006 11.6072C30.244 9.46382 30.244 6.06314 28.1006 3.91806C25.9574 1.77474 22.5566 1.77474 20.4116 3.91806L15.4693 8.86018V8.8617C15.2524 9.08468 14.9536 9.2121 14.6426 9.21362C14.3302 9.21666 14.0314 9.09378 13.8099 8.87232C13.5899 8.65238 13.4671 8.35206 13.4686 8.04108C13.4716 7.72862 13.5975 7.43132 13.822 7.21288L18.7642 2.27076C21.792 -0.75692 26.7186 -0.75692 29.7478 2.27076C32.7756 5.29844 32.7756 10.2251 29.7478 13.2543L24.2566 18.7457Z" fill="#003462"/>
</svg>
