<svg width="33" height="28" viewBox="0 0 33 28" fill="none" xmlns="http://www.w3.org/2000/svg">
<path id="list" fill-rule="evenodd" clip-rule="evenodd" d="M2.14002 4.28004C3.32192 4.28004 4.28004 3.32192 4.28004 2.14002C4.28004 0.95812 3.32192 0 2.14002 0C0.95812 0 0 0.95812 0 2.14002C0 3.32192 0.95812 4.28004 2.14002 4.28004ZM10.7001 0.939394C10.1478 0.939394 9.70011 1.38711 9.70011 1.93939C9.70011 2.49168 10.1478 2.93939 10.7001 2.93939H31.0303C31.5826 2.93939 32.0303 2.49168 32.0303 1.93939C32.0303 1.38711 31.5826 0.939394 31.0303 0.939394H10.7001ZM2.14002 15.9164C3.32192 15.9164 4.28004 14.9583 4.28004 13.7764C4.28004 12.5945 3.32192 11.6364 2.14002 11.6364C0.95812 11.6364 0 12.5945 0 13.7764C0 14.9583 0.95812 15.9164 2.14002 15.9164ZM10.7001 12.5758C10.1478 12.5758 9.70011 13.0235 9.70011 13.5758C9.70011 14.128 10.1478 14.5758 10.7001 14.5758H31.0303C31.5826 14.5758 32.0303 14.128 32.0303 13.5758C32.0303 13.0235 31.5826 12.5758 31.0303 12.5758H10.7001ZM4.28004 25.4127C4.28004 26.5947 3.32192 27.5528 2.14002 27.5528C0.95812 27.5528 0 26.5947 0 25.4127C0 24.2308 0.95812 23.2727 2.14002 23.2727C3.32192 23.2727 4.28004 24.2308 4.28004 25.4127ZM9.70011 25.2121C9.70011 24.6598 10.1478 24.2121 10.7001 24.2121H31.0303C31.5826 24.2121 32.0303 24.6598 32.0303 25.2121C32.0303 25.7644 31.5826 26.2121 31.0303 26.2121H10.7001C10.1478 26.2121 9.70011 25.7644 9.70011 25.2121Z" fill="currentColor"/>
</svg>
