<svg width="16" height="14" viewBox="0 0 16 14" fill="none" xmlns="http://www.w3.org/2000/svg">
<path fill-rule="evenodd" clip-rule="evenodd" d="M1.33496 2.64093H0.81148V0.623101L0.186568 0.816914V0.391249L1.27881 0H1.33496V2.64093ZM1.87111 8.26394H0.0633969V7.90529L0.916537 6.996C1.03367 6.868 1.12001 6.7563 1.17556 6.6609C1.23231 6.56551 1.26069 6.47494 1.26069 6.3892C1.26069 6.27207 1.23111 6.18029 1.17194 6.11388C1.11277 6.04626 1.02824 6.01244 0.918349 6.01244C0.800008 6.01244 0.706422 6.0535 0.637591 6.13562C0.569968 6.21652 0.536156 6.32339 0.536156 6.45622H0.010868C0.010868 6.29562 0.0489062 6.1489 0.124982 6.01607C0.202266 5.88324 0.310947 5.77939 0.451023 5.70452C0.5911 5.62844 0.749894 5.5904 0.927406 5.5904C1.19911 5.5904 1.40983 5.65561 1.55956 5.78603C1.71051 5.91644 1.78598 6.1006 1.78598 6.33849C1.78598 6.4689 1.75217 6.60173 1.68455 6.73698C1.61692 6.87223 1.501 7.02981 1.33677 7.20974L0.737215 7.8419H1.87111V8.26394ZM0.874877 12.3364H0.595931V12.7458H0.873065C1.16288 12.7458 1.30779 12.8774 1.30779 13.1407C1.30779 13.2494 1.27216 13.3369 1.20092 13.4033C1.13088 13.4685 1.03367 13.5011 0.909292 13.5011C0.800612 13.5011 0.708837 13.4697 0.633969 13.4069C0.560308 13.3441 0.523477 13.2632 0.523477 13.1642H0C0 13.3924 0.0833216 13.576 0.249965 13.7149C0.417816 13.8537 0.633365 13.9232 0.896613 13.9232C1.17797 13.9232 1.40379 13.8525 1.57405 13.7112C1.74553 13.57 1.83126 13.3822 1.83126 13.1479C1.83126 13.003 1.79443 12.8774 1.72077 12.7712C1.64832 12.6649 1.53783 12.5852 1.3893 12.5321C1.50885 12.4777 1.60545 12.3998 1.67911 12.2984C1.75277 12.197 1.7896 12.0859 1.7896 11.9651C1.7896 11.7308 1.71051 11.5473 1.55232 11.4145C1.39413 11.2804 1.17556 11.2134 0.896613 11.2134C0.736007 11.2134 0.588685 11.2442 0.454646 11.3058C0.321815 11.3674 0.217964 11.4531 0.143096 11.563C0.0694347 11.6717 0.0326041 11.7948 0.0326041 11.9325H0.556081C0.556081 11.8444 0.589893 11.7731 0.657516 11.7188C0.725139 11.6632 0.809065 11.6355 0.909292 11.6355C1.02039 11.6355 1.10733 11.665 1.17012 11.7242C1.23413 11.7834 1.26613 11.8661 1.26613 11.9724C1.26613 12.0822 1.23413 12.1704 1.17012 12.2368C1.10612 12.3032 1.00771 12.3364 0.874877 12.3364ZM5 0.735107C4.72386 0.735107 4.5 0.958965 4.5 1.23511C4.5 1.51125 4.72386 1.73511 5 1.73511H15C15.2761 1.73511 15.5 1.51125 15.5 1.23511C15.5 0.958965 15.2761 0.735107 15 0.735107H5ZM5 6.02881C4.72386 6.02881 4.5 6.25267 4.5 6.52881C4.5 6.80495 4.72386 7.02881 5 7.02881H15C15.2761 7.02881 15.5 6.80495 15.5 6.52881C15.5 6.25267 15.2761 6.02881 15 6.02881H5ZM4.5 12.4814C4.5 12.2053 4.72386 11.9814 5 11.9814H15C15.2761 11.9814 15.5 12.2053 15.5 12.4814C15.5 12.7576 15.2761 12.9814 15 12.9814H5C4.72386 12.9814 4.5 12.7576 4.5 12.4814Z" fill="#003462"/>
</svg>
