<svg width="16" height="14" viewBox="0 0 16 14" fill="none" xmlns="http://www.w3.org/2000/svg">
<path fill-rule="evenodd" clip-rule="evenodd" d="M1.069 2.138C1.65939 2.138 2.138 1.65939 2.138 1.069C2.138 0.478607 1.65939 0 1.069 0C0.478607 0 0 0.478607 0 1.069C0 1.65939 0.478607 2.138 1.069 2.138ZM5.34504 0.469282C5.06915 0.469282 4.84551 0.692928 4.84551 0.968809C4.84551 1.24469 5.06915 1.46834 5.34504 1.46834H15.5005C15.7764 1.46834 16 1.24469 16 0.968809C16 0.692928 15.7764 0.469282 15.5005 0.469282H5.34504ZM1.069 7.95073C1.65939 7.95073 2.138 7.47212 2.138 6.88173C2.138 6.29134 1.65939 5.81273 1.069 5.81273C0.478607 5.81273 0 6.29134 0 6.88173C0 7.47212 0.478607 7.95073 1.069 7.95073ZM5.34504 6.282C5.06915 6.282 4.84551 6.50565 4.84551 6.78153C4.84551 7.05741 5.06915 7.28106 5.34504 7.28106H15.5005C15.7764 7.28106 16 7.05741 16 6.78153C16 6.50565 15.7764 6.282 15.5005 6.282H5.34504ZM2.138 12.6943C2.138 13.2847 1.65939 13.7633 1.069 13.7633C0.478607 13.7633 0 13.2847 0 12.6943C0 12.104 0.478607 11.6253 1.069 11.6253C1.65939 11.6253 2.138 12.104 2.138 12.6943ZM4.84551 12.5943C4.84551 12.3184 5.06915 12.0947 5.34504 12.0947H15.5005C15.7764 12.0947 16 12.3184 16 12.5943C16 12.8701 15.7764 13.0938 15.5005 13.0938H5.34504C5.06915 13.0938 4.84551 12.8701 4.84551 12.5943Z" fill="#003462"/>
</svg>
