<svg width="24" height="32" viewBox="0 0 24 32" fill="none" xmlns="http://www.w3.org/2000/svg">
<path id="location" d="M11.9016 0C5.33826 0 0 5.33826 0 11.9016C0 14.2293 0.57402 15.8991 1.7827 17.6858L11.2219 31.6394C11.2971 31.7504 11.3984 31.8414 11.5169 31.9042C11.6354 31.9672 11.7675 32 11.9016 32C12.0358 32 12.1679 31.9672 12.2864 31.9042C12.4049 31.8414 12.5061 31.7504 12.5813 31.6394L22.0206 17.6858C23.2292 15.899 23.8032 14.2293 23.8032 11.9016C23.8032 5.33826 18.465 0 11.9016 0ZM11.9016 1.64161C17.5778 1.64161 22.1616 6.22546 22.1616 11.9016C22.1616 13.9852 21.752 15.1624 20.6612 16.7752L11.9016 29.7284L3.14212 16.7752C2.05122 15.1624 1.6416 13.9852 1.6416 11.9016C1.6416 6.22546 6.22546 1.64161 11.9016 1.64161ZM11.9016 5.74562C8.73814 5.74562 6.15602 8.32774 6.15602 11.4912C6.15602 14.6547 8.73814 17.2369 11.9016 17.2369C15.0651 17.2369 17.6472 14.6547 17.6472 11.4912C17.6472 8.32774 15.0651 5.74562 11.9016 5.74562ZM11.9016 7.38722C14.1779 7.38722 16.0056 9.21494 16.0056 11.4912C16.0056 13.7675 14.1779 15.5952 11.9016 15.5952C9.62534 15.5952 7.79762 13.7675 7.79762 11.4912C7.79762 9.21494 9.62534 7.38722 11.9016 7.38722Z" fill="#003462"/>
</svg>
