    <svg
        width="16"
        height="16"
        viewBox="0 0 16 16"
        fill="currentColor"
        xmlns="http://www.w3.org/2000/svg">
        <path
            d="M7.95082 0C4.66913 0 2 2.66913 2 5.95082C2 7.11463 2.28701 7.94954 2.89135 8.84288L7.61096 15.8197C7.64857 15.8752 7.69921 15.9207 7.75846 15.9521C7.8177 15.9836 7.88375 16 7.95082 16C8.01789 16 8.08393 15.9836 8.14318 15.9521C8.20243 15.9207 8.25307 15.8752 8.29067 15.8197L13.0103 8.84288C13.6146 7.94952 13.9016 7.11463 13.9016 5.95082C13.9016 2.66913 11.2325 0 7.95082 0ZM7.95082 0.820803C10.7889 0.820803 13.0808 3.11273 13.0808 5.95082C13.0808 6.99262 12.876 7.5812 12.3306 8.38758L7.95082 14.8642L3.57106 8.38758C3.02561 7.58122 2.8208 6.99262 2.8208 5.95082C2.8208 3.11273 5.11273 0.820803 7.95082 0.820803ZM7.95082 2.87281C6.36907 2.87281 5.07801 4.16387 5.07801 5.74562C5.07801 7.32735 6.36907 8.61843 7.95082 8.61843C9.53257 8.61843 10.8236 7.32735 10.8236 5.74562C10.8236 4.16387 9.53257 2.87281 7.95082 2.87281ZM7.95082 3.69361C9.08896 3.69361 10.0028 4.60747 10.0028 5.74562C10.0028 6.88374 9.08896 7.79762 7.95082 7.79762C6.81267 7.79762 5.89881 6.88374 5.89881 5.74562C5.89881 4.60747 6.81267 3.69361 7.95082 3.69361Z"
            fill="currentColor"
        />
    </svg>
