<svg width="25" height="32" viewBox="0 0 25 32" fill="none" xmlns="http://www.w3.org/2000/svg">
<path id="lock" d="M20.5133 13.128V8.20502C20.5133 3.68171 16.8315 3.86696e-07 12.3082 3.86696e-07C7.78493 -0.00137735 4.10322 3.67889 4.10322 8.20361V13.1265C1.84082 13.1265 0 14.9659 0 17.2298V27.8968C0 30.1592 1.83938 32 4.10322 32H20.5143C22.7767 32 24.6175 30.1606 24.6175 27.8968V17.2298C24.6161 14.9674 22.7767 13.128 20.5129 13.128H20.5133ZM5.74302 8.20361C5.74302 4.58398 8.68881 1.63839 12.3082 1.63839C15.9277 1.63839 18.8734 4.58419 18.8734 8.20361V13.1265L5.74267 13.1279L5.74302 8.20361ZM22.9753 27.8982C22.9753 29.2567 21.8716 30.3604 20.5131 30.3604L4.10339 30.359C2.74485 30.359 1.64122 29.2554 1.64122 27.8968V17.2298C1.64122 15.8713 2.74485 14.7676 4.10339 14.7676H20.5145C21.873 14.7676 22.9767 15.8713 22.9767 17.2298V27.8982L22.9753 27.8982Z" fill="#003462"/>
</svg>
