<svg width="30" height="28" viewBox="0 0 30 28" fill="none" xmlns="http://www.w3.org/2000/svg">
<path id="logout" fill-rule="evenodd" clip-rule="evenodd" d="M0 5.13692V22.0923V22.5C0 25.2614 2.23858 27.5 5 27.5H17.5C18.0523 27.5 18.5 27.0523 18.5 26.5C18.5 25.9477 18.0523 25.5 17.5 25.5H17.1012C17.0122 25.4707 16.9172 25.4549 16.8185 25.4549H5.13692C4.01647 25.4549 3.0167 24.8851 2.41437 24.0223C2.15107 23.576 2 23.0557 2 22.5V5C2 3.34315 3.34315 2 5 2H17.5C18.0523 2 18.5 1.55228 18.5 1C18.5 0.447715 18.0523 0 17.5 0H16.8185H5.13692H5C2.23858 0 0 2.23858 0 5V5.13692ZM9 13C8.44771 13 8 13.4477 8 14C8 14.5523 8.44771 15 9 15L26.5858 15L21.7929 19.7929C21.4024 20.1834 21.4024 20.8166 21.7929 21.2071C22.1834 21.5976 22.8166 21.5976 23.2071 21.2071L29.7071 14.7071C29.8995 14.5147 30.0052 14.2521 29.9998 13.98C29.9944 13.7079 29.8783 13.4498 29.6783 13.2652L23.1783 7.26519C22.7725 6.89059 22.1398 6.91589 21.7652 7.32171C21.3906 7.72753 21.4159 8.36019 21.8217 8.7348L26.4424 13L9 13Z" fill="#003462"/>
</svg>
