<svg width="32" height="21" viewBox="0 0 32 21" fill="none" xmlns="http://www.w3.org/2000/svg">
<path fill-rule="evenodd" clip-rule="evenodd" d="M1.31586 2.63171L1.31586 17.4216C1.31586 18.1483 1.90499 18.7375 2.63171 18.7375L29.3683 18.7375C30.095 18.7375 30.6841 18.1483 30.6841 17.4216V2.63171C30.6841 2.2611 30.5309 1.92627 30.2844 1.68712L18.3247 10.4993C17.1857 11.3385 15.6377 11.3555 14.4806 10.5415L1.7939 1.617C1.50192 1.85835 1.31586 2.22331 1.31586 2.63171ZM0 17.4216C0 18.8751 1.17826 20.0533 2.63171 20.0533L29.3683 20.0533C30.8217 20.0533 32 18.8751 32 17.4216V2.63171C32 1.17826 30.8217 0 29.3683 0H2.63171C1.17826 0 0 1.17826 0 2.63171V17.4216ZM2.13281 12.5199C2.13281 11.9749 2.57466 11.5331 3.11971 11.5331H13.0127C13.5578 11.5331 13.9996 11.9749 13.9996 12.5199C13.9996 13.065 13.5578 13.5068 13.0127 13.5068H3.11971C2.57466 13.5068 2.13281 13.065 2.13281 12.5199ZM3.11971 14.5194C2.57466 14.5194 2.13281 14.9612 2.13281 15.5063C2.13281 16.0513 2.57466 16.4932 3.11971 16.4932H5.89265C6.4377 16.4932 6.87954 16.0513 6.87954 15.5063C6.87954 14.9612 6.4377 14.5194 5.89265 14.5194H3.11971ZM7.67094 15.5063C7.67094 14.9612 8.11279 14.5194 8.65784 14.5194H13.013C13.5581 14.5194 13.9999 14.9612 13.9999 15.5063C13.9999 16.0513 13.5581 16.4932 13.013 16.4932H8.65784C8.11279 16.4932 7.67094 16.0513 7.67094 15.5063ZM15.2377 9.46524L4.06575 1.60632H28.1757L17.5441 9.43991C16.8607 9.94343 15.9319 9.95364 15.2377 9.46524Z" fill="#003462"/>
</svg>
