<svg width="33" height="29" viewBox="0 0 33 29" fill="none" xmlns="http://www.w3.org/2000/svg">
<path id="message" fill-rule="evenodd" clip-rule="evenodd" d="M26.9665 0H5.07159C2.27689 0 0.019043 2.01679 0.019043 4.51633V18.0654C0.019043 20.565 2.27689 22.5818 5.07159 22.5818H10.1241V27.0982C10.1241 27.9266 10.882 28.6041 11.8089 28.6041C12.2809 28.6041 12.7009 28.4376 13.0041 28.1666L19.2361 22.5818H26.9665C29.7628 22.5818 32.019 20.565 32.019 18.0655V4.51637C32.019 2.01683 29.7628 0 26.9665 0ZM5.07159 1.5059H26.9665C28.8186 1.5059 30.3343 2.86081 30.3343 4.51633V18.0654C30.3343 19.7209 28.8186 21.0759 26.9665 21.0759H18.5461L11.8089 27.0982V21.0759H5.07159C3.21953 21.0759 1.70376 19.7209 1.70376 18.0654V4.51633C1.70376 2.86081 3.21953 1.5059 5.07159 1.5059ZM7.1485 5.64349C6.73428 5.64349 6.3985 5.97928 6.3985 6.39349C6.3985 6.80771 6.73428 7.14349 7.1485 7.14349L23.5423 7.1435C23.9566 7.1435 24.2923 6.80771 24.2923 6.3935C24.2923 5.97928 23.9566 5.6435 23.5423 5.6435L7.1485 5.64349ZM8.26691 11.295C8.26691 10.8808 8.60269 10.545 9.01691 10.545L25.4107 10.545C25.825 10.545 26.1607 10.8808 26.1607 11.295C26.1607 11.7092 25.825 12.045 25.4107 12.045L9.01691 12.045C8.60269 12.045 8.26691 11.7092 8.26691 11.295ZM7.1485 15.4465C6.73428 15.4465 6.3985 15.7823 6.3985 16.1965C6.3985 16.6107 6.73428 16.9465 7.1485 16.9465L23.6163 16.9465C24.0305 16.9465 24.3663 16.6107 24.3663 16.1965C24.3663 15.7823 24.0305 15.4465 23.6163 15.4465L7.1485 15.4465Z" fill="#003462"/>
</svg>
