<svg width="7" height="32" viewBox="0 0 7 32" fill="none" xmlns="http://www.w3.org/2000/svg">
<g id="more">
<mask id="path-1-inside-1" fill="white">
<path fill-rule="evenodd" clip-rule="evenodd" d="M6.05917 3.02958C6.05917 4.70278 4.70278 6.05917 3.02958 6.05917C1.35639 6.05917 0 4.70278 0 3.02958C0 1.35639 1.35639 0 3.02958 0C4.70278 0 6.05917 1.35639 6.05917 3.02958ZM6.05917 16C6.05917 17.6732 4.70278 19.0296 3.02958 19.0296C1.35639 19.0296 0 17.6732 0 16C0 14.3268 1.35639 12.9704 3.02958 12.9704C4.70278 12.9704 6.05917 14.3268 6.05917 16ZM3.02958 32C4.70278 32 6.05917 30.6436 6.05917 28.9704C6.05917 27.2972 4.70278 25.9408 3.02958 25.9408C1.35639 25.9408 0 27.2972 0 28.9704C0 30.6436 1.35639 32 3.02958 32Z"/>
</mask>
<path fill-rule="evenodd" clip-rule="evenodd" d="M6.05917 3.02958C6.05917 4.70278 4.70278 6.05917 3.02958 6.05917C1.35639 6.05917 0 4.70278 0 3.02958C0 1.35639 1.35639 0 3.02958 0C4.70278 0 6.05917 1.35639 6.05917 3.02958ZM6.05917 16C6.05917 17.6732 4.70278 19.0296 3.02958 19.0296C1.35639 19.0296 0 17.6732 0 16C0 14.3268 1.35639 12.9704 3.02958 12.9704C4.70278 12.9704 6.05917 14.3268 6.05917 16ZM3.02958 32C4.70278 32 6.05917 30.6436 6.05917 28.9704C6.05917 27.2972 4.70278 25.9408 3.02958 25.9408C1.35639 25.9408 0 27.2972 0 28.9704C0 30.6436 1.35639 32 3.02958 32Z" fill="#003462"/>
<path d="M3.02958 7.05917C5.25506 7.05917 7.05917 5.25506 7.05917 3.02958H5.05917C5.05917 4.15049 4.15049 5.05917 3.02958 5.05917V7.05917ZM-1 3.02958C-1 5.25506 0.804106 7.05917 3.02958 7.05917V5.05917C1.90868 5.05917 1 4.15049 1 3.02958H-1ZM3.02958 -1C0.804106 -1 -1 0.804106 -1 3.02958H1C1 1.90868 1.90868 1 3.02958 1V-1ZM7.05917 3.02958C7.05917 0.804106 5.25506 -1 3.02958 -1V1C4.15049 1 5.05917 1.90868 5.05917 3.02958H7.05917ZM3.02958 20.0296C5.25506 20.0296 7.05917 18.2255 7.05917 16H5.05917C5.05917 17.1209 4.15049 18.0296 3.02958 18.0296V20.0296ZM-1 16C-1 18.2255 0.804106 20.0296 3.02958 20.0296V18.0296C1.90868 18.0296 1 17.1209 1 16H-1ZM3.02958 11.9704C0.804106 11.9704 -1 13.7745 -1 16H1C1 14.8791 1.90868 13.9704 3.02958 13.9704V11.9704ZM7.05917 16C7.05917 13.7745 5.25506 11.9704 3.02958 11.9704V13.9704C4.15049 13.9704 5.05917 14.8791 5.05917 16H7.05917ZM5.05917 28.9704C5.05917 30.0913 4.15049 31 3.02958 31V33C5.25506 33 7.05917 31.1959 7.05917 28.9704H5.05917ZM3.02958 26.9408C4.15049 26.9408 5.05917 27.8495 5.05917 28.9704H7.05917C7.05917 26.7449 5.25506 24.9408 3.02958 24.9408V26.9408ZM1 28.9704C1 27.8495 1.90868 26.9408 3.02958 26.9408V24.9408C0.804106 24.9408 -1 26.7449 -1 28.9704H1ZM3.02958 31C1.90868 31 1 30.0913 1 28.9704H-1C-1 31.1959 0.804106 33 3.02958 33V31Z" fill="#003462" mask="url(#path-1-inside-1)"/>
</g>
</svg>
