<svg width="26" height="21" viewBox="0 0 26 21" fill="none" xmlns="http://www.w3.org/2000/svg">
<mask id="path-1-outside-1" maskUnits="userSpaceOnUse" x="0" y="0" width="26" height="21" fill="black">
<rect fill="white" width="26" height="21"/>
<path fill-rule="evenodd" clip-rule="evenodd" d="M1 2.90915C1 1.86084 1.86078 1.00005 2.90909 1.00005L8.38922 1C8.6649 1.01832 8.949 1.13193 9.18167 1.22496C9.36801 1.29947 9.52137 1.36079 9.61099 1.34942H22.2898C22.8896 1.35048 23.5639 1.39949 24.0369 1.92896C24.3288 2.32207 24.445 3.72299 24.4545 4.28124C24.7401 4.28124 25 4.54117 25 4.82669V18.7273C25 19.7756 24.1392 20.6364 23.0909 20.6364H2.90909C1.86078 20.6364 1 19.7756 1 18.7273V2.90915ZM8.32109 2.09096H2.90909C2.52236 2.10163 2.08034 2.41277 2.09099 2.90921V18.7274C2.09099 19.1898 2.44682 19.5456 2.90917 19.5456H23.091C23.5533 19.5456 23.9092 19.1898 23.9092 18.7274V5.37221C22.5602 5.37221 20.6046 5.37035 18.5231 5.36836C16.1547 5.36611 13.6233 5.36369 11.6364 5.36369C11.0942 5.36476 10.7202 5.03661 10.3921 4.69038C10.1189 4.39281 9.85787 4.01629 9.58946 3.62919C9.20157 3.06978 8.79836 2.48826 8.32109 2.09096ZM22.2899 2.44038H9.98599C10.1511 2.67051 10.9599 3.68788 11.1847 3.94037C11.4318 4.20139 11.6332 4.27277 11.6364 4.27277C13.6971 4.27277 16.2885 4.27526 18.6876 4.27757C20.4361 4.27926 22.0825 4.28084 23.3467 4.28129C23.352 3.63037 23.0942 2.44038 22.2899 2.44038ZM7.0002 11.8369C6.64888 11.8369 6.36408 12.1217 6.36408 12.473C6.36408 12.8243 6.64888 13.1091 7.0002 13.1091H17.4645L14.2463 16.3273C13.9978 16.5757 13.9978 16.9785 14.2463 17.2269C14.4947 17.4753 14.8975 17.4753 15.1459 17.2269L19.45 12.9228C19.5724 12.8004 19.6397 12.6334 19.6362 12.4603C19.6327 12.2872 19.5589 12.123 19.4317 12.0056L15.1275 8.03252C14.8694 7.79423 14.4669 7.81032 14.2287 8.06848C13.9904 8.32663 14.0065 8.72908 14.2646 8.96737L17.3732 11.8369H7.0002Z"/>
</mask>
<path fill-rule="evenodd" clip-rule="evenodd" d="M1 2.90915C1 1.86084 1.86078 1.00005 2.90909 1.00005L8.38922 1C8.6649 1.01832 8.949 1.13193 9.18167 1.22496C9.36801 1.29947 9.52137 1.36079 9.61099 1.34942H22.2898C22.8896 1.35048 23.5639 1.39949 24.0369 1.92896C24.3288 2.32207 24.445 3.72299 24.4545 4.28124C24.7401 4.28124 25 4.54117 25 4.82669V18.7273C25 19.7756 24.1392 20.6364 23.0909 20.6364H2.90909C1.86078 20.6364 1 19.7756 1 18.7273V2.90915ZM8.32109 2.09096H2.90909C2.52236 2.10163 2.08034 2.41277 2.09099 2.90921V18.7274C2.09099 19.1898 2.44682 19.5456 2.90917 19.5456H23.091C23.5533 19.5456 23.9092 19.1898 23.9092 18.7274V5.37221C22.5602 5.37221 20.6046 5.37035 18.5231 5.36836C16.1547 5.36611 13.6233 5.36369 11.6364 5.36369C11.0942 5.36476 10.7202 5.03661 10.3921 4.69038C10.1189 4.39281 9.85787 4.01629 9.58946 3.62919C9.20157 3.06978 8.79836 2.48826 8.32109 2.09096ZM22.2899 2.44038H9.98599C10.1511 2.67051 10.9599 3.68788 11.1847 3.94037C11.4318 4.20139 11.6332 4.27277 11.6364 4.27277C13.6971 4.27277 16.2885 4.27526 18.6876 4.27757C20.4361 4.27926 22.0825 4.28084 23.3467 4.28129C23.352 3.63037 23.0942 2.44038 22.2899 2.44038ZM7.0002 11.8369C6.64888 11.8369 6.36408 12.1217 6.36408 12.473C6.36408 12.8243 6.64888 13.1091 7.0002 13.1091H17.4645L14.2463 16.3273C13.9978 16.5757 13.9978 16.9785 14.2463 17.2269C14.4947 17.4753 14.8975 17.4753 15.1459 17.2269L19.45 12.9228C19.5724 12.8004 19.6397 12.6334 19.6362 12.4603C19.6327 12.2872 19.5589 12.123 19.4317 12.0056L15.1275 8.03252C14.8694 7.79423 14.4669 7.81032 14.2287 8.06848C13.9904 8.32663 14.0065 8.72908 14.2646 8.96737L17.3732 11.8369H7.0002Z" fill="#003462"/>
<path d="M2.90909 1.00005V1.15353H2.90909L2.90909 1.00005ZM8.38922 1L8.39942 0.846528L8.38922 0.846528L8.38922 1ZM9.18167 1.22496L9.12469 1.36746V1.36746L9.18167 1.22496ZM9.61099 1.34942V1.19595H9.60129L9.59167 1.19717L9.61099 1.34942ZM22.2898 1.34942L22.2901 1.19595H22.2898V1.34942ZM24.0369 1.92896L24.1607 1.8371L24.1514 1.82672L24.0369 1.92896ZM24.4545 4.28124L24.3011 4.28387L24.3037 4.43471H24.4545V4.28124ZM2.90909 2.09096V1.93743L2.90486 1.93755L2.90909 2.09096ZM8.32109 2.09096L8.41928 1.97301L8.37661 1.93749H8.32109V2.09096ZM2.09099 2.90921H2.2445L2.24443 2.90592L2.09099 2.90921ZM23.9092 5.37221H24.0626V5.21874H23.9092V5.37221ZM18.5231 5.36836L18.5229 5.52184L18.5231 5.36836ZM11.6364 5.36369V5.21022L11.6361 5.21022L11.6364 5.36369ZM10.3921 4.69038L10.2791 4.79419L10.2807 4.79595L10.3921 4.69038ZM9.58946 3.62919L9.46334 3.71664L9.58946 3.62919ZM9.98599 2.44038V2.28691H9.68699L9.86129 2.52985L9.98599 2.44038ZM11.1847 3.94037L11.07 4.04247L11.0732 4.04589L11.1847 3.94037ZM18.6876 4.27757L18.6877 4.1241L18.6876 4.27757ZM23.3467 4.28129L23.3467 4.43476L23.499 4.43482L23.5002 4.28255L23.3467 4.28129ZM7.0002 11.8369V11.6834H7.0002L7.0002 11.8369ZM17.4645 13.1091L17.573 13.2176L17.835 12.9556H17.4645V13.1091ZM14.2463 16.3273L14.3548 16.4358L14.2463 16.3273ZM14.2463 17.2269L14.1377 17.3354L14.1377 17.3354L14.2463 17.2269ZM15.1459 17.2269L15.2544 17.3354H15.2544L15.1459 17.2269ZM19.45 12.9228L19.3415 12.8143L19.45 12.9228ZM19.4317 12.0056L19.3276 12.1183L19.4317 12.0056ZM15.1275 8.03252L15.0235 8.14529V8.14529L15.1275 8.03252ZM14.2287 8.06848L14.3414 8.17257V8.17257L14.2287 8.06848ZM14.2646 8.96737L14.3687 8.8546H14.3687L14.2646 8.96737ZM17.3732 11.8369V11.9903H17.7658L17.4773 11.7241L17.3732 11.8369ZM2.90909 0.846583C1.77602 0.846583 0.846528 1.77608 0.846528 2.90915H1.15347C1.15347 1.9456 1.94554 1.15353 2.90909 1.15353V0.846583ZM8.38922 0.846528L2.90909 0.846583L2.90909 1.15353L8.38922 1.15347L8.38922 0.846528ZM9.23865 1.08246C9.01068 0.991301 8.70362 0.867087 8.3994 0.846866L8.37904 1.15313C8.62618 1.16956 8.88732 1.27255 9.12469 1.36746L9.23865 1.08246ZM9.59167 1.19717C9.59167 1.19717 9.59097 1.19725 9.58948 1.19729C9.58799 1.19733 9.58586 1.19732 9.58301 1.19716C9.57722 1.19684 9.56937 1.19596 9.55916 1.19415C9.53838 1.19045 9.51202 1.18364 9.47922 1.17318C9.41275 1.15199 9.33346 1.12037 9.23865 1.08246L9.12469 1.36746C9.21622 1.40406 9.30678 1.44037 9.38598 1.46562C9.45996 1.48921 9.54913 1.51197 9.63032 1.50167L9.59167 1.19717ZM22.2898 1.19595H9.61099V1.50289H22.2898V1.19595ZM24.1514 1.82672C23.6291 1.24207 22.889 1.19701 22.2901 1.19595L22.2895 1.50289C22.8902 1.50396 23.4988 1.55691 23.9225 2.03121L24.1514 1.82672ZM24.608 4.2786C24.6031 3.99346 24.5712 3.49732 24.5036 3.02157C24.4697 2.78366 24.4265 2.54771 24.3723 2.34431C24.3193 2.14566 24.2514 1.9604 24.1602 1.83747L23.9137 2.02046C23.9684 2.09408 24.0245 2.23135 24.0757 2.42338C24.1256 2.61067 24.1668 2.83354 24.1997 3.06478C24.2654 3.52732 24.2964 4.01076 24.3011 4.28387L24.608 4.2786ZM25.1535 4.82669C25.1535 4.45641 24.8248 4.12776 24.4545 4.12776V4.43471C24.6553 4.43471 24.8465 4.62593 24.8465 4.82669H25.1535ZM25.1535 18.7273V4.82669H24.8465V18.7273H25.1535ZM23.0909 20.7899C24.224 20.7899 25.1535 19.8604 25.1535 18.7273H24.8465C24.8465 19.6909 24.0545 20.4829 23.0909 20.4829V20.7899ZM2.90909 20.7899H23.0909V20.4829H2.90909V20.7899ZM0.846528 18.7273C0.846528 19.8604 1.77602 20.7899 2.90909 20.7899V20.4829C1.94554 20.4829 1.15347 19.6909 1.15347 18.7273H0.846528ZM0.846528 2.90915V18.7273H1.15347V2.90915H0.846528ZM2.90909 2.24444H8.32109V1.93749H2.90909V2.24444ZM2.24443 2.90592C2.23606 2.51575 2.58724 2.25337 2.91332 2.24438L2.90486 1.93755C2.45749 1.94989 1.92462 2.30978 1.93755 2.91251L2.24443 2.90592ZM2.24446 18.7274V2.90921H1.93752V18.7274H2.24446ZM2.90917 19.3921C2.53158 19.3921 2.24446 19.105 2.24446 18.7274H1.93752C1.93752 19.2745 2.36206 19.6991 2.90917 19.6991V19.3921ZM23.091 19.3921H2.90917V19.6991H23.091V19.3921ZM23.7557 18.7274C23.7557 19.105 23.4686 19.3921 23.091 19.3921V19.6991C23.6381 19.6991 24.0626 19.2745 24.0626 18.7274H23.7557ZM23.7557 5.37221V18.7274H24.0626V5.37221H23.7557ZM18.5229 5.52184C20.6044 5.52382 22.5601 5.52569 23.9092 5.52569V5.21874C22.5603 5.21874 20.6048 5.21688 18.5232 5.21489L18.5229 5.52184ZM11.6364 5.51716C13.6232 5.51716 16.1546 5.51958 18.5229 5.52184L18.5232 5.21489C16.1549 5.21263 13.6234 5.21022 11.6364 5.21022V5.51716ZM10.2807 4.79595C10.6112 5.14466 11.0249 5.51836 11.6367 5.51716L11.6361 5.21022C11.1635 5.21115 10.8293 4.92856 10.5035 4.58481L10.2807 4.79595ZM9.46334 3.71664C9.73014 4.10143 9.99739 4.48735 10.2791 4.79417L10.5052 4.58659C10.2405 4.29827 9.98559 3.93115 9.71558 3.54174L9.46334 3.71664ZM8.2229 2.20892C8.68101 2.59026 9.07233 3.15273 9.46334 3.71664L9.71558 3.54174C9.33081 2.98683 8.91571 2.38626 8.41928 1.97301L8.2229 2.20892ZM9.98599 2.59385H22.2899V2.28691H9.98599V2.59385ZM11.2993 3.83832C11.0783 3.5901 10.2729 2.57696 10.1107 2.35092L9.86129 2.52985C10.0293 2.76406 10.8415 3.78566 11.07 4.04242L11.2993 3.83832ZM11.6364 4.1193C11.6504 4.1193 11.6612 4.12131 11.6632 4.12168C11.6673 4.1224 11.6705 4.12314 11.6721 4.12354C11.6755 4.12436 11.6781 4.12511 11.6791 4.12542C11.6815 4.12611 11.683 4.12664 11.6833 4.12673C11.6841 4.12701 11.6837 4.1269 11.6821 4.12626C11.6789 4.12504 11.6728 4.12249 11.6638 4.11835C11.6461 4.11009 11.6182 4.09589 11.5827 4.07392C11.5118 4.03005 11.4101 3.95523 11.2961 3.83485L11.0732 4.04589C11.2064 4.18653 11.329 4.27791 11.4213 4.33499C11.4674 4.36349 11.5059 4.38345 11.5345 4.39673C11.5488 4.40335 11.5608 4.40842 11.5703 4.41212C11.5749 4.41394 11.5795 4.41563 11.5837 4.41708C11.5857 4.41776 11.5886 4.41872 11.5919 4.41969C11.5934 4.42014 11.5963 4.421 11.6 4.4219C11.6018 4.42233 11.6051 4.42309 11.6093 4.42384C11.6114 4.42421 11.6223 4.42624 11.6364 4.42624V4.1193ZM18.6877 4.1241C16.2887 4.12179 13.6972 4.1193 11.6364 4.1193V4.42624C13.697 4.42624 16.2883 4.42874 18.6874 4.43105L18.6877 4.1241ZM23.3468 4.12782C22.0826 4.12737 20.4363 4.12579 18.6877 4.1241L18.6874 4.43105C20.4359 4.43273 22.0823 4.43431 23.3467 4.43476L23.3468 4.12782ZM22.2899 2.59385C22.5995 2.59385 22.8255 2.81902 22.9811 3.17781C23.135 3.53247 23.1958 3.97044 23.1933 4.28004L23.5002 4.28255C23.503 3.94123 23.4376 3.45874 23.2627 3.05567C23.0897 2.65674 22.7847 2.28691 22.2899 2.28691V2.59385ZM6.51755 12.473C6.51755 12.2064 6.73364 11.9903 7.0002 11.9903L7.0002 11.6834C6.56412 11.6834 6.21061 12.0369 6.21061 12.473H6.51755ZM7.0002 12.9556C6.73364 12.9556 6.51755 12.7396 6.51755 12.473H6.21061C6.21061 12.9091 6.56412 13.2626 7.0002 13.2626V12.9556ZM17.4645 12.9556H7.0002V13.2626H17.4645V12.9556ZM14.3548 16.4358L17.573 13.2176L17.3559 13.0006L14.1377 16.2188L14.3548 16.4358ZM14.3548 17.1184C14.1663 16.9299 14.1663 16.6243 14.3548 16.4358L14.1377 16.2188C13.8294 16.5271 13.8294 17.0271 14.1377 17.3354L14.3548 17.1184ZM15.0374 17.1184C14.8489 17.3069 14.5433 17.3069 14.3548 17.1184L14.1377 17.3354C14.4461 17.6438 14.946 17.6438 15.2544 17.3354L15.0374 17.1184ZM19.3415 12.8143L15.0374 17.1184L15.2544 17.3354L19.5585 13.0313L19.3415 12.8143ZM19.4828 12.4633C19.4854 12.5947 19.4344 12.7214 19.3415 12.8143L19.5585 13.0313C19.7105 12.8794 19.7939 12.6721 19.7896 12.4572L19.4828 12.4633ZM19.3276 12.1183C19.4241 12.2074 19.4801 12.332 19.4828 12.4633L19.7896 12.4572C19.7853 12.2424 19.6937 12.0385 19.5358 11.8928L19.3276 12.1183ZM15.0235 8.14529L19.3276 12.1183L19.5358 11.8928L15.2316 7.91975L15.0235 8.14529ZM14.3414 8.17257C14.5222 7.9767 14.8276 7.96449 15.0235 8.14529L15.2316 7.91975C14.9112 7.62396 14.4117 7.64394 14.1159 7.96438L14.3414 8.17257ZM14.3687 8.8546C14.1728 8.6738 14.1606 8.36844 14.3414 8.17257L14.1159 7.96438C13.8201 8.28481 13.8401 8.78436 14.1605 9.08015L14.3687 8.8546ZM17.4773 11.7241L14.3687 8.8546L14.1605 9.08015L17.2691 11.9496L17.4773 11.7241ZM7.0002 11.9903H17.3732V11.6834H7.0002V11.9903Z" fill="#003462" mask="url(#path-1-outside-1)"/>
</svg>
