<svg width="28" height="32" viewBox="0 0 28 32" fill="none" xmlns="http://www.w3.org/2000/svg">
<path id="notes" fill-rule="evenodd" clip-rule="evenodd" d="M18.6665 1C18.6665 0.447715 18.2188 0 17.6665 0C17.1142 0 16.6665 0.447715 16.6665 1V2H12.3335V1C12.3335 0.447715 11.8858 0 11.3335 0C10.7812 0 10.3335 0.447715 10.3335 1V2H6V1C6 0.447715 5.55228 0 5 0C4.44772 0 4 0.447715 4 1V2H2C0.895431 2 0 2.89543 0 4V30C0 31.1046 0.895431 32 2 32H26C27.1046 32 28 31.1046 28 30V4C28 2.89543 27.1046 2 26 2H24V1C24 0.447715 23.5523 0 23 0C22.4477 0 22 0.447715 22 1V2H18.6665V1ZM22 5V4H18.6665V5C18.6665 5.55228 18.2188 6 17.6665 6C17.1142 6 16.6665 5.55228 16.6665 5V4H12.3335V5C12.3335 5.55228 11.8858 6 11.3335 6C10.7812 6 10.3335 5.55228 10.3335 5V4H6V5C6 5.55228 5.55228 6 5 6C4.44771 6 4 5.55228 4 5V4H2V30H26V4H24V5C24 5.55228 23.5523 6 23 6C22.4477 6 22 5.55228 22 5ZM6 10C5.44772 10 5 10.4477 5 11C5 11.5523 5.44772 12 6 12H22C22.5523 12 23 11.5523 23 11C23 10.4477 22.5523 10 22 10H6ZM5 18C5 17.4477 5.44772 17 6 17H22C22.5523 17 23 17.4477 23 18C23 18.5523 22.5523 19 22 19H6C5.44772 19 5 18.5523 5 18ZM6 24C5.44772 24 5 24.4477 5 25C5 25.5523 5.44772 26 6 26H22C22.5523 26 23 25.5523 23 25C23 24.4477 22.5523 24 22 24H6Z" fill="#003462"/>
</svg>
