<svg width="25" height="32" viewBox="0 0 25 32" fill="none" xmlns="http://www.w3.org/2000/svg">
<path id="password" fill-rule="evenodd" clip-rule="evenodd" d="M20.5126 8.20498V13.128C22.7736 13.128 24.6153 14.9669 24.6153 17.2307V27.8973C24.6153 30.1583 22.7734 32 20.5126 32H4.10268C1.84174 32 0 30.1581 0 27.8973V17.2307C0 14.9697 1.84193 13.128 4.10268 13.128V8.20498C4.10268 3.68052 7.7832 0 12.3077 0C16.8321 0 20.5126 3.68071 20.5126 8.20498ZM12.3077 1.638C8.68869 1.638 5.74368 4.58301 5.74368 8.20198V13.125H18.8717V8.20198C18.8717 4.58301 15.9266 1.638 12.3077 1.638ZM20.5128 30.3554C21.8711 30.3554 22.9743 29.2522 22.9743 27.8939V17.2273C22.9743 15.8691 21.8711 14.7658 20.5128 14.7658H4.10287C2.74465 14.7658 1.64137 15.8691 1.64137 17.2273V27.8939C1.64137 29.2522 2.74465 30.3554 4.10287 30.3554H20.5128ZM6.27472 22.5988C6.27472 23.4273 5.60315 24.0988 4.77472 24.0988C3.94629 24.0988 3.27472 23.4273 3.27472 22.5988C3.27472 21.7704 3.94629 21.0988 4.77472 21.0988C5.60315 21.0988 6.27472 21.7704 6.27472 22.5988ZM11.2747 22.5988C11.2747 23.4273 10.6031 24.0988 9.77472 24.0988C8.94629 24.0988 8.27472 23.4273 8.27472 22.5988C8.27472 21.7704 8.94629 21.0988 9.77472 21.0988C10.6031 21.0988 11.2747 21.7704 11.2747 22.5988ZM14.7747 24.0988C15.6031 24.0988 16.2747 23.4273 16.2747 22.5988C16.2747 21.7704 15.6031 21.0988 14.7747 21.0988C13.9463 21.0988 13.2747 21.7704 13.2747 22.5988C13.2747 23.4273 13.9463 24.0988 14.7747 24.0988ZM21.2747 22.5988C21.2747 23.4273 20.6031 24.0988 19.7747 24.0988C18.9463 24.0988 18.2747 23.4273 18.2747 22.5988C18.2747 21.7704 18.9463 21.0988 19.7747 21.0988C20.6031 21.0988 21.2747 21.7704 21.2747 22.5988Z" fill="currentColor"/>
</svg>
