    <svg
        width="28"
        height="20"
        viewBox="0 0 28 20"
        fill="none"
        xmlns="http://www.w3.org/2000/svg">
        <path
            d="M9.36429 6.86401V6.86391C9.36429 5.1206 7.93338 3.70486 6.17795 3.70486C4.42259 3.70486 2.9916 5.12068 2.9916 6.86391C2.9916 8.60618 4.42255 10.0219 6.17795 10.0219C7.93331 10.0219 9.36318 8.60715 9.36429 6.86401ZM4.13585 6.86383C4.13585 5.75481 5.05053 4.84919 6.17795 4.84919C7.30524 4.84919 8.21906 5.7547 8.22004 6.86397C8.21997 7.97182 7.30537 8.87742 6.17795 8.87742C5.05043 8.87742 4.13585 7.97276 4.13585 6.86383Z"
            fill="currentColor"
            stroke="currentColor"
            strokeWidth="0.3"
        />
        <path
            d="M7.4739 18.3513H7.39904H2.10395C1.41307 18.3513 0.85 17.7933 0.85 17.1047V15.7242C0.85 12.8125 3.24153 10.4469 6.17783 10.4469C7.33255 10.4469 8.4329 10.8074 9.35713 11.4893L7.4739 18.3513ZM7.4739 18.3513L7.47813 18.3457C7.7569 18.3073 7.97114 18.0683 7.97245 17.7796V17.7789C7.97245 17.4628 7.71637 17.2067 7.40028 17.2067H2.1041C2.03935 17.2067 1.99447 17.1569 1.99447 17.1045V15.724C1.99447 13.4477 3.86966 11.5913 6.17798 11.5902C7.08749 11.5902 7.95118 11.8734 8.67769 12.4093L7.4739 18.3513Z"
            fill="currentColor"
            stroke="currentColor"
            strokeWidth="0.3"
        />
        <path
            d="M21.9968 10.1281C20.7722 10.1281 19.5757 10.5503 18.6286 11.3171L18.6285 11.3172C18.3823 11.5163 18.3456 11.8767 18.544 12.1222L18.544 12.1222L18.5443 12.1226C18.7442 12.3682 19.1033 12.4055 19.3491 12.2069L19.3492 12.2068C20.0927 11.6048 21.0335 11.2724 21.9978 11.2724C24.306 11.2724 26.1813 13.1279 26.1813 15.4054V16.7859C26.1813 16.8379 26.1357 16.8881 26.0716 16.8881H20.7755C20.4594 16.8881 20.2033 17.1442 20.2033 17.4603C20.2033 17.7764 20.4594 18.0324 20.7755 18.0324H26.0617L26.0618 18.0324H26.0706C26.7615 18.0324 27.3246 17.4744 27.3246 16.7859V15.4054C27.3246 12.4936 24.933 10.1281 21.9968 10.1281Z"
            fill="currentColor"
            stroke="currentColor"
            strokeWidth="0.3"
        />
        <path
            d="M18.81 6.65591C18.81 8.39817 20.2409 9.81388 21.9963 9.81388C23.7527 9.81388 25.1826 8.39808 25.1826 6.65591C25.1826 4.9126 23.7517 3.49685 21.9963 3.49685C20.2399 3.49685 18.81 4.91271 18.81 6.65591ZM19.9542 6.65583C19.9542 5.54681 20.8689 4.64118 21.9963 4.64118C23.1247 4.64118 24.0384 5.54673 24.0384 6.65583C24.0384 7.76374 23.1238 8.66942 21.9963 8.66942C20.8688 8.66942 19.9542 7.76477 19.9542 6.65583Z"
            fill="currentColor"
            stroke="currentColor"
            strokeWidth="0.3"
        />
        <path
            d="M8.35729 19.7253H19.8167C19.8168 19.7253 19.8169 19.7253 19.8169 19.7253C20.6595 19.7252 21.3472 19.045 21.3472 18.2054V16.2634C21.3472 12.2974 18.0891 9.07375 14.087 9.07375C10.0849 9.07375 6.82681 12.2974 6.82681 16.2634V18.2054C6.82681 19.045 7.51463 19.7253 8.35729 19.7253ZM7.97124 16.2634C7.97124 12.9313 10.713 10.218 14.0871 10.218H14.0873C17.4615 10.218 20.2032 12.9313 20.2032 16.2634V18.2053C20.2032 18.409 20.0325 18.5809 19.817 18.5809H8.3574C8.14179 18.5809 7.97124 18.4098 7.97124 18.2053V16.2634Z"
            fill="currentColor"
            stroke="currentColor"
            strokeWidth="0.3"
        />
        <path
            d="M9.88882 4.865C9.88882 7.08014 11.7082 8.88001 13.9406 8.88001C16.1728 8.88001 17.9923 7.08114 17.9923 4.865C17.9923 2.64989 16.1741 0.85 13.9406 0.85C11.7072 0.85 9.88882 2.64997 9.88882 4.865ZM11.0331 4.86527C11.0331 3.2843 12.3362 1.9946 13.9406 1.9946C15.5448 1.9946 16.848 3.28438 16.848 4.86527C16.848 6.44624 15.5448 7.73595 13.9406 7.73595C12.3363 7.73595 11.0331 6.44617 11.0331 4.86527Z"
            fill="currentColor"
            stroke="currentColor"
            strokeWidth="0.3"
        />
    </svg>
