<svg width="32" height="27" viewBox="0 0 32 27" fill="none" xmlns="http://www.w3.org/2000/svg">
<g id="people">
<path id="Ellipse 68" d="M15.7594 6.10002C15.7594 8.90649 13.4565 11.2 10.5928 11.2C7.72916 11.2 5.42627 8.90649 5.42627 6.10002C5.42627 3.29356 7.72916 1 10.5928 1C13.4565 1 15.7594 3.29356 15.7594 6.10002Z" stroke="#003462" stroke-width="2"/>
<path id="Ellipse 68_2" d="M27.07 8.91025C27.07 11.085 25.2848 12.8665 23.0597 12.8665C20.8345 12.8665 19.0493 11.085 19.0493 8.91025C19.0493 6.73546 20.8345 4.95398 23.0597 4.95398C25.2848 4.95398 27.07 6.73546 27.07 8.91025Z" stroke="#003462" stroke-width="2"/>
<path id="Ellipse 69" d="M21.4912 24.8101C21.4503 25.1268 21.159 25.4217 20.6893 25.4217H11.4045H1.875C1.39777 25.4217 1.10556 25.1168 1.07192 24.7951C0.903609 23.1851 0.936882 20.6548 2.22964 18.558C3.47012 16.546 6.01991 14.7002 11.4045 14.7002C16.8103 14.7002 19.3072 16.5594 20.491 18.5685C21.7295 20.6703 21.6981 23.2069 21.4912 24.8101Z" stroke="#003462" stroke-width="2"/>
<path id="Subtract" fill-rule="evenodd" clip-rule="evenodd" d="M20.6914 26.4217C21.5861 26.4208 22.3685 25.8255 22.4831 24.938C22.504 24.776 22.5234 24.6034 22.5403 24.4217H29.9803C30.0542 23.3518 29.9425 22.051 29.2982 21.0022C28.6431 19.9356 27.1238 18.6359 23.1307 18.6359C22.6122 18.6359 22.1332 18.6581 21.6906 18.6991C21.3838 18.0508 20.9824 17.4223 20.4619 16.8424C21.2568 16.7089 22.143 16.6359 23.1307 16.6359C32.0733 16.6359 32.2536 22.6229 31.9079 25.2311C31.8132 25.9451 31.1802 26.4217 30.4599 26.4217H20.6914Z" fill="#003462"/>
</g>
</svg>
