    <svg
        width="16"
        height="16"
        viewBox="0 0 16 16"
        fill="none"
        xmlns="http://www.w3.org/2000/svg">
        <path
            d="M8 0C5.8784 0 3.84373 0.843058 2.34311 2.34311C0.843111 3.8438 0 5.87858 0 8C0 10.1214 0.843058 12.1563 2.34311 13.6569C3.8438 15.1569 5.87858 16 8 16C10.1214 16 12.1563 15.1569 13.6569 13.6569C15.1569 12.1562 16 10.1214 16 8C16 5.87858 15.1569 3.84373 13.6569 2.34311C12.1562 0.843111 10.1214 0 8 0ZM3.59093 13.4327C4.72635 12.2015 6.32427 11.5008 7.99929 11.5008C9.6736 11.5008 11.2722 12.2015 12.4069 13.4327C11.1618 14.4466 9.6048 15.0008 7.99929 15.0008C6.39303 15.0008 4.83609 14.4466 3.59093 13.4327ZM13.1374 12.7487C11.8138 11.3153 9.95129 10.5007 8.00053 10.5007C6.04978 10.5007 4.18809 11.3153 2.86364 12.7487C1.62336 11.4091 0.955378 9.63756 1.00178 7.8125C1.049 5.98743 1.80663 4.25285 3.11431 2.97854C4.42126 1.70423 6.17476 0.990987 8.00036 0.990987C9.82613 0.990987 11.5796 1.70418 12.8871 2.97854C14.1948 4.25285 14.9524 5.98761 14.9989 7.8125C15.0462 9.63756 14.3781 11.4089 13.1371 12.7487H13.1374Z"
            fill="currentColor"
        />
        <path
            d="M8.00024 3.00098C7.07176 3.00098 6.18158 3.36972 5.52451 4.02667C4.86826 4.68291 4.49951 5.57388 4.49951 6.5024C4.50021 7.43088 4.86895 8.32107 5.52589 8.97742C6.18214 9.63367 7.07311 10.0024 8.00163 10.0024C8.93011 10.0017 9.8203 9.63228 10.4767 8.97604C11.1329 8.31909 11.501 7.42812 11.501 6.49959C11.5003 5.5718 11.1315 4.68146 10.4746 4.02599C9.81833 3.36974 8.92805 3.00099 8.00026 3.00099L8.00024 3.00098ZM8.00024 9.00098C6.98913 9.00098 6.07811 8.39264 5.69126 7.45861C5.30442 6.52459 5.51765 5.44955 6.23224 4.73506C6.94682 4.01979 8.02176 3.80588 8.9558 4.192C9.88985 4.57811 10.4989 5.48923 10.4996 6.49955C10.4989 7.88011 9.3808 8.99893 8.00017 9.00089L8.00024 9.00098Z"
            fill="currentColor"
        />
    </svg>
