<svg width="24" height="24" viewBox="0 0 24 24" fill="none" xmlns="http://www.w3.org/2000/svg">
<path d="M20.4236 14.7638C19.2507 13.7617 17.9601 13.7252 16.8841 14.6638C16.156 15.295 15.7914 15.6086 15.0591 16.2356V16.2346C14.9602 16.3096 14.8227 16.2992 14.7362 16.2106C13.5872 15.219 8.78206 10.4138 7.78926 9.26369C7.70072 9.17723 7.6903 9.03869 7.76426 8.94079C8.39031 8.20953 8.70487 7.8439 9.33405 7.11787C10.2736 6.04078 10.2372 4.75016 9.23509 3.57627H9.23613C8.53197 2.73877 7.78509 1.93773 6.99655 1.17834C5.45594 -0.333132 3.82561 -0.392492 2.40374 1.01167C1.62979 1.82106 0.994353 2.75333 0.525605 3.77008C-1.86189 8.85329 4.53815 15.2544 6.64135 17.3586C8.42261 19.1389 13.284 24.0003 17.8184 24.0003C18.6518 24.0065 19.4747 23.8273 20.2299 23.4752C21.2466 23.0055 22.1789 22.37 22.9883 21.5961C24.3925 20.1752 24.3331 18.5441 22.8217 17.0033H22.8206C22.0612 16.2147 21.2612 15.4678 20.4237 14.7637L20.4236 14.7638ZM22.0403 20.6595V20.6585C21.3403 21.321 20.5372 21.8647 19.6632 22.2679C16.8517 23.5887 12.7882 21.6189 7.58395 16.4159C2.38074 11.2116 0.411933 7.1481 1.73194 4.33663C2.13506 3.46268 2.67882 2.65953 3.34133 1.95953C3.64757 1.59806 4.08717 1.37307 4.56008 1.33766C4.97987 1.33766 5.47259 1.55016 6.0632 2.13038C6.82363 2.86163 7.54446 3.6335 8.22259 4.44185C8.95801 5.30228 8.66635 5.8554 8.32884 6.2429C7.69551 6.97311 7.38092 7.33978 6.75175 8.07415C6.24759 8.67208 6.25903 9.55021 6.77987 10.1346C7.82363 11.344 12.657 16.1773 13.8652 17.2199C14.4496 17.7408 15.3277 17.7533 15.9257 17.2481C16.66 16.6199 17.0267 16.3043 17.758 15.6699C18.1434 15.3345 18.6965 15.0418 19.5569 15.7772H19.558C20.3663 16.4554 21.1371 17.1762 21.8694 17.9366C23.1257 19.2158 22.66 20.0304 22.0403 20.6585L22.0403 20.6595Z" fill="#003462"/>
</svg>
