    <svg
        width="16"
        height="16"
        viewBox="0 0 16 16"
        fill="currentColor"
        xmlns="http://www.w3.org/2000/svg">
        <path
            d="M8 0C7.52197 0 7.13514 0.386832 7.13514 0.864865V7.13514H0.864865C0.386832 7.13514 0 7.52197 0 8C0 8.47803 0.386832 8.86487 0.864865 8.86487H7.13514V15.1351C7.13514 15.6132 7.52197 16 8 16C8.47803 16 8.86487 15.6132 8.86487 15.1351V8.86487H15.1351C15.6132 8.86487 16 8.47803 16 8C16 7.52197 15.6132 7.13514 15.1351 7.13514H8.86487V0.864865C8.86487 0.386832 8.47803 0 8 0Z"
            fill="currentColor"
        />
    </svg>
