<svg width="32" height="32" viewBox="0 0 32 32" fill="none" xmlns="http://www.w3.org/2000/svg">
<path id="pray" d="M31.0939 22.8125C29.4051 22.8843 27.6452 21.8183 26.1526 21.1321C24.4205 20.3392 24.0594 20.0066 23.3097 18.1126H23.3079C22.0548 14.9408 21.0394 11.6782 20.274 8.35232C19.8748 6.62288 19.5589 4.87946 19.2795 3.12735C19.1337 2.20487 19.0521 1.06183 18.2711 0.438684H18.2694C17.9691 0.142859 17.5612 -0.0146701 17.1412 0.00107655C16.7212 0.0168303 16.3255 0.205876 16.0478 0.52447C15.4489 -0.117942 14.4492 -0.154686 13.8053 0.438698C13.0225 1.0881 12.9514 2.23114 12.8004 3.12736C12.5071 4.87957 12.1998 6.62299 11.8006 8.35233C11.0214 11.6799 9.99212 14.9427 8.72162 18.1126C8.00653 19.9051 7.57611 20.3532 5.87867 21.1321C4.37734 21.8183 2.61218 22.8843 0.933793 22.8126H0.932057C0.41833 22.8161 0.00173286 23.2362 0 23.7543C0.111081 25.8426 0.222162 27.9343 0.256872 30.0279C0.269021 30.5425 0.680365 30.9573 1.19066 30.9696C4.38943 31.0554 7.58803 31.0764 10.7836 31.0326V31.0309C11.2661 31.0326 11.6601 30.644 11.6722 30.1574C13.0052 28.9199 15.0272 28.8131 16.0096 27.2499C17.0805 28.8411 19.2761 28.4683 20.3331 30.0279H20.3314C20.3018 30.2834 20.3817 30.5407 20.5518 30.7315C20.7219 30.9241 20.9649 31.0344 21.22 31.0309C24.4188 31.0764 27.616 31.0554 30.8076 30.9678L30.8093 30.9696C31.3196 30.9573 31.7309 30.5425 31.7414 30.0278C31.7761 27.9343 31.8924 25.8426 31.9983 23.7543H32C31.9983 23.2467 31.5973 22.8301 31.094 22.8125L31.0939 22.8125ZM2.11561 29.0861C2.07569 27.5982 2.00453 26.1156 1.92469 24.605C3.3427 24.4124 4.71908 23.7088 6.02081 23.1031C6.09198 25.3174 6.53632 27.6873 8.06541 29.1212C6.0816 29.1632 4.09601 29.1492 2.1137 29.1002L2.11561 29.0861ZM14.7162 25.5012C14.2458 27.0294 12.1665 27.5125 10.7745 28.512C7.98365 27.8451 7.86386 24.6138 7.8951 22.2384C9.15689 21.5172 9.69496 20.7471 10.4013 18.9984V19.0001C11.4775 16.3429 12.3834 13.621 13.1159 10.8485C13.4977 9.39741 13.831 7.93406 14.1156 6.46192C14.2354 5.84402 14.3551 2.57246 14.8359 2.26788C14.8359 2.26788 15.0633 5.90703 15.0633 6.24311V11.0289C15.0633 13.8961 15.0511 16.7652 15.0286 19.6322C14.9956 21.4509 15.2577 23.7317 14.7144 25.498L14.7162 25.5012ZM18.5693 26.814C16.6549 25.9178 17.0801 22.8616 17.0454 20.9886C16.9968 18.3857 16.9968 15.7811 16.9881 13.1816C16.9881 12.2504 16.9569 11.2947 16.9222 10.3319V6.21837C16.9222 5.46568 16.9708 4.64125 16.976 3.82555C16.976 3.61025 17.0107 3.37744 17.0385 3.17615C17.1356 2.44972 17.0072 2.02087 17.363 2.79981C17.6199 3.37747 17.6303 4.59225 17.7414 5.22942C17.9983 6.70854 18.3107 8.17714 18.6647 9.63874H18.6613C19.3746 12.5567 20.2806 15.4239 21.3706 18.2192C22.1083 20.1009 22.5838 21.3332 24.1789 22.2522C24.2101 24.5557 24.0851 27.6295 21.5129 28.4312C20.718 27.5629 19.7894 27.3791 18.5676 26.8103L18.5693 26.814ZM23.9776 29.1614C25.5067 27.7313 25.9545 25.3664 26.0257 23.1576C27.3326 23.7983 28.6916 24.4617 30.1183 24.6489C30.0384 26.1316 29.9725 27.6159 29.9308 29.1038C27.9435 29.1493 25.9614 29.1633 23.9742 29.1581L23.9776 29.1614Z" fill="#003462"/>
</svg>
