<svg width="33" height="32" viewBox="0 0 33 32" fill="none" xmlns="http://www.w3.org/2000/svg">
<g id="profile">
<path id="Vector" d="M16.0186 0C11.7754 0 7.70602 1.68612 4.70478 4.68622C1.70478 7.68761 0.0185547 11.7572 0.0185547 16C0.0185547 20.2428 1.70467 24.3125 4.70478 27.3138C7.70616 30.3138 11.7757 32 16.0186 32C20.2614 32 24.3311 30.3139 27.3323 27.3138C30.3323 24.3124 32.0186 20.2428 32.0186 16C32.0186 11.7572 30.3324 7.68747 27.3323 4.68622C24.3309 1.68622 20.2614 0 16.0186 0ZM7.20042 26.8654C9.47125 24.4029 12.6671 23.0016 16.0171 23.0016C19.3658 23.0016 22.5629 24.403 24.8324 26.8654C22.3421 28.8932 19.2282 30.0015 16.0171 30.0015C12.8046 30.0015 9.69073 28.8932 7.20042 26.8654ZM26.2934 25.4974C23.6462 22.6307 19.9211 21.0014 16.0196 21.0014C12.1181 21.0014 8.39473 22.6305 5.74584 25.4974C3.26527 22.8182 1.92931 19.2751 2.02211 15.625C2.11655 11.9749 3.63182 8.50571 6.24718 5.95708C8.86108 3.40846 12.3681 1.98197 16.0193 1.98197C19.6708 1.98197 23.1777 3.40836 25.7928 5.95708C28.4081 8.50571 29.9233 11.9752 30.0164 15.625C30.1109 19.2751 28.7748 22.8179 26.2927 25.4974H26.2934Z" fill="currentColor"/>
<path id="Vector_2" d="M16.0186 6.00171C14.1616 6.00171 12.3812 6.7392 11.0671 8.05309C9.75458 9.36559 9.01709 11.1475 9.01709 13.0046C9.01848 14.8615 9.75597 16.6419 11.0699 17.9546C12.3824 19.2671 14.1643 20.0046 16.0213 20.0046C17.8783 20.0032 19.6587 19.2643 20.9714 17.9518C22.2839 16.6379 23.02 14.856 23.02 12.9989C23.0186 11.1434 22.2811 9.36267 20.9672 8.05174C19.6547 6.73924 17.8742 6.00174 16.0186 6.00174L16.0186 6.00171ZM16.0186 18.0017C13.9963 18.0017 12.1743 16.785 11.4006 14.917C10.6269 13.0489 11.0534 10.8988 12.4826 9.46987C13.9117 8.03933 16.0616 7.61152 17.9297 8.38375C19.7978 9.15599 21.0158 10.9782 21.0172 12.9989C21.0158 15.76 18.7797 17.9976 16.0184 18.0015L16.0186 18.0017Z" fill="currentColor"/>
</g>
</svg>
