<svg width="32" height="29" viewBox="0 0 32 29" fill="none" xmlns="http://www.w3.org/2000/svg">
<path id="public" fill-rule="evenodd" clip-rule="evenodd" d="M17.2853 4.40418C17.2853 4.95646 16.8376 5.40418 16.2853 5.40418C15.733 5.40418 15.2853 4.95646 15.2853 4.40418V1C15.2853 0.447715 15.733 0 16.2853 0C16.8376 0 17.2853 0.447715 17.2853 1V4.40418ZM26.0422 7.1036C25.6516 7.49412 25.6516 8.12729 26.0422 8.51781C26.4327 8.90833 27.0658 8.90833 27.4564 8.51781L29.8635 6.11069C30.254 5.72017 30.254 5.087 29.8635 4.69648C29.473 4.30596 28.8398 4.30596 28.4493 4.69648L26.0422 7.1036ZM16 28.0173C12.4123 28.0173 8.59283 26.2946 4.90605 23.0565C2.17338 20.6097 0.494032 18.2328 0.428191 18.1291C0.170421 17.7556 0.17042 17.2617 0.428191 16.8882C0.493775 16.7846 2.17325 14.4077 4.90605 11.996C8.59283 8.72274 12.4123 7 16 7C19.5876 7 23.4071 8.72274 27.0939 11.9608C29.8265 14.3726 31.5046 16.7845 31.5717 16.8882C31.8295 17.2617 31.8295 17.7556 31.5717 18.1291C31.5061 18.2328 29.8267 20.6096 27.0939 23.0214C23.4071 26.2946 19.5876 28.0173 16 28.0173ZM2.96379 16.9018C2.66779 17.2556 2.66524 17.7637 2.9595 18.1189C5.00637 20.5897 10.1583 25.95 16 25.95C21.398 25.95 26.1851 21.3704 28.512 18.7261C29.1264 18.0278 29.1265 16.9894 28.5121 16.2911C26.1853 13.6467 21.3982 9.06715 16 9.06715C10.1568 9.06715 5.02984 14.4327 2.96379 16.9018ZM16 21C17.6568 21 19 19.6569 19 18C19 16.3431 17.6568 15 16 15C14.3431 15 13 16.3431 13 18C13 19.6569 14.3431 21 16 21ZM16 23C18.7614 23 21 20.7614 21 18C21 15.2386 18.7614 13 16 13C13.2385 13 11 15.2386 11 18C11 20.7614 13.2385 23 16 23ZM5.52839 8.51781C5.91891 8.12729 5.91891 7.49412 5.52839 7.1036L3.12127 4.69648C2.73075 4.30596 2.09758 4.30596 1.70706 4.69648C1.31653 5.087 1.31653 5.72017 1.70706 6.11069L4.11417 8.51781C4.5047 8.90833 5.13786 8.90833 5.52839 8.51781Z" fill="#003462"/>
</svg>
