<svg width="29" height="30" viewBox="0 0 29 30" fill="none" xmlns="http://www.w3.org/2000/svg">
<path id="refund" fill-rule="evenodd" clip-rule="evenodd" d="M23.0776 6.29928L24.4782 6.71952C23.0064 4.84535 21.0282 3.4171 18.7648 2.61309C16.0612 1.65267 13.1113 1.64006 10.3996 2.57732C7.68782 3.51458 5.37532 5.34602 3.84175 7.77094C2.30818 10.1959 1.64468 13.0702 1.96018 15.9219C2.27568 18.7737 3.55143 21.4334 5.57798 23.4645C7.60453 25.4955 10.2614 26.7772 13.1125 27.099C15.9636 27.4209 18.8393 26.7637 21.2676 25.2356C23.4295 23.8751 25.1223 21.8962 26.1334 19.5664C26.3404 19.0893 26.874 18.8279 27.3652 18.9989C27.8564 19.1699 28.1188 19.7082 27.9164 20.1872C26.7617 22.92 24.7944 25.2415 22.2708 26.8296C19.4809 28.5854 16.1769 29.3404 12.9012 28.9706C9.62561 28.6008 6.57304 27.1283 4.2447 24.7948C1.91636 22.4613 0.450625 19.4055 0.0881433 16.129C-0.274341 12.8526 0.487969 9.55027 2.24992 6.76423C4.01186 3.9782 6.66873 1.87403 9.78431 0.79719C12.8999 -0.279647 16.289 -0.265157 19.3953 0.838284C22.0954 1.79745 24.4423 3.52987 26.1514 5.8062L26.6667 4.50249C26.8697 3.98887 27.4507 3.73707 27.9643 3.94008C28.4779 4.14309 28.7297 4.72403 28.5267 5.23765L27.1737 8.66088C26.9827 9.14393 26.4538 9.40039 25.9563 9.25111L22.5028 8.2149C21.9738 8.05618 21.6737 7.49868 21.8324 6.9697C21.9911 6.44071 22.5486 6.14056 23.0776 6.29928ZM14.8922 14.1278C16.821 15.08 18.0964 15.7096 18.0964 17.8396C18.0964 19.6079 16.9236 20.8737 15.0967 21.2223V22.2914C15.0967 22.6826 14.7793 23 14.3882 23C13.997 23 13.6796 22.6826 13.6796 22.2914L13.6783 21.3033C11.4682 21.1646 10 19.8179 10 17.8402C10 17.4491 10.3174 17.1317 10.7086 17.1317C11.0997 17.1317 11.4171 17.4491 11.4171 17.8402C11.4171 19.7647 13.4313 19.9141 14.0482 19.9141C14.6651 19.9141 16.6793 19.7646 16.6793 17.8402C16.6793 16.6397 16.1786 16.3435 14.2641 15.3985L13.2036 14.8726L13.2017 14.8716C11.2743 13.9205 10.0008 13.2921 10.0008 11.1605C10.0008 9.16958 11.4684 7.81356 13.6777 7.67411V6.70856C13.6777 6.31742 13.9952 6 14.3863 6C14.7781 6 15.0948 6.31742 15.0948 6.70856L15.0955 7.75712C16.8945 8.1131 18.0493 9.38555 18.0493 11.1605C18.0493 11.5523 17.7325 11.8691 17.3407 11.8691C16.9502 11.8691 16.6321 11.5523 16.6321 11.1605C16.6321 9.21414 14.6539 9.0634 14.0483 9.0634C12.7766 9.0634 11.4172 9.61391 11.4172 11.1605C11.4172 12.3624 11.9172 12.6586 13.8311 13.6022L14.8916 14.1275L14.8922 14.1278Z" fill="#003462"/>
</svg>
