<svg width="26" height="34" viewBox="0 0 26 34" fill="none" xmlns="http://www.w3.org/2000/svg">
<path id="report" fill-rule="evenodd" clip-rule="evenodd" d="M5.84431 6.36942C5.46841 5.84788 5.36613 5.17744 5.56943 4.56754L5.75861 4H2L2 32H23.6L23.6 4H20.375L20.5642 4.56755C20.7675 5.17744 20.6652 5.84788 20.2893 6.36942C19.9134 6.89096 19.3097 7.2 18.6668 7.2H7.4668C6.82391 7.2 6.22021 6.89096 5.84431 6.36942ZM19.7083 2H23.6C24.7046 2 25.6 2.89543 25.6 4V32C25.6 33.1046 24.7046 34 23.6 34H2C0.895432 34 0 33.1046 0 32V4C0 2.89543 0.89543 2 2 2H6.42528L6.6361 1.36754C6.90832 0.55086 7.6726 0 8.53346 0H17.6001C18.461 0 19.2253 0.550861 19.4975 1.36755L19.7083 2ZM7.4668 5.2H9.57498H16.5586H18.6668L18.0001 3.2L17.6001 2H8.53346L8.13346 3.2L7.4668 5.2ZM20.1698 9.78963C20.5806 9.73605 20.957 10.0256 21.0105 10.4363L21.8836 17.1296C21.9371 17.5404 21.6476 17.9168 21.2369 17.9703C20.8261 18.0239 20.4497 17.7344 20.3962 17.3236L19.7573 12.4258L15.528 17.9239C15.4063 18.0822 15.2265 18.1853 15.0285 18.2106C14.8305 18.2359 14.6306 18.1812 14.473 18.0587L10.1957 14.7318L5.86383 19.0637C5.57093 19.3565 5.09606 19.3565 4.80317 19.0637C4.51027 18.7708 4.51027 18.2959 4.80317 18.003L9.60317 13.203C9.87062 12.9355 10.2954 12.9091 10.594 13.1413L14.7988 16.4117L18.5684 11.5112L13.6705 12.1501C13.2598 12.2036 12.8834 11.9141 12.8298 11.5034C12.7763 11.0926 13.0658 10.7162 13.4765 10.6627L20.1698 9.78963ZM3.7998 23.3333C3.7998 22.781 4.24752 22.3333 4.7998 22.3333H20.2665C20.8188 22.3333 21.2665 22.781 21.2665 23.3333C21.2665 23.8855 20.8188 24.3333 20.2665 24.3333H4.7998C4.24752 24.3333 3.7998 23.8855 3.7998 23.3333ZM4.7998 26.6001C4.24752 26.6001 3.7998 27.0478 3.7998 27.6001C3.7998 28.1524 4.24752 28.6001 4.7998 28.6001H14.9331C15.4854 28.6001 15.9331 28.1524 15.9331 27.6001C15.9331 27.0478 15.4854 26.6001 14.9331 26.6001H4.7998Z" fill="#003462"/>
</svg>
