<svg width="25" height="32" viewBox="0 0 25 32" fill="none" xmlns="http://www.w3.org/2000/svg">
<path id="saved" d="M1.03811 31.9952C0.458037 31.9427 0.0156475 31.4698 0.0185691 30.9045V2.54508C0.0185691 1.15466 1.2095 0 2.64355 0H21.3936C22.8276 0 24.0186 1.15466 24.0186 2.54508V30.9045C24.02 31.3121 23.7871 31.6856 23.415 31.8745C23.043 32.0634 22.5933 32.035 22.249 31.8021L12.0186 24.9624L1.78828 31.8021C1.57002 31.9512 1.30338 32.0194 1.03828 31.9952H1.03811ZM2.26857 28.8252L11.3739 22.7352C11.7606 22.4725 12.2763 22.4725 12.663 22.7352L21.7684 28.8252V2.54515C21.7684 2.32501 21.6204 2.18156 21.3934 2.18156H2.64339C2.41631 2.18156 2.26836 2.32501 2.26836 2.54515L2.26857 28.8252Z" fill="#003462"/>
</svg>
