<svg width="16" height="16" viewBox="0 0 16 16" fill="none" xmlns="http://www.w3.org/2000/svg">
<path d="M6.47241 1C3.45693 1 1 3.53153 1 6.63858C1 9.74564 3.45693 12.2772 6.47241 12.2772C7.7764 12.2772 8.97425 11.8025 9.91626 11.0133L13.6196 14.8291C13.8407 15.057 14.2004 15.057 14.4216 14.8291C14.6427 14.6013 14.6427 14.2367 14.4216 14.0088L10.7183 10.1931C11.4856 9.22241 11.9448 7.98371 11.9448 6.63862C11.9448 3.53157 9.4879 1.00004 6.47241 1.00004V1ZM6.47241 2.1666C8.87613 2.1666 10.8126 4.16188 10.8126 6.63858C10.8126 9.11528 8.87613 11.1106 6.47241 11.1106C4.0687 11.1106 2.13222 9.11528 2.13222 6.63858C2.13222 4.16188 4.0687 2.1666 6.47241 2.1666Z" fill="#003462"/>
</svg>
