    <svg
        width="19"
        height="16"
        viewBox="0 0 19 16"
        fill="currentColor"
        xmlns="http://www.w3.org/2000/svg">
        <g clipPath="url(#clip0)">
            <path
                d="M6.39896 0C2.95269 0 0.144775 2.89318 0.144775 6.44409C0.144775 9.99501 2.95269 12.8882 6.39896 12.8882C7.88923 12.8882 9.25821 12.3457 10.3348 11.4438L14.5672 15.8047C14.8199 16.0651 15.231 16.0651 15.4837 15.8047C15.7364 15.5443 15.7364 15.1276 15.4837 14.8672L11.2514 10.5064C12.1283 9.39704 12.6532 7.98139 12.6532 6.44414C12.6532 2.89322 9.84524 4.45024e-05 6.39896 4.45024e-05V0ZM6.39896 1.33326C9.14606 1.33326 11.3592 3.61358 11.3592 6.44409C11.3592 9.27461 9.14606 11.5549 6.39896 11.5549C3.65187 11.5549 1.43875 9.27461 1.43875 6.44409C1.43875 3.61358 3.65187 1.33326 6.39896 1.33326Z"
                fill="currentColor"
            />
        </g>
        <defs>
            <clipPath id="clip0">
                <rect
                    width="18.5158"
                    height="16"
                    fill="white"
                    transform="translate(0.144775)"
                />
            </clipPath>
        </defs>
    </svg>
