<svg width="32" height="32" viewBox="0 0 32 32" fill="none" xmlns="http://www.w3.org/2000/svg">
<path id="search" d="M12.5269 0C5.63439 0 0.0185547 5.78635 0.0185547 12.8882C0.0185547 19.99 5.63439 25.7764 12.5269 25.7764C15.5075 25.7764 18.2454 24.6914 20.3986 22.8876L28.8633 31.6094C29.3688 32.1302 30.191 32.1302 30.6964 31.6094C31.2019 31.0886 31.2019 30.2553 30.6964 29.7345L22.2317 21.0127C23.9856 18.7941 25.0353 15.9628 25.0353 12.8883C25.0353 5.78644 19.4195 8.90048e-05 12.5269 8.90048e-05V0ZM12.5269 2.66652C18.0211 2.66652 22.4474 7.22716 22.4474 12.8882C22.4474 18.5492 18.0211 23.1099 12.5269 23.1099C7.03273 23.1099 2.60649 18.5492 2.60649 12.8882C2.60649 7.22716 7.03273 2.66652 12.5269 2.66652Z" fill="#003462"/>
</svg>
