<svg width="32" height="32" viewBox="0 0 32 32" fill="none" xmlns="http://www.w3.org/2000/svg">
<g id="settings">
<path id="Vector" d="M31.445 13.2386L28.7016 12.8681C28.3881 11.5932 27.8811 10.3767 27.1926 9.23972L28.8741 7.03178C29.0676 6.77679 29.0436 6.41678 28.8171 6.19181L25.8082 3.1829C25.5817 2.95491 25.2217 2.93241 24.9682 3.1259L22.7603 4.80735C21.6248 4.11736 20.4083 3.61188 19.1319 3.29839L18.7614 0.55498C18.7194 0.236991 18.4479 0 18.1269 0H13.8716C13.5521 0 13.2806 0.236994 13.2371 0.55498L12.8666 3.29839C11.5902 3.61188 10.3737 4.11886 9.23822 4.80735L7.03178 3.1259C6.77679 2.93241 6.41678 2.95491 6.1918 3.1829L3.1829 6.19181C2.95641 6.4183 2.93241 6.77677 3.1259 7.03178L4.80735 9.23972C4.11886 10.3752 3.61188 11.5932 3.29839 12.8681L0.55498 13.2386C0.236991 13.2806 0 13.5521 0 13.8731V18.1284C0 18.4479 0.236994 18.7194 0.55498 18.7629L3.29839 19.1334C3.61188 20.4098 4.11886 21.6263 4.80735 22.7618L3.1259 24.9697C2.93241 25.2247 2.95641 25.5832 3.1829 25.8097L6.1918 28.8186C6.4183 29.0466 6.77827 29.0691 7.03178 28.8756L9.23972 27.1941C10.3752 27.8826 11.5917 28.3896 12.8681 28.7031L13.2386 31.4465C13.2806 31.763 13.5521 32 13.8731 32H18.1284C18.4479 32 18.7194 31.763 18.7629 31.445L19.1334 28.7016C20.4083 28.3881 21.6263 27.8811 22.7618 27.1926L24.9697 28.8741C25.2232 29.0676 25.5832 29.0451 25.8097 28.8171L28.8186 25.8082C29.0451 25.5817 29.0691 25.2232 28.8756 24.9682L27.1941 22.7618C27.8841 21.6248 28.3896 20.4083 28.7031 19.1334L31.4465 18.7629C31.763 18.7194 32 18.4479 32 18.1269V13.8716C32 13.5521 31.763 13.2806 31.445 13.2386ZM30.7191 17.5673L28.0896 17.9228C27.8211 17.9588 27.6036 18.1613 27.5496 18.4253C27.2512 19.8517 26.6887 21.2047 25.8787 22.4437C25.7302 22.6702 25.7407 22.9657 25.9042 23.1817L27.5166 25.2967L25.2997 27.5166L23.1833 25.9056C22.9688 25.7406 22.6718 25.7316 22.4453 25.8801C21.2063 26.6901 19.8548 27.2526 18.4268 27.5511C18.1613 27.6066 17.9604 27.8226 17.9243 28.0911L17.5673 30.719H14.4309L14.0754 28.0896C14.0394 27.8211 13.8369 27.6036 13.5729 27.5496C12.145 27.2511 10.7935 26.6886 9.5545 25.8786C9.3295 25.7301 9.031 25.7406 8.81651 25.9041L6.70007 27.5166L4.48315 25.2997L6.0941 23.1832C6.2576 22.9672 6.26809 22.6717 6.1196 22.4452C5.30961 21.2063 4.74715 19.8548 4.44863 18.4268C4.39313 18.1613 4.17714 17.9603 3.90867 17.9243L1.28072 17.5673V14.4309L3.91016 14.0754C4.17866 14.0394 4.39614 13.8369 4.45013 13.5729C4.74862 12.1449 5.31111 10.7935 6.1211 9.55292C6.26959 9.32643 6.25909 9.03093 6.0956 8.81493L4.48315 6.7L6.70007 4.48307L8.81501 6.09552C9.031 6.26052 9.32648 6.26951 9.5545 6.12102C10.792 5.31103 12.1449 4.74857 13.5729 4.45005C13.8384 4.39455 14.0394 4.17856 14.0754 3.91009L14.4324 1.28064H17.5688L17.9243 3.91009C17.9603 4.17858 18.1628 4.39606 18.4268 4.45005C19.8548 4.74854 21.2063 5.31103 22.4453 6.12102C22.6718 6.26952 22.9688 6.25901 23.1833 6.09552L25.2997 4.48307L27.5166 6.7L25.9042 8.81493C25.7407 9.03093 25.7302 9.3264 25.8787 9.55292C26.6887 10.7934 27.2511 12.1463 27.5496 13.5729C27.6051 13.8384 27.8211 14.0394 28.0896 14.0754L30.7191 14.4324V17.5673Z" fill="#003462"/>
<circle id="Ellipse 18" cx="16.0002" cy="15.9999" r="5.91667" stroke="#003462" stroke-width="1.5"/>
</g>
</svg>
