<svg width="16" height="16" viewBox="0 0 16 16" fill="none" xmlns="http://www.w3.org/2000/svg">
<path d="M15.8234 3.95828L12.0427 0.176582C11.8072 -0.0588606 11.395 -0.0588606 11.1595 0.176582L7.31931 4.0168L2.29014 5.68931C1.97362 5.79482 1.73916 6.06348 1.67761 6.38978L0.0129228 15.1061C-0.0329922 15.3513 0.0451625 15.6024 0.220032 15.7792C0.363642 15.9228 0.554134 16 0.753435 16C0.79935 16 0.847221 15.9951 0.895092 15.9853L9.61142 14.3226C9.93772 14.2601 10.2064 14.0246 10.3119 13.7101L11.9844 8.67991L13.9178 6.74752C13.9246 6.74068 13.9285 6.73677 13.9334 6.73189C13.9383 6.727 13.9432 6.72212 13.948 6.71626L15.8247 4.84152C16.066 4.59826 16.066 4.20162 15.8238 3.95838L15.8234 3.95828ZM9.48019 13.4326C9.4753 13.4483 9.4626 13.46 9.44697 13.4629L1.6725 14.9469L5.36341 11.256C5.53535 11.084 5.53535 10.8076 5.36341 10.6366C5.19343 10.4647 4.91597 10.4647 4.74403 10.6366L1.05412 14.3275L2.53711 6.55404C2.54004 6.53841 2.55176 6.52571 2.56544 6.52082L7.43655 4.90105L11.0999 8.5637L9.48019 13.4326ZM11.6001 7.825L8.17409 4.39894L9.57697 2.99508L13.003 6.42114L11.6001 7.825ZM13.6224 5.80275L10.1963 2.3767L11.6002 0.974786L15.0263 4.39984L13.6224 5.80275Z" fill="#003462"/>
</svg>
