<svg width="32" height="26" viewBox="0 0 32 26" fill="none" xmlns="http://www.w3.org/2000/svg">
<path fill-rule="evenodd" clip-rule="evenodd" d="M1.10421 8.52562L1.10421 5.41551H6.06402V8.52562H1.10421ZM6.06402 9.35379H1.10421L1.10421 12.4639H6.06402V9.35379ZM6.89219 12.4639V9.35379H10.9871V12.4639H6.89219ZM11.8152 12.4639V9.35379H15.9097V12.4639H11.8152ZM15.9097 13.2921H11.8152V16.403H15.9097V13.2921ZM16.7379 16.403V13.2921H20.8332V16.403H16.7379ZM21.6613 16.403V13.2921H25.7558V16.403H21.6613ZM25.7558 17.2311H21.6613V20.3412H25.7558V17.2311ZM26.584 20.3412V17.2311H30.8958L30.8958 20.3412H26.584ZM25.7558 21.1694H21.6613V24.0035L25.7558 24.0035V21.1694ZM26.584 24.0035V21.1694H30.8958V22.8993C30.8958 23.5091 30.4014 24.0035 29.7916 24.0035H26.584ZM26.188 25.1077H29.7916C31.0113 25.1077 32 24.1189 32 22.8993L32 2.20843C32 0.988748 31.0112 0 29.7916 0H2.20843C0.988747 0 0 0.988752 0 2.20843V22.8993C0 24.1189 0.988748 25.1077 2.20843 25.1077H11.383L11.3898 25.1079L11.4012 25.1081C11.4072 25.1081 11.4133 25.108 11.4193 25.1077H16.3057C16.3117 25.108 16.3177 25.1081 16.3238 25.1081C16.3299 25.1081 16.3359 25.108 16.3419 25.1077H21.2291C21.2351 25.108 21.2412 25.1081 21.2472 25.1081C21.2533 25.1081 21.2594 25.108 21.2654 25.1077L26.1518 25.1077C26.1578 25.108 26.1638 25.1081 26.1699 25.1081C26.176 25.1081 26.182 25.108 26.188 25.1077ZM26.584 16.403V13.2921H30.8958V16.403H26.584ZM26.584 12.4639H30.8958V9.35379H26.584V12.4639ZM26.584 8.52562H30.8958V5.41551H26.584V8.52562ZM25.7558 5.41551V8.52562H21.6613V5.41551H25.7558ZM25.7558 9.35379V12.4639H21.6613V9.35379H25.7558ZM16.7379 17.2311H20.8332V20.3412H16.7379V17.2311ZM16.7379 21.1694H20.8332V24.0035H16.7379V21.1694ZM20.8332 12.4639V9.35379H16.7379V12.4639H20.8332ZM20.8332 8.52562V5.41551H16.7379V8.52562H20.8332ZM15.9097 17.2311H11.8152V20.3412H15.9097V17.2311ZM15.9097 21.1694H11.8152V24.0035H15.9097V21.1694ZM15.9097 5.41551H11.8152V8.52562H15.9097V5.41551ZM6.89219 13.2921H10.9871V16.403H6.89219V13.2921ZM6.89219 17.2311H10.9871V20.3412H6.89219V17.2311ZM6.89219 21.1694H10.9871V24.0035H6.89219V21.1694ZM10.9871 8.52562V5.41551H6.89219V8.52562H10.9871ZM6.06402 13.2921H1.10421L1.10421 16.403H6.06402V13.2921ZM6.06402 17.2311H1.10422L1.10422 20.3412H6.06402V17.2311ZM6.06402 21.1694H1.10422L1.10422 22.8993C1.10422 23.5091 1.59859 24.0035 2.20843 24.0035H6.06402V21.1694ZM30.8958 4.58734H1.10421L1.10421 2.20843C1.10421 1.59859 1.59859 1.10422 2.20843 1.10422L29.7916 1.10422C30.4014 1.10422 30.8958 1.59859 30.8958 2.20843V4.58734ZM2.79691 1.78965C2.33953 1.78965 1.96875 2.16043 1.96875 2.61781C1.96875 3.07519 2.33953 3.44597 2.79691 3.44597H8.5252C8.98258 3.44597 9.35336 3.07519 9.35336 2.61781C9.35336 2.16043 8.98258 1.78965 8.5252 1.78965H2.79691ZM23.9664 1.78965C23.5091 1.78965 23.1383 2.16043 23.1383 2.61781C23.1383 3.07519 23.5091 3.44597 23.9664 3.44597H29.2024C29.6598 3.44597 30.0306 3.07519 30.0306 2.61781C30.0306 2.16043 29.6598 1.78965 29.2024 1.78965H23.9664ZM12.8 2.61781C12.8 2.16043 13.1708 1.78965 13.6282 1.78965H19.3565C19.8138 1.78965 20.1846 2.16043 20.1846 2.61781C20.1846 3.07519 19.8138 3.44597 19.3565 3.44597H13.6282C13.1708 3.44597 12.8 3.07519 12.8 2.61781Z" fill="#003462"/>
</svg>
