<svg width="16" height="16" viewBox="0 0 16 16" fill="none" xmlns="http://www.w3.org/2000/svg">
<path fill-rule="evenodd" clip-rule="evenodd" d="M14.2222 0H1.77778C0.795938 0 0 0.795938 0 1.77778V14.2222C0 15.2041 0.795938 16 1.77778 16H14.2222C15.2041 16 16 15.2041 16 14.2222V1.77778C16 0.795938 15.2041 0 14.2222 0ZM0.888889 1.77778C0.888889 1.28686 1.28686 0.888889 1.77778 0.888889H14.2222C14.7131 0.888889 15.1111 1.28686 15.1111 1.77778V4.88911H8.44466V0.889106L7.55577 0.889106V4.88911H0.889106V5.77799H7.55577V10.2224H0.889106V11.1113H7.55577V15.1111H1.77778C1.28686 15.1111 0.888889 14.7131 0.888889 14.2222V1.77778ZM8.44466 11.1113V15.1111H14.2222C14.7131 15.1111 15.1111 14.7131 15.1111 14.2222V11.1113H8.44466ZM15.1111 10.2224V5.77799H8.44466V10.2224H15.1111Z" fill="#003462"/>
</svg>
