<svg width="30" height="28" viewBox="0 0 30 28" fill="none" xmlns="http://www.w3.org/2000/svg">
<path id="tag-fill" fill-rule="evenodd" clip-rule="evenodd" d="M1.43637 17.4361L11.1691 27.1689C11.917 27.9167 13.1177 27.9531 13.9094 27.2519L29.3263 13.5969C29.7549 13.2173 30.0002 12.6722 30.0002 12.0997V2C30.0002 0.89543 29.1048 0 28.0002 0H17.3107C16.7909 0 16.2916 0.202357 15.9184 0.564199L1.45829 14.5861C0.656684 15.3634 0.646815 16.6466 1.43637 17.4361ZM25.0002 7C25.0002 8.10457 24.1048 9 23.0002 9C21.8957 9 21.0002 8.10457 21.0002 7C21.0002 5.89543 21.8957 5 23.0002 5C24.1048 5 25.0002 5.89543 25.0002 7Z" fill="#003462"/>
</svg>
