    <svg
        width="19"
        height="18"
        viewBox="0 0 19 18"
        fill="none"
        xmlns="http://www.w3.org/2000/svg">
        <path
            d="M8.83332 2.05109C8.71387 2.06346 8.60206 2.11294 8.51666 2.19172L0.33888 9.69147C0.133333 9.88026 0 10.1628 0 10.4727C0 10.7813 0.127778 11.0404 0.333333 11.2331L6.2 16.7329C6.35972 16.8826 6.60764 17.0506 6.93333 17.0506C7.28334 17.0506 7.50764 16.8761 7.65556 16.7433L15.8333 9.41021C15.9389 9.31647 15.9986 9.18692 16 9.05086V2.55107C16 2.27505 15.7611 2.05109 15.4667 2.05109H8.88889C8.87014 2.05044 8.85207 2.05044 8.83332 2.05109ZM9.09998 3.05106H14.9332V8.83737L6.93323 16.009L1.08878 10.53C1.09017 10.5319 1.06656 10.4909 1.06656 10.4727C1.06656 10.4122 1.08114 10.4069 1.08323 10.405L9.09998 3.05106Z"
            fill="currentColor"
        />
        <path
            d="M1 10.467L9.11935 2.93211L15 2.93211L15.5 8.5506L7 16.5506L1 10.467Z"
            fill="currentColor"
        />
        <circle cx="12" cy="6.0506" r="1" fill="#E3F2FA" />
    </svg>
