<svg width="32" height="30" viewBox="0 0 32 30" fill="none" xmlns="http://www.w3.org/2000/svg">
<path id="tag" d="M11.3186 28.1689L12.0257 27.4618L11.3186 28.1689ZM1.58579 18.4361L0.87868 19.1432H0.87868L1.58579 18.4361ZM14.0588 28.2519L13.3958 27.5033L13.3958 27.5033L14.0588 28.2519ZM29.4757 14.5969L30.1388 15.3455L30.1388 15.3455L29.4757 14.5969ZM16.0678 1.5642L16.764 2.2821L16.764 2.2821L16.0678 1.5642ZM1.60771 15.5861L2.30385 16.304H2.30385L1.60771 15.5861ZM12.0257 27.4618L2.29289 17.729L0.87868 19.1432L10.6114 28.876L12.0257 27.4618ZM13.3958 27.5033C13 27.8539 12.3996 27.8357 12.0257 27.4618L10.6114 28.876C11.7332 29.9977 13.5343 30.0523 14.7219 29.0005L13.3958 27.5033ZM28.8127 13.8483L13.3958 27.5033L14.7219 29.0005L30.1388 15.3455L28.8127 13.8483ZM29.1496 13.0997C29.1496 13.386 29.027 13.6585 28.8127 13.8483L30.1388 15.3455C30.7816 14.7761 31.1496 13.9585 31.1496 13.0997H29.1496ZM29.1496 3V13.0997H31.1496V3H29.1496ZM28.1496 2C28.7019 2 29.1496 2.44771 29.1496 3H31.1496C31.1496 1.34315 29.8065 0 28.1496 0V2ZM17.4601 2H28.1496V0H17.4601V2ZM16.764 2.2821C16.9505 2.10118 17.2002 2 17.4601 2V0C16.6804 0 15.9314 0.303535 15.3717 0.8463L16.764 2.2821ZM2.30385 16.304L16.764 2.2821L15.3717 0.846299L0.911563 14.8682L2.30385 16.304ZM2.29289 17.729C1.89811 17.3343 1.90305 16.6927 2.30385 16.304L0.911563 14.8682C-0.290854 16.0342 -0.305656 17.9589 0.87868 19.1432L2.29289 17.729ZM23.1496 11C24.8065 11 26.1496 9.65685 26.1496 8H24.1496C24.1496 8.55229 23.7019 9 23.1496 9V11ZM20.1496 8C20.1496 9.65685 21.4928 11 23.1496 11V9C22.5974 9 22.1496 8.55229 22.1496 8H20.1496ZM23.1496 5C21.4928 5 20.1496 6.34315 20.1496 8H22.1496C22.1496 7.44771 22.5974 7 23.1496 7V5ZM26.1496 8C26.1496 6.34315 24.8065 5 23.1496 5V7C23.7019 7 24.1496 7.44771 24.1496 8H26.1496Z" fill="#003462"/>
</svg>
