    <svg
        width="16"
        height="16"
        viewBox="0 0 16 16"
        fill="currentColor"
        xmlns="http://www.w3.org/2000/svg">
        <g clipPath="url(#clip0)">
            <path
                d="M8.83332 1.0005C8.71387 1.01287 8.60206 1.06234 8.51666 1.14112L0.33888 8.64087C0.133333 8.82967 0 9.11221 0 9.4221C0 9.73069 0.127778 9.98978 0.333333 10.1825L6.2 15.6823C6.35972 15.832 6.60764 16 6.93333 16C7.28334 16 7.50764 15.8255 7.65556 15.6927L15.8333 8.35962C15.9389 8.26587 15.9986 8.13632 16 8.00026V1.50047C16 1.22445 15.7611 1.00049 15.4667 1.00049H8.88889C8.87014 0.999837 8.85207 0.999846 8.83332 1.0005ZM9.09998 2.00046H14.9332V7.78678L6.93323 14.9584L1.08878 9.47939C1.09017 9.48134 1.06656 9.44033 1.06656 9.4221C1.06656 9.36155 1.08114 9.35634 1.08323 9.35439L9.09998 2.00046Z"
                fill="currentColor"
            />
            <circle cx="12" cy="5" r="1" fill="currentColor" />
        </g>
        <defs>
            <clipPath id="clip0">
                <rect width="16" height="16" fill="white" />
            </clipPath>
        </defs>
    </svg>
