<svg width="26" height="26" viewBox="0 0 26 26" fill="none" xmlns="http://www.w3.org/2000/svg">
<g id="task_fill">
<mask id="path-1-inside-1" fill="white">
<path fill-rule="evenodd" clip-rule="evenodd" d="M3 0C1.34315 0 0 1.34315 0 3V23C0 24.6569 1.34315 26 3 26H23C24.6569 26 26 24.6569 26 23V3C26 1.34315 24.6569 0 23 0H3ZM19.9598 6.39065L10.9927 17.2045L6.43507 12.7076C6.01236 12.2919 5.32905 12.2919 4.90635 12.7076C4.48499 13.1247 4.48499 13.7989 4.90635 14.2159L10.3081 19.5456C10.7605 19.9907 11.5033 19.9547 11.9084 19.467L21.6316 7.74171C22.0098 7.28603 21.9422 6.61451 21.4804 6.24142C21.0186 5.86836 20.3379 5.93497 19.9598 6.39065Z"/>
</mask>
<path fill-rule="evenodd" clip-rule="evenodd" d="M3 0C1.34315 0 0 1.34315 0 3V23C0 24.6569 1.34315 26 3 26H23C24.6569 26 26 24.6569 26 23V3C26 1.34315 24.6569 0 23 0H3ZM19.9598 6.39065L10.9927 17.2045L6.43507 12.7076C6.01236 12.2919 5.32905 12.2919 4.90635 12.7076C4.48499 13.1247 4.48499 13.7989 4.90635 14.2159L10.3081 19.5456C10.7605 19.9907 11.5033 19.9547 11.9084 19.467L21.6316 7.74171C22.0098 7.28603 21.9422 6.61451 21.4804 6.24142C21.0186 5.86836 20.3379 5.93497 19.9598 6.39065Z" fill="#003462"/>
<path d="M10.9927 17.2045L9.58795 18.6282L11.1402 20.1598L12.5322 18.4812L10.9927 17.2045ZM19.9598 6.39065L18.4207 5.11344L18.4203 5.11401L19.9598 6.39065ZM6.43507 12.7076L7.83977 11.284L7.83747 11.2817L6.43507 12.7076ZM4.90635 12.7076L3.50394 11.2817L3.4994 11.2862L4.90635 12.7076ZM4.90635 14.2159L3.4994 15.6374L3.50167 15.6396L4.90635 14.2159ZM10.3081 19.5456L8.90346 20.9693L8.90557 20.9714L10.3081 19.5456ZM11.9084 19.467L13.4468 20.745L13.4479 20.7437L11.9084 19.467ZM21.6316 7.74171L20.0925 6.46457L20.0921 6.46505L21.6316 7.74171ZM21.4804 6.24142L22.7372 4.68565L22.7371 4.68559L21.4804 6.24142ZM2 3C2 2.44772 2.44772 2 3 2V-2C0.238576 -2 -2 0.238578 -2 3H2ZM2 23V3H-2V23H2ZM3 24C2.44772 24 2 23.5523 2 23H-2C-2 25.7614 0.238578 28 3 28V24ZM23 24H3V28H23V24ZM24 23C24 23.5523 23.5523 24 23 24V28C25.7614 28 28 25.7614 28 23H24ZM24 3V23H28V3H24ZM23 2C23.5523 2 24 2.44772 24 3H28C28 0.238576 25.7614 -2 23 -2V2ZM3 2H23V-2H3V2ZM12.5322 18.4812L21.4993 7.66728L18.4203 5.11401L9.45311 15.9279L12.5322 18.4812ZM5.03036 14.1313L9.58795 18.6282L12.3974 15.7809L7.83977 11.284L5.03036 14.1313ZM6.30875 14.1336C5.95319 14.4833 5.38823 14.4833 5.03266 14.1336L7.83747 11.2817C6.63649 10.1005 4.70492 10.1005 3.50395 11.2817L6.30875 14.1336ZM6.3133 12.7945C6.68268 13.1601 6.68268 13.7635 6.3133 14.1291L3.4994 11.2862C2.28731 12.4859 2.28731 14.4376 3.4994 15.6374L6.3133 12.7945ZM11.7128 18.1219L6.31103 12.7922L3.50167 15.6396L8.90346 20.9693L11.7128 18.1219ZM10.37 18.189C10.7163 17.7721 11.3322 17.7475 11.7107 18.1198L8.90557 20.9714C10.1889 22.2338 12.2902 22.1372 13.4468 20.745L10.37 18.189ZM20.0921 6.46505L10.3689 18.1903L13.4479 20.7437L23.1712 9.01836L20.0921 6.46505ZM20.2236 7.79719C19.8213 7.47225 19.7561 6.86995 20.0925 6.46457L23.1708 9.01884C24.2634 7.70212 24.0631 5.75677 22.7372 4.68565L20.2236 7.79719ZM21.4989 7.66785C21.1744 8.0588 20.6084 8.10806 20.2236 7.79724L22.7371 4.68559C21.4287 3.62865 19.5014 3.81114 18.4207 5.11344L21.4989 7.66785Z" fill="#003462" mask="url(#path-1-inside-1)"/>
</g>
</svg>
