<svg width="32" height="32" viewBox="0 0 32 32" fill="none" xmlns="http://www.w3.org/2000/svg">
<path id="template" fill-rule="evenodd" clip-rule="evenodd" d="M27.9725 0C30.196 0 32 2.02206 32 4.51765V27.4824C32 29.9765 30.196 32 27.9725 32H4.02752C1.80399 32 0 29.9765 0 27.4824V4.51765C0 2.02206 1.80399 0 4.02752 0H27.9725ZM29.8709 29.6117C30.3743 29.047 30.6575 28.2809 30.6575 27.4824V4.51765C30.6575 3.71915 30.3743 2.95298 29.8709 2.38825C29.3674 1.82353 28.6844 1.50588 27.9725 1.50588H4.02752C2.54472 1.50588 1.34251 2.8544 1.34251 4.51765V27.4824C1.34251 29.1456 2.54472 30.4941 4.02752 30.4941H27.9725C28.6843 30.4941 29.3674 30.1765 29.8709 29.6117ZM6.01512 4.487H25.9889C26.7008 4.487 27.3839 4.80467 27.8873 5.36937C28.3908 5.93408 28.674 6.70023 28.674 7.49876V9.72819C28.674 10.5267 28.3908 11.2929 27.8873 11.8576C27.3839 12.4223 26.7008 12.74 25.9889 12.74H6.01512C5.30326 12.74 4.62021 12.4223 4.11675 11.8576C3.61329 11.2929 3.33011 10.5267 3.33011 9.72819V7.49876C3.33011 5.83552 4.53232 4.487 6.01512 4.487ZM26.9381 10.7929C27.1899 10.5106 27.3315 10.1282 27.3315 9.72822V7.4988C27.3315 7.10027 27.1899 6.71647 26.9381 6.4341C26.6864 6.15174 26.3442 5.99292 25.9889 5.99292H6.01512C5.27309 5.99292 4.67262 6.66793 4.67262 7.4988V9.72822C4.67262 10.5591 5.27309 11.2341 6.01512 11.2341H25.9889C26.3442 11.2341 26.6864 11.0753 26.9381 10.7929ZM12.3852 14.8223H6.00832C4.52552 14.8223 3.3233 16.1708 3.3233 17.834V25.4192C3.3233 26.2177 3.60649 26.9838 4.10995 27.5486C4.6134 28.1133 5.29645 28.4309 6.00832 28.4309H12.3852C13.0971 28.4309 13.7802 28.1133 14.2836 27.5486C14.787 26.9838 15.0702 26.2177 15.0702 25.4192V17.834C15.0702 17.034 14.7871 16.2693 14.2836 15.7031C13.7802 15.1384 13.0971 14.8223 12.3852 14.8223ZM13.7277 25.4151C13.7277 25.8151 13.5861 26.1974 13.3344 26.4812C13.0827 26.7636 12.7405 26.9209 12.3852 26.9209H6.00832C5.26628 26.9209 4.66581 26.2474 4.66581 25.4151V17.8341C4.66581 17.0017 5.26628 16.3282 6.00832 16.3282H12.3852C12.7405 16.3282 13.0827 16.4855 13.3344 16.7694C13.5861 17.0517 13.7277 17.4341 13.7277 17.8341V25.4151ZM19.612 14.8223H25.9889C26.7008 14.8223 27.3839 15.1384 27.8873 15.7031C28.3908 16.2693 28.6739 17.034 28.6739 17.834V25.4192C28.6739 26.2177 28.3907 26.9838 27.8873 27.5486C27.3839 28.1133 26.7008 28.4309 25.9889 28.4309H19.612C18.8988 28.4309 18.2157 28.1133 17.7123 27.5486C17.2089 26.9838 16.927 26.2177 16.927 25.4192V17.834C16.927 16.1708 18.1279 14.8223 19.612 14.8223ZM26.9381 26.4812C27.1898 26.1974 27.3314 25.8151 27.3314 25.4151V17.8341C27.3314 17.4341 27.1898 17.0517 26.9381 16.7694C26.6864 16.4855 26.3442 16.3282 25.9889 16.3282H19.612C18.87 16.3282 18.2695 17.0017 18.2695 17.8341V25.4151C18.2695 26.2474 18.87 26.9209 19.612 26.9209H25.9889C26.3442 26.9209 26.6864 26.7636 26.9381 26.4812Z" fill="#003462"/>
</svg>
