    <svg
        width="16"
        height="16"
        viewBox="0 0 16 16"
        fill="currentColor"
        xmlns="http://www.w3.org/2000/svg">
        <g clipPath="url(#clip0)">
            <path
                d="M12.8234 0H7.71443C6.58793 0 5.6709 0.920129 5.6709 2.05044V5.46784C5.6709 6.39567 6.30438 7.20047 7.16864 7.44309V8.7494C7.16864 8.91514 7.26826 9.06465 7.42154 9.12788C7.47178 9.14924 7.52542 9.15949 7.57736 9.15949C7.68294 9.15949 7.78852 9.11763 7.86685 9.03903L9.38247 7.51829H12.8232C13.9497 7.51829 14.8668 6.59816 14.8668 5.46785V2.05045C14.8668 0.920139 13.9497 1.10548e-05 12.8232 1.10548e-05L12.8234 0ZM14.0495 5.46784C14.0495 6.1462 13.4995 6.69811 12.8234 6.69811H9.2139C9.10491 6.69811 9.00103 6.74082 8.92441 6.81857L7.98693 7.76007V7.10222C7.98693 6.88863 7.82345 6.71177 7.61142 6.69384C6.98048 6.64172 6.48748 6.10434 6.48748 5.46869V2.05129C6.48748 1.37293 7.03838 0.820172 7.71446 0.820172H12.8234C13.4995 0.820172 14.0495 1.37293 14.0495 2.05129L14.0495 5.46784Z"
                fill="#003462"
            />
            <path
                d="M8.68022 3.75966C8.68022 4.57984 7.4541 4.57984 7.4541 3.75966C7.4541 2.93949 8.68022 2.93949 8.68022 3.75966Z"
                fill="#003462"
            />
            <path
                d="M10.6734 3.75966C10.6734 4.57984 9.44727 4.57984 9.44727 3.75966C9.44727 2.93949 10.6734 2.93949 10.6734 3.75966Z"
                fill="#003462"
            />
            <path
                d="M12.6666 3.75966C12.6666 4.57984 11.4404 4.57984 11.4404 3.75966C11.4404 2.93949 12.6666 2.93949 12.6666 3.75966Z"
                fill="#003462"
            />
            <path
                d="M9.86034 12.8217H1.81741V4.24923C1.81741 3.57087 2.36831 3.01897 3.04439 3.01897H4.85462V2.19879H3.04354C1.91703 2.19879 1 3.11892 1 4.24923V13.9496C1 15.0799 1.91703 16.0001 3.04354 16.0001H8.63422C9.76072 16.0001 10.6778 15.0799 10.6778 13.9496V8.3383H9.86119L9.86034 12.8217ZM9.86034 13.9494C9.86034 14.6278 9.30944 15.1797 8.63337 15.1797H3.04334C2.36726 15.1797 1.81637 14.6278 1.81637 13.9494V13.6419H9.86016L9.86034 13.9494Z"
                fill="#003462"
            />
            <path
                d="M4.99562 14.8729H6.68239C6.90804 14.8729 7.09195 14.6892 7.09195 14.4628C7.09195 14.2364 6.90803 14.0527 6.68239 14.0527H4.99562C4.76997 14.0527 4.58691 14.2364 4.58691 14.4628C4.58691 14.6892 4.76913 14.8729 4.99562 14.8729Z"
                fill="#003462"
            />
        </g>
        <defs>
            <clipPath id="clip0">
                <rect width="16" height="16" fill="white" />
            </clipPath>
        </defs>
    </svg>
