<svg width="16" height="16" viewBox="0 0 16 16" fill="none" xmlns="http://www.w3.org/2000/svg">
<path fill-rule="evenodd" clip-rule="evenodd" d="M0 0.5C0 0.223858 0.223858 0 0.5 0H15.5037C15.7798 0 16.0037 0.223858 16.0037 0.5C16.0037 0.776142 15.7798 1 15.5037 1H0.5C0.223858 1 0 0.776142 0 0.5ZM0 8.00171C0 7.72557 0.223858 7.50171 0.5 7.50171H15.5037C15.7798 7.50171 16.0037 7.72557 16.0037 8.00171C16.0037 8.27785 15.7798 8.50171 15.5037 8.50171H0.5C0.223858 8.50171 0 8.27785 0 8.00171ZM3 3.75098C2.72386 3.75098 2.5 3.97483 2.5 4.25098C2.5 4.52712 2.72386 4.75098 3 4.75098H13C13.2761 4.75098 13.5 4.52712 13.5 4.25098C13.5 3.97483 13.2761 3.75098 13 3.75098H3ZM2.5 11.7529C2.5 11.4768 2.72386 11.2529 3 11.2529H13C13.2761 11.2529 13.5 11.4768 13.5 11.7529C13.5 12.0291 13.2761 12.2529 13 12.2529H3C2.72386 12.2529 2.5 12.0291 2.5 11.7529ZM0.5 15.0037C0.223858 15.0037 0 15.2275 0 15.5037C0 15.7798 0.223858 16.0037 0.5 16.0037H15.5037C15.7798 16.0037 16.0037 15.7798 16.0037 15.5037C16.0037 15.2275 15.7798 15.0037 15.5037 15.0037H0.5Z" fill="#003462"/>
</svg>
