<svg width="14" height="16" viewBox="0 0 14 16" fill="none" xmlns="http://www.w3.org/2000/svg">
<path fill-rule="evenodd" clip-rule="evenodd" d="M1.96917 11.3924C3.22511 12.6483 4.92829 13.3543 6.70501 13.3543L6.70523 13.3544C8.48006 13.3544 10.1824 12.6502 11.4382 11.3953C12.694 10.1406 13.401 8.43909 13.4028 6.66423V0.558147C13.4028 0.250235 13.1526 0 12.8447 0C12.5368 0 12.2865 0.250235 12.2865 0.558147V6.66423C12.2865 8.65863 11.2223 10.5005 9.49582 11.4977C7.76932 12.4949 5.64089 12.495 3.91435 11.4977C2.18781 10.5004 1.12362 8.65863 1.12362 6.66423V0.558147C1.12362 0.250235 0.873382 0 0.565471 0C0.257559 0 0.00732422 0.250235 0.00732422 0.558147V6.65661C0.00732422 8.43335 0.713378 10.1367 1.96917 11.3924ZM0.558146 16.0001H12.837C13.1449 16.0001 13.3951 15.7498 13.3951 15.4419C13.3951 15.134 13.1449 14.8838 12.837 14.8838H0.558146C0.250235 14.8838 0 15.134 0 15.4419C0 15.7498 0.250235 16.0001 0.558146 16.0001Z" fill="#003462"/>
</svg>
