    <svg
        width="17"
        height="17"
        viewBox="0 0 17 17"
        fill="currentColor"
        xmlns="http://www.w3.org/2000/svg">
        <g clipPath="url(#clip0)">
            <path
                d="M2.96917 9.09376C2.79327 9.09376 2.62109 9.01657 2.50456 8.87036L0.129562 5.9016C-0.0745357 5.6448 -0.0329769 5.27223 0.222336 5.06665C0.47914 4.86107 0.851711 4.90411 1.05729 5.15942L3.13171 7.75406L6.26519 6.18804C6.5591 6.04183 6.91609 6.1591 7.0623 6.453C7.20851 6.74617 7.08976 7.10242 6.7966 7.25011L3.2341 9.03136C3.14949 9.07218 3.05969 9.0937 2.96915 9.0937L2.96917 9.09376Z"
                fill="currentColor"
            />
            <path
                d="M9.50047 15.6251C7.27386 15.6251 5.2173 14.6135 3.85614 12.8501C3.65649 12.5903 3.70399 12.217 3.9645 12.0174C4.22426 11.817 4.59758 11.8667 4.79723 12.1242C5.93054 13.5945 7.64571 14.4377 9.50049 14.4377C12.7742 14.4377 15.438 11.7739 15.438 8.50018C15.438 5.22648 12.7742 2.56268 9.50049 2.56268C6.22679 2.56268 3.56299 5.22648 3.56299 8.50018C3.56299 8.82824 3.29729 9.09393 2.96924 9.09393C2.64118 9.09393 2.37549 8.82824 2.37549 8.50018C2.37549 4.57098 5.57129 1.37518 9.50049 1.37518C13.4297 1.37518 16.6255 4.57098 16.6255 8.50018C16.6255 12.4294 13.4297 15.6252 9.50049 15.6252L9.50047 15.6251Z"
                fill="currentColor"
            />
        </g>
        <defs>
            <clipPath id="clip0">
                <rect width="17" height="17" fill="white" />
            </clipPath>
        </defs>
    </svg>
