<svg width="29" height="30" viewBox="0 0 29 30" fill="none" xmlns="http://www.w3.org/2000/svg">
<path id="update" d="M24.4782 6.71952L23.0776 6.29928C22.5486 6.14056 21.9911 6.44071 21.8324 6.9697C21.6737 7.49868 21.9739 8.05618 22.5028 8.2149L25.9563 9.25111C26.4538 9.40039 26.9827 9.14393 27.1737 8.66088L28.5267 5.23765C28.7297 4.72403 28.4779 4.14309 27.9643 3.94008C27.4507 3.73707 26.8697 3.98887 26.6667 4.50249L26.1514 5.8062C24.4423 3.52987 22.0954 1.79745 19.3953 0.838284C16.289 -0.265157 12.8999 -0.279647 9.78431 0.79719C6.66873 1.87403 4.01186 3.9782 2.24992 6.76423C0.487969 9.55027 -0.274341 12.8526 0.0881433 16.129C0.450625 19.4055 1.91636 22.4613 4.2447 24.7948C6.57304 27.1283 9.62561 28.6008 12.9012 28.9706C16.1769 29.3404 19.4809 28.5854 22.2708 26.8296C24.7944 25.2415 26.7617 22.92 27.9164 20.1872C28.1188 19.7082 27.8564 19.1699 27.3652 18.9989C26.874 18.8279 26.3404 19.0893 26.1334 19.5664C25.1223 21.8962 23.4295 23.8751 21.2676 25.2356C18.8393 26.7637 15.9636 27.4209 13.1125 27.099C10.2614 26.7772 7.60453 25.4955 5.57798 23.4645C3.55143 21.4334 2.27568 18.7737 1.96018 15.9219C1.64468 13.0702 2.30818 10.1959 3.84175 7.77094C5.37532 5.34602 7.68782 3.51458 10.3996 2.57732C13.1113 1.64006 16.0612 1.65267 18.7648 2.61309C21.0282 3.4171 23.0064 4.84535 24.4782 6.71952Z" fill="#003462"/>
</svg>
