    <svg
        width="16"
        height="16"
        viewBox="0 0 16 16"
        fill="currentColor"
        xmlns="http://www.w3.org/2000/svg">
        <path
            d="M14.063 0.984151H1.49208C1.22041 0.984151 1 0.763741 1 0.492076C1 0.220407 1.22041 0 1.49208 0H14.063C14.3346 0 14.555 0.220407 14.555 0.492076C14.555 0.763741 14.3346 0.984151 14.063 0.984151Z"
            fill="currentColor"
        />
        <path
            d="M7.77748 16C7.50581 16 7.2854 15.7796 7.2854 15.5079V3.82868C7.2854 3.55702 7.50581 3.33661 7.77748 3.33661C8.04914 3.33661 8.26955 3.55702 8.26955 3.82868V15.5089C8.26955 15.7793 8.04914 15.9997 7.77748 15.9997V16Z"
            fill="currentColor"
        />
        <path
            d="M12.9854 8.52145C12.8726 8.52145 12.7585 8.483 12.6663 8.40355L7.80325 4.24912L3.65145 8.37797C3.45923 8.5689 3.14783 8.5689 2.95562 8.3754C2.7634 8.18319 2.76469 7.87178 2.95818 7.67957L7.43181 3.23056C7.61377 3.04987 7.90338 3.03962 8.09814 3.20493L13.3059 7.65395C13.5123 7.83078 13.5366 8.1409 13.3598 8.34721C13.2624 8.46383 13.1253 8.52149 12.9856 8.52149L12.9854 8.52145Z"
            fill="currentColor"
        />
    </svg>
