<svg width="31" height="32" viewBox="0 0 31 32" fill="none" xmlns="http://www.w3.org/2000/svg">
<path id="upload" fill-rule="evenodd" clip-rule="evenodd" d="M29.8552 0H1.12463C0.503744 0 0 0.440799 0 0.983999C0 1.5274 0.503744 1.9682 1.12463 1.9682H29.8552C30.4762 1.9682 30.9797 1.5274 30.9797 0.983999C30.9797 0.440799 30.4762 0 29.8552 0ZM14.3655 9.29663L4.31688 16.808C3.84536 17.159 3.13659 17.1104 2.73243 16.6978C2.33119 16.2852 2.38683 15.665 2.85835 15.3114L14.7607 6.41421C14.9716 6.25541 15.2293 6.17841 15.49 6.17841L15.4895 6.17801C15.7765 6.17801 16.0635 6.27541 16.2832 6.46501L26.5045 15.3602C26.9468 15.7445 26.9498 16.3673 26.5105 16.7517C26.0712 17.1387 25.3594 17.1412 24.9201 16.7568L16.6148 9.52988V31.0159C16.6148 31.5592 16.111 32 15.4901 32C14.8693 32 14.3655 31.5592 14.3655 31.0159V9.29663Z" fill="#003462"/>
</svg>
