<svg width="27" height="32" viewBox="0 0 27 32" fill="none" xmlns="http://www.w3.org/2000/svg">
<path id="user" fill-rule="evenodd" clip-rule="evenodd" d="M18.8727 7.68C18.8727 10.817 16.3297 13.36 13.1927 13.36C10.0557 13.36 7.51272 10.817 7.51272 7.68C7.51272 4.54302 10.0557 2 13.1927 2C16.3297 2 18.8727 4.54302 18.8727 7.68ZM20.8727 7.68C20.8727 11.9215 17.4343 15.36 13.1927 15.36C8.95117 15.36 5.51272 11.9215 5.51272 7.68C5.51272 3.43845 8.95117 0 13.1927 0C17.4343 0 20.8727 3.43845 20.8727 7.68ZM23.8761 23.0913C25.1393 25.4017 25.0991 28.1945 24.8633 30H13.6211H2.0864C1.89396 28.1896 1.92333 25.4054 3.24467 23.0977C4.5127 20.8832 7.24687 18.64 13.6211 18.64C20.0157 18.64 22.6752 20.8949 23.8761 23.0913ZM26.8112 30.5142C26.6817 31.4024 25.8981 32 25.0005 32H13.6211H1.94312C1.03056 32 0.238601 31.3838 0.128035 30.478C-0.345588 26.5978 -0.213321 16.64 13.6211 16.64C27.4988 16.64 27.3729 26.66 26.8112 30.5142Z" fill="#003462"/>
</svg>
