<svg width="24" height="24" viewBox="0 0 24 24" fill="none" xmlns="http://www.w3.org/2000/svg">
<path fill-rule="evenodd" clip-rule="evenodd" d="M22.5 12C22.5 17.799 17.799 22.5 12 22.5C6.20101 22.5 1.5 17.799 1.5 12C1.5 6.20101 6.20101 1.5 12 1.5C17.799 1.5 22.5 6.20101 22.5 12ZM24 12C24 18.6274 18.6274 24 12 24C5.37258 24 0 18.6274 0 12C0 5.37258 5.37258 0 12 0C18.6274 0 24 5.37258 24 12ZM12.0984 14.3837C12.5725 14.3837 12.9599 14.0052 12.9709 13.5313L13.1225 7.04512C13.1359 6.47191 12.6749 6 12.1015 6C11.5286 6 11.0677 6.47129 11.0805 7.04413L11.2258 13.5304C11.2364 14.0047 11.624 14.3837 12.0984 14.3837ZM11.302 16.1796C11.1007 16.381 11 16.6367 11 16.9469C11 17.2463 11.098 17.4966 11.2939 17.698C11.4898 17.8993 11.7673 18 12.1265 18C12.4857 18 12.7633 17.8993 12.9592 17.698C13.1551 17.4966 13.2531 17.2463 13.2531 16.9469C13.2531 16.6367 13.1524 16.381 12.951 16.1796C12.7497 15.9728 12.4748 15.8694 12.1265 15.8694C11.7782 15.8694 11.5034 15.9728 11.302 16.1796Z" fill="#003462"/>
</svg>

