<svg width="32" height="32" viewBox="0 0 32 32" fill="none" xmlns="http://www.w3.org/2000/svg">
<path id="apps" fill-rule="evenodd" clip-rule="evenodd" d="M2 12.7692V2H12.2222V12.7692H2ZM0 1.69231C0 0.757672 0.757673 0 1.69231 0H12.5299C13.4645 0 14.2222 0.757673 14.2222 1.69231V13.0769C14.2222 14.0115 13.4645 14.7692 12.5299 14.7692H1.69231C0.757672 14.7692 0 14.0115 0 13.0769V1.69231ZM2 30.0002V19.231H12.2222V30.0002H2ZM0 18.9233C0 17.9886 0.757673 17.231 1.69231 17.231H12.5299C13.4645 17.231 14.2222 17.9886 14.2222 18.9233V30.3079C14.2222 31.2425 13.4645 32.0002 12.5299 32.0002H1.69231C0.757672 32.0002 0 31.2425 0 30.3079V18.9233ZM19.7778 19.231V30.0002H30V19.231H19.7778ZM19.4701 17.231C18.5355 17.231 17.7778 17.9886 17.7778 18.9233V30.3079C17.7778 31.2425 18.5355 32.0002 19.4701 32.0002H30.3077C31.2423 32.0002 32 31.2425 32 30.3079V18.9233C32 17.9886 31.2423 17.231 30.3077 17.231H19.4701ZM19.7778 12.7692V2H30V12.7692H19.7778ZM17.7778 1.69231C17.7778 0.757672 18.5355 0 19.4701 0H30.3077C31.2423 0 32 0.757673 32 1.69231V13.0769C32 14.0115 31.2423 14.7692 30.3077 14.7692H19.4701C18.5355 14.7692 17.7778 14.0115 17.7778 13.0769V1.69231Z" fill="#003462"/>
</svg>
