<svg width="32" height="29" viewBox="0 0 32 29" fill="none" xmlns="http://www.w3.org/2000/svg">
<g id="automate">
<path fill-rule="evenodd" clip-rule="evenodd" d="M23.5567 2.28083H21.2759V0.759851C21.2759 0.340197 20.9357 0 20.5161 0C20.0964 0 19.7562 0.340197 19.7562 0.759851V2.28083H7.5986V0.75985C7.5986 0.340197 7.2584 0 6.83875 0C6.4191 0 6.0789 0.340197 6.0789 0.75985V2.28083H3.80063C1.70599 2.28083 0 3.98542 0 6.08146V23.5592C0 25.6539 1.70459 27.3599 3.80063 27.3599H22.2396C22.9754 27.7883 23.7903 28.0779 24.6439 28.2074C26.1683 28.4388 27.726 28.1459 29.0623 27.3768C30.2102 26.7161 31.1363 25.7376 31.7331 24.5656C31.896 24.2459 31.7294 23.8667 31.3955 23.735C31.0617 23.6033 30.6876 23.7696 30.5176 24.0857C30.0336 24.9852 29.3067 25.7366 28.414 26.2504C27.3328 26.8728 26.0723 27.1097 24.8389 26.9225C23.6054 26.7353 22.472 26.1351 21.6241 25.22C20.7762 24.3048 20.2639 23.129 20.1712 21.8849C20.0784 20.6408 20.4107 19.402 21.1135 18.3713C21.8164 17.3405 22.8482 16.5789 24.0403 16.2108C25.2323 15.8428 26.514 15.8902 27.6756 16.3454C28.7046 16.7486 29.5854 17.4506 30.2074 18.3563H28.8083C28.5322 18.3563 28.3083 18.5802 28.3083 18.8563C28.3083 19.1325 28.5322 19.3563 28.8083 19.3563H31.4272C31.7034 19.3563 31.9272 19.1325 31.9272 18.8563V16.2374C31.9272 15.9613 31.7034 15.7374 31.4272 15.7374C31.1511 15.7374 30.9272 15.9613 30.9272 16.2374V17.1532C30.1928 16.2591 29.2384 15.5619 28.1497 15.1353C27.8897 15.0335 27.6249 14.9481 27.3567 14.8794L27.3563 6.07887C27.355 3.98423 25.6502 2.28083 23.5567 2.28083ZM18.8752 21.9815C18.9809 23.4001 19.528 24.7468 20.435 25.8349H3.80047C2.54165 25.8349 1.51964 24.8129 1.51964 23.5566V9.87917H25.8348L25.8349 14.6681C25.1025 14.6499 24.3668 14.7499 23.6569 14.9691C22.1837 15.4239 20.9084 16.3653 20.0398 17.6391C19.1711 18.913 18.7606 20.444 18.8752 21.9815ZM25.835 8.35963H1.5198V6.0788C1.5198 4.82125 2.54178 3.79797 3.80063 3.79797H6.08146V4.55908C6.08146 4.97804 6.42109 5.31767 6.84005 5.31767C7.259 5.31767 7.59863 4.97804 7.59863 4.55909V3.8005H19.7562V4.56035C19.7562 4.98 20.0964 5.3202 20.5161 5.3202C20.9357 5.3202 21.2759 4.98 21.2759 4.56035V3.8005H23.5568C24.8131 3.8005 25.835 4.82122 25.835 6.07877L25.835 8.35963Z" fill="currentColor"/>
<path d="M25.75 18.5C25.75 18.0858 25.4142 17.75 25 17.75C24.5858 17.75 24.25 18.0858 24.25 18.5V22C24.25 22.5508 24.5093 23.0695 24.95 23.4L26.55 24.6C26.8814 24.8485 27.3515 24.7814 27.6 24.45C27.8485 24.1186 27.7814 23.6485 27.45 23.4L25.85 22.2C25.787 22.1528 25.75 22.0787 25.75 22V18.5Z" fill="currentColor"/>
</g>
</svg>
