<svg width="32" height="32" viewBox="0 0 32 32" fill="none" xmlns="http://www.w3.org/2000/svg">
<path id="cancel" fill-rule="evenodd" clip-rule="evenodd" d="M30 16C30 23.732 23.732 30 16 30C12.6215 30 9.52242 28.8032 7.10371 26.8105L26.8105 7.10371C28.8032 9.52242 30 12.6215 30 16ZM5.65389 25.4319L25.4319 5.65389C22.9436 3.38414 19.6334 2 16 2C8.26801 2 2 8.26801 2 16C2 19.6334 3.38414 22.9436 5.65389 25.4319ZM32 16C32 24.8366 24.8366 32 16 32C7.16344 32 0 24.8366 0 16C0 7.16344 7.16344 0 16 0C24.8366 0 32 7.16344 32 16Z" fill="#003462"/>
</svg>
