<svg width="34" height="27" viewBox="0 0 34 27" fill="none" xmlns="http://www.w3.org/2000/svg">
<path id="code" fill-rule="evenodd" clip-rule="evenodd" d="M22.1917 0.0715909C22.7045 0.276781 22.9538 0.858789 22.7486 1.37154L13.1394 25.3842C12.9342 25.8969 12.3522 26.1463 11.8394 25.9411C11.3267 25.7359 11.0773 25.1539 11.2825 24.6411L20.8918 0.628483C21.0969 0.11573 21.679 -0.133599 22.1917 0.0715909ZM10.7825 2.96209C11.173 3.35262 11.173 3.98578 10.7825 4.37631L2.41423 12.7446L10.7825 21.1129C11.173 21.5034 11.173 22.1365 10.7825 22.5271C10.392 22.9176 9.75881 22.9176 9.36829 22.5271L0.292908 13.4517C-0.0976158 13.0612 -0.0976158 12.428 0.292908 12.0375L9.36829 2.96209C9.75881 2.57157 10.392 2.57157 10.7825 2.96209ZM23.2175 4.37631C22.827 3.98578 22.827 3.35262 23.2175 2.96209C23.6081 2.57157 24.2412 2.57157 24.6317 2.96209L33.7071 12.0375C34.0976 12.428 34.0976 13.0612 33.7071 13.4517L24.6317 22.5271C24.2412 22.9176 23.6081 22.9176 23.2175 22.5271C22.827 22.1365 22.827 21.5034 23.2175 21.1129L31.5858 12.7446L23.2175 4.37631Z" fill="#003462"/>
</svg>
