<svg width="32" height="32" viewBox="0 0 32 32" fill="none" xmlns="http://www.w3.org/2000/svg">
<path id="download" fill-rule="evenodd" clip-rule="evenodd" d="M17.4009 22.4701V0.984052C17.4009 0.44077 16.8972 0 16.2763 0C15.6554 0 15.1516 0.44077 15.1516 0.984052V22.7034L5.10301 15.192C4.63149 14.841 3.92272 14.8896 3.51856 15.3022C3.11732 15.7148 3.17296 16.335 3.64448 16.6886L15.5468 25.5858C15.7577 25.7446 16.0154 25.8216 16.2761 25.8216L16.2756 25.822C16.5626 25.822 16.8496 25.7246 17.0693 25.535L27.2907 16.6398C27.733 16.2555 27.7359 15.6327 27.2966 15.2483C26.8573 14.8614 26.1455 14.8588 25.7062 15.2432L17.4009 22.4701ZM30.6413 32H1.91076C1.28988 32 0.786133 31.5592 0.786133 31.016C0.786133 30.4726 1.28988 30.0318 1.91076 30.0318H30.6413C31.2623 30.0318 31.7659 30.4726 31.7659 31.016C31.7659 31.5592 31.2623 32 30.6413 32Z" fill="currentColor"/>
</svg>
