<svg width="8" height="16" viewBox="0 0 8 16" fill="none" xmlns="http://www.w3.org/2000/svg">
<path fill-rule="evenodd" clip-rule="evenodd" d="M4.00008 14.8148V16C5.06078 15.9985 6.07717 15.5615 6.82716 14.7837C7.57715 14.0058 7.99857 12.9518 8 11.8518V0.571417C8 0.255832 7.74417 0 7.42858 0C7.113 0 6.85717 0.255832 6.85717 0.571417V11.8518C6.85645 12.637 6.55504 13.3904 6.01933 13.9459C5.48363 14.5015 4.75721 14.8141 4.00008 14.8148ZM1.17284 14.7838C1.9229 15.5615 2.93924 15.9986 3.99993 16.0001L3.99992 14.8149C3.24277 14.8141 2.51637 14.5015 1.98067 13.946C1.44496 13.3904 1.14355 12.6371 1.14283 11.8519V4.1482C1.14283 3.49339 1.65426 2.96302 2.28567 2.96302C2.91708 2.96302 3.4285 3.49339 3.4285 4.1482V10.0953C3.4285 10.4109 3.68433 10.6667 3.99992 10.6667C4.3155 10.6667 4.57133 10.4109 4.57133 10.0953V4.1482C4.57133 2.83932 3.54777 1.77783 2.28567 1.77783C1.02356 1.77783 0 2.83932 0 4.1482V11.8519C0.00144454 12.9519 0.422848 14.006 1.17284 14.7838Z" fill="#003462"/>
</svg>
