<svg width="32" height="27" viewBox="0 0 32 27" fill="none" xmlns="http://www.w3.org/2000/svg">
<path id="folder-fill" d="M29.783 4.50001H16.9373C16.3658 4.50001 15.8444 4.18221 15.5887 3.67878L14.4458 1.42879C13.9901 0.549875 13.0716 -0.00279761 12.0687 1.06517e-05H2.21713C0.992838 1.06517e-05 0 0.977338 0 2.18252V24.8174C0 25.397 0.234284 25.951 0.649981 26.3602C1.0657 26.7693 1.62856 27 2.21713 27H29.7828C30.3713 27 30.9341 26.7693 31.3499 26.3602C31.7657 25.951 32 25.397 32 24.8174V6.68252C32 6.10313 31.7657 5.5491 31.3499 5.13984C30.9341 4.73062 30.3713 4.50001 29.7828 4.50001H29.783Z" fill="currentColor"/>
</svg>
