<svg width="32" height="32" viewBox="0 0 32 32" fill="none" xmlns="http://www.w3.org/2000/svg">
<path id="help" fill-rule="evenodd" clip-rule="evenodd" d="M25.4767 26.3051C22.9833 28.5992 19.6553 30 16 30C12.3447 30 9.01667 28.5992 6.52333 26.3051L10.0637 22.7648C11.6481 24.1563 13.7255 25 16 25C18.2745 25 20.3519 24.1563 21.9363 22.7648L25.4767 26.3051ZM8.71464 21.2854C7.63612 19.8013 7 17.9749 7 16C7 13.844 7.75811 11.865 9.02231 10.3152L5.47505 6.76796C3.31164 9.23238 2 12.463 2 16C2 19.3566 3.1813 22.4374 5.15084 24.8492L8.71464 21.2854ZM16 2C12.5248 2 9.34542 3.26618 6.8979 5.36238L10.45 8.91448C11.979 7.71513 13.906 7 16 7C17.997 7 19.842 7.65039 21.3349 8.7509L24.8963 5.1895C22.4776 3.19677 19.3786 2 16 2ZM26.8492 24.8492C28.8187 22.4374 30 19.3566 30 16C30 12.3666 28.6159 9.05645 26.3461 6.56811L22.8047 10.1095C24.1724 11.6881 25 13.7474 25 16C25 17.9749 24.3639 19.8013 23.2854 21.2854L26.8492 24.8492ZM32 16C32 24.8366 24.8366 32 16 32C7.16344 32 0 24.8366 0 16C0 7.16344 7.16344 0 16 0C24.8366 0 32 7.16344 32 16ZM23 16C23 19.866 19.866 23 16 23C12.134 23 9 19.866 9 16C9 12.134 12.134 9 16 9C19.866 9 23 12.134 23 16Z" fill="currentColor"/>
</svg>
