<svg width="34" height="29" viewBox="0 0 34 29" fill="none" xmlns="http://www.w3.org/2000/svg">
<path id="home" fill-rule="evenodd" clip-rule="evenodd" d="M18.7008 0.430731C17.9909 -0.130215 16.9927 -0.144648 16.2669 0.395534L0.403051 12.2012C-0.0400102 12.5309 -0.131891 13.1573 0.197829 13.6004C0.527548 14.0435 1.15401 14.1353 1.59707 13.8056L4.00006 12.0174V26.7579C4.00006 27.8624 4.89549 28.7579 6.00006 28.7579H12.048C13.1525 28.7579 14.048 27.8624 14.048 26.7579V17.5857H20.0001L20.0001 26.7579C20.0001 27.8624 20.8955 28.7579 22.0001 28.7579H28.1019C29.2064 28.7579 30.1019 27.8624 30.1019 26.7579V11.9879L32.3801 13.788C32.8134 14.1304 33.4423 14.0567 33.7847 13.6234C34.1271 13.19 34.0534 12.5612 33.62 12.2188L18.7008 0.430731ZM28.1019 10.4077L17.4609 2L6.00006 10.529V26.7579H12.048V17.5857C12.048 16.4811 12.9434 15.5857 14.048 15.5857H20.0001C21.1046 15.5857 22.0001 16.4811 22.0001 17.5857V26.7579H28.1019V10.4077Z" fill="#003462"/>
</svg>
