<svg width="34" height="32" viewBox="0 0 34 32" fill="none" xmlns="http://www.w3.org/2000/svg">
<path id="merge" fill-rule="evenodd" clip-rule="evenodd" d="M17.5663 1.23406C17.3787 1.04652 17.1244 0.941162 16.8592 0.941162C16.594 0.941162 16.3396 1.04652 16.1521 1.23406L7.98939 9.39673C7.59886 9.78726 7.59886 10.4204 7.98939 10.8109C8.37991 11.2015 9.01308 11.2015 9.4036 10.8109L15.8559 4.35863C15.8393 8.85121 15.7529 12.7706 15.4755 16.1169C15.1597 19.9269 14.6014 22.9141 13.6633 25.1236C12.7378 27.3037 11.4705 28.6674 9.7325 29.3621C7.95308 30.0733 5.52363 30.1475 2.15971 29.394C1.62078 29.2733 1.08603 29.6123 0.965313 30.1512C0.844598 30.6902 1.18363 31.2249 1.72256 31.3456C5.27013 32.1402 8.1612 32.144 10.4748 31.2192C12.8299 30.2779 14.4282 28.4398 15.5043 25.9052C16.1778 24.3189 16.6571 22.4378 16.9998 20.2868C17.3424 22.4378 17.8217 24.3189 18.4952 25.9052C19.5713 28.4398 21.1696 30.2779 23.5247 31.2192C25.8383 32.144 28.7294 32.1402 32.2769 31.3456C32.8159 31.2249 33.1549 30.6902 33.0342 30.1512C32.9135 29.6123 32.3787 29.2733 31.8398 29.394C28.4759 30.1475 26.0464 30.0733 24.267 29.3621C22.529 28.6674 21.2617 27.3037 20.3362 25.1236C19.3981 22.9141 18.8398 19.9269 18.524 16.1169C18.2524 12.8409 18.1639 9.01559 18.1447 4.64093L24.3147 10.8109C24.7053 11.2015 25.3384 11.2015 25.729 10.8109C26.1195 10.4204 26.1195 9.78726 25.729 9.39673L17.5663 1.23406Z" fill="#003462"/>
</svg>
