<svg width="29" height="32" viewBox="0 0 29 32" fill="none" xmlns="http://www.w3.org/2000/svg">
<path id="notification" d="M19.1391 27.3504C18.9959 29.9423 16.8506 32 14.2224 32C11.5942 32 9.44884 29.9423 9.30568 27.3504H1.64316C0.735018 27.3504 0 26.6175 0 25.7115V24.0684C0 22.2564 1.47009 20.7863 3.28419 20.7863L3.28206 14.2222C3.28206 9.59824 6.17312 5.54494 10.3932 3.9701V3.82694C10.3932 1.71367 12.109 0 14.2223 0C16.3377 0 18.0513 1.71367 18.0513 3.82694V3.9701C22.2714 5.54489 25.1625 9.59829 25.1625 14.2222V20.7863C26.9702 20.7863 28.4445 22.2564 28.4445 24.0684V25.7115C28.4445 26.6132 27.7073 27.3504 26.8014 27.3504H19.1391ZM16.9446 27.3504H11.5002C11.6391 28.7329 12.8036 29.812 14.2224 29.812C15.6413 29.812 16.8057 28.7329 16.9446 27.3504ZM26.2564 25.1624V24.0684C26.2564 23.4658 25.7628 22.9743 25.1602 22.9743C23.953 22.9743 22.9743 21.9978 22.9743 20.7863V14.2222C22.9743 10.2969 20.3675 6.88238 16.6536 5.81189L15.863 5.58325V3.82686C15.863 2.9209 15.128 2.18796 14.222 2.18796C13.3182 2.18796 12.581 2.92303 12.581 3.82686V5.58325L11.7904 5.81189C8.07666 6.88238 5.46966 10.2948 5.46966 14.2222V20.7863C5.46966 21.9935 4.48887 22.9743 3.28376 22.9743C2.67904 22.9743 2.1876 23.4658 2.1876 24.0684V25.1624H26.2564Z" fill="currentColor"/>
</svg>
