<svg width="32" height="32" viewBox="0 0 32 32" fill="none" xmlns="http://www.w3.org/2000/svg">
<path id="photo" fill-rule="evenodd" clip-rule="evenodd" d="M29 2H3C2.44772 2 2 2.44772 2 3V29C2 29.5523 2.44772 30 3 30H29C29.5523 30 30 29.5523 30 29V3C30 2.44772 29.5523 2 29 2ZM3 0C1.34315 0 0 1.34315 0 3V29C0 30.6569 1.34315 32 3 32H29C30.6569 32 32 30.6569 32 29V3C32 1.34315 30.6569 0 29 0H3ZM8.5 10.25C9.4665 10.25 10.25 9.4665 10.25 8.5C10.25 7.5335 9.4665 6.75 8.5 6.75C7.5335 6.75 6.75 7.5335 6.75 8.5C6.75 9.4665 7.5335 10.25 8.5 10.25ZM8.5 12C10.433 12 12 10.433 12 8.5C12 6.567 10.433 5 8.5 5C6.567 5 5 6.567 5 8.5C5 10.433 6.567 12 8.5 12ZM12.6772 15.4459C12.5015 15.2312 12.2344 15.1125 11.9573 15.126C11.6801 15.1396 11.4259 15.2838 11.272 15.5146L4.27196 26.0146C4.09296 26.2831 4.07627 26.6284 4.22853 26.9129C4.3808 27.1974 4.6773 27.375 5 27.375H27C27.3433 27.375 27.6549 27.1742 27.7968 26.8616C27.9387 26.5489 27.8846 26.1822 27.6585 25.9238L20.6585 17.9238C20.3426 17.5627 19.7948 17.5234 19.4306 17.8357L16.6103 20.253L12.6772 15.4459ZM6.63495 25.625L12.0719 17.4696L15.8228 22.0541C15.9719 22.2364 16.1883 22.3508 16.4229 22.3716C16.6575 22.3923 16.8906 22.3176 17.0694 22.1643L19.9118 19.728L25.0717 25.625H6.63495Z" fill="currentColor"/>
</svg>
