<svg width="23" height="24" viewBox="0 0 23 24" fill="none" xmlns="http://www.w3.org/2000/svg">
<path fill-rule="evenodd" clip-rule="evenodd" d="M0.0302734 3.73533C0.0302734 4.11719 0.339827 4.42674 0.72168 4.42674L10.8072 4.42674C10.8286 4.42674 10.8498 4.42577 10.8707 4.42386C11.1938 6.15799 12.715 7.47078 14.5428 7.47078C16.3706 7.47078 17.8917 6.15801 18.2149 4.42391C18.2356 4.42578 18.2566 4.42674 18.2778 4.42674H21.2661C21.648 4.42674 21.9575 4.11719 21.9575 3.73533C21.9575 3.35348 21.648 3.04393 21.2661 3.04393H18.2778C18.2566 3.04393 18.2356 3.04489 18.2148 3.04676C17.8917 1.31271 16.3705 0 14.5428 0C12.715 0 11.1939 1.31273 10.8707 3.0468C10.8498 3.0449 10.8286 3.04393 10.8072 3.04393L0.72168 3.04393C0.339827 3.04393 0.0302734 3.35348 0.0302734 3.73533ZM16.8954 3.73539C16.8954 5.03468 15.8421 6.08797 14.5428 6.08797C13.2435 6.08797 12.1902 5.03468 12.1902 3.73539C12.1902 2.4361 13.2435 1.38281 14.5428 1.38281C15.8421 1.38281 16.8954 2.4361 16.8954 3.73539ZM22.127 11.9997C22.127 12.3816 21.8174 12.6911 21.4355 12.6911L11.35 12.6911C11.3286 12.6911 11.3074 12.6902 11.2865 12.6883C10.9634 14.4224 9.44223 15.7352 7.61444 15.7352C5.78666 15.7352 4.26549 14.4224 3.94237 12.6883C3.92164 12.6902 3.90064 12.6911 3.87942 12.6911H0.891104C0.509251 12.6911 0.199698 12.3816 0.199698 11.9997C0.199698 11.6179 0.509251 11.3083 0.891104 11.3083H3.87942C3.90064 11.3083 3.92165 11.3093 3.94239 11.3112C4.26555 9.57712 5.78669 8.2644 7.61444 8.2644C9.4422 8.2644 10.9633 9.57714 11.2865 11.3112C11.3074 11.3093 11.3286 11.3083 11.35 11.3083L21.4355 11.3083C21.8174 11.3083 22.127 11.6179 22.127 11.9997ZM5.26186 11.9998C5.26186 13.2991 6.31514 14.3524 7.61444 14.3524C8.91373 14.3524 9.96701 13.2991 9.96701 11.9998C9.96702 10.7005 8.91373 9.64722 7.61444 9.64722C6.31514 9.64722 5.26186 10.7005 5.26186 11.9998ZM0.80593 21.0116C0.39333 21.0116 0.0588515 20.6772 0.0588515 20.2646C0.0588515 19.852 0.39333 19.5175 0.80593 19.5175H10.8915C10.9165 19.5175 10.9411 19.5187 10.9655 19.5211C11.3102 17.8143 12.8184 16.5292 14.6269 16.5292C16.4353 16.5292 17.9436 17.8143 18.2883 19.5211C18.3126 19.5187 18.3373 19.5175 18.3623 19.5175H21.3506C21.7632 19.5175 22.0977 19.852 22.0977 20.2646C22.0977 20.6772 21.7632 21.0116 21.3506 21.0116H18.3623C18.3373 21.0116 18.3126 21.0104 18.2883 21.008C17.9436 22.7148 16.4353 24 14.6269 24C12.8184 24 11.3102 22.7148 10.9655 21.008C10.9411 21.0104 10.9165 21.0116 10.8915 21.0116H0.80593ZM14.6269 22.5058C15.8647 22.5058 16.8681 21.5024 16.8681 20.2646C16.8681 19.0268 15.8647 18.0233 14.6269 18.0233C13.3891 18.0233 12.3856 19.0268 12.3856 20.2646C12.3856 21.5024 13.3891 22.5058 14.6269 22.5058Z" fill="#003462"/>
</svg>
