<svg width="32" height="22" viewBox="0 0 32 22" fill="none" xmlns="http://www.w3.org/2000/svg">
<path id="private" fill-rule="evenodd" clip-rule="evenodd" d="M6.39383 17.2756C5.89611 16.8968 5.39989 16.4902 4.90605 16.0565C2.17338 13.6097 0.494032 11.2328 0.428191 11.1291C0.170421 10.7556 0.17042 10.2617 0.428191 9.88819C0.493775 9.78456 2.17325 7.40772 4.90605 4.99595C8.59283 1.72274 12.4123 0 16 0C18.5394 0 21.1949 0.863101 23.8373 2.51575L26.1461 0.5622C26.5677 0.205456 27.1987 0.258038 27.5554 0.679644C27.9121 1.10125 27.8596 1.73223 27.438 2.08897L25.5421 3.69314C26.0613 4.08575 26.5789 4.5085 27.0939 4.96081C29.8265 7.37265 31.5046 9.78448 31.5717 9.88819C31.8295 10.2617 31.8295 10.7556 31.5717 11.1291C31.5061 11.2328 29.8267 13.6096 27.0939 16.0214C23.4071 19.2946 19.5876 21.0173 16 21.0173C13.4382 21.0173 10.7583 20.139 8.09295 18.4578L5.58467 20.5802C5.16306 20.937 4.53208 20.8844 4.17534 20.4628C3.81859 20.0412 3.87117 19.4102 4.29278 19.0535L6.39383 17.2756ZM7.99799 15.9183C6.09087 14.526 4.52164 12.9212 3.47031 11.7188C2.86308 11.0243 2.86766 9.99676 3.4767 9.30387C5.79931 6.66153 10.593 2.06715 16 2.06715C18.205 2.06715 20.3081 2.83124 22.1832 3.91543L18.7479 6.82217C17.9594 6.30246 17.015 6 16 6C13.2385 6 11 8.23858 11 11C11 11.7185 11.1515 12.4016 11.4244 13.019L7.99799 15.9183ZM9.74145 17.0629C11.6372 18.1677 13.7682 18.95 16 18.95C21.398 18.95 26.1851 14.3704 28.512 11.7261C29.1264 11.0278 29.1265 9.98935 28.5121 9.29106C27.444 8.07714 25.8574 6.45545 23.9313 5.05616L20.1694 8.23931C20.6942 9.03041 21 9.9795 21 11C21 13.7614 18.7614 16 16 16C14.6809 16 13.4811 15.4892 12.5876 14.6546L9.74145 17.0629ZM14.1321 13.3477C14.6446 13.756 15.2938 14 16 14C17.6568 14 19 12.6569 19 11C19 10.4726 18.8638 9.9769 18.6248 9.54625L14.1321 13.3477ZM17.1068 8.2108C16.7644 8.07477 16.3909 8 16 8C14.3431 8 13 9.34315 13 11C13 11.216 13.0228 11.4267 13.0662 11.6298L17.1068 8.2108Z" fill="currentColor"/>
</svg>
