<svg width="16" height="13" viewBox="0 0 16 13" fill="none" xmlns="http://www.w3.org/2000/svg">
<path d="M4.7077 2.8651H14.3936L12.3357 0.807229C12.1512 0.622665 12.1512 0.323667 12.3357 0.139115C12.5203 -0.0463718 12.8202 -0.0463718 13.0048 0.139115L15.8793 3.00165C15.9015 3.0238 15.9209 3.04687 15.9384 3.07271V3.09209C15.9513 3.11147 15.9624 3.13177 15.9716 3.15299V3.1816C15.979 3.20098 15.9855 3.22036 15.991 3.24066C16.003 3.30249 16.003 3.36524 15.991 3.42707C15.9855 3.44737 15.979 3.46675 15.9716 3.48613V3.51473C15.9624 3.53596 15.9513 3.55626 15.9384 3.57564V3.59502C15.9209 3.61993 15.9015 3.64393 15.8793 3.66607L13.0048 6.54538C12.8202 6.72995 12.5203 6.72995 12.3357 6.54538C12.1512 6.36082 12.1512 6.06182 12.3357 5.87727L14.4056 3.81016H4.7197C3.3604 3.84338 2.11822 4.5881 1.44823 5.77115C0.778278 6.9542 0.778278 8.40217 1.44823 9.58527C2.11819 10.7692 3.36033 11.513 4.7197 11.5472H8.45704C8.71729 11.5472 8.92952 11.7585 8.92952 12.0197C8.92952 12.2808 8.71728 12.4921 8.45704 12.4921H4.70766C3.01336 12.4543 1.46406 11.5287 0.627062 10.0551C-0.209021 8.58133 -0.209021 6.77629 0.627062 5.30261C1.46406 3.82795 3.01357 2.9024 4.70766 2.86555L4.7077 2.8651Z" fill="#003462"/>
</svg>
