<svg width="21" height="32" viewBox="0 0 21 32" fill="none" xmlns="http://www.w3.org/2000/svg">
<g id="roles">
<mask id="path-1-inside-1" fill="white">
<path fill-rule="evenodd" clip-rule="evenodd" d="M9.89442 9.95932C12.2137 9.95932 14.0938 8.0792 14.0938 5.75997C14.0938 3.44073 12.2137 1.56061 9.89442 1.56061C7.57518 1.56061 5.69507 3.44073 5.69507 5.75997C5.69507 8.0792 7.57518 9.95932 9.89442 9.95932ZM9.89442 11.5199C13.0756 11.5199 15.6544 8.94111 15.6544 5.75997C15.6544 2.57882 13.0756 0 9.89442 0C6.71328 0 4.13446 2.57882 4.13446 5.75997C4.13446 8.94111 6.71328 11.5199 9.89442 11.5199ZM18.594 22.4393C18.7654 21.0784 18.7791 19.0182 17.8392 17.3209C16.9462 15.7084 14.9725 14.0406 10.2158 14.0406C5.47497 14.0406 3.44507 15.6993 2.50185 17.326C1.51883 19.0214 1.48098 21.0752 1.61945 22.4393H10.2158H18.594ZM18.7042 23.9999C19.4047 23.9999 20.016 23.5348 20.1146 22.8414C20.5303 19.9192 20.5714 12.48 10.2158 12.48C-0.106176 12.48 -0.257872 19.871 0.0905496 22.8128C0.174301 23.5199 0.792264 23.9999 1.50433 23.9999H10.2158H18.7042ZM3.00001 32C4.65687 32 6.00001 30.6569 6.00001 29C6.00001 27.3431 4.65687 26 3.00001 26C1.34316 26 1.1691e-05 27.3431 1.1691e-05 29C1.1691e-05 30.6569 1.34316 32 3.00001 32ZM13 29C13 30.6569 11.6569 32 10 32C8.34316 32 7.00001 30.6569 7.00001 29C7.00001 27.3431 8.34316 26 10 26C11.6569 26 13 27.3431 13 29ZM17 32C18.6569 32 20 30.6569 20 29C20 27.3431 18.6569 26 17 26C15.3432 26 14 27.3431 14 29C14 30.6569 15.3432 32 17 32Z"/>
</mask>
<path d="M17.8392 17.3209L19.1514 16.5942L17.8392 17.3209ZM18.594 22.4393V23.9393H19.917L20.0823 22.6267L18.594 22.4393ZM2.50185 17.326L3.79949 18.0784H3.79949L2.50185 17.326ZM1.61945 22.4393L0.127118 22.5908L0.264005 23.9393H1.61945V22.4393ZM20.1146 22.8414L18.6296 22.6302V22.6302L20.1146 22.8414ZM0.0905496 22.8128L-1.39904 22.9892L0.0905496 22.8128ZM12.5938 5.75997C12.5938 7.25078 11.3852 8.45932 9.89442 8.45932V11.4593C13.0421 11.4593 15.5938 8.90763 15.5938 5.75997H12.5938ZM9.89442 3.06061C11.3852 3.06061 12.5938 4.26915 12.5938 5.75997H15.5938C15.5938 2.6123 13.0421 0.0606112 9.89442 0.0606112V3.06061ZM7.19507 5.75997C7.19507 4.26915 8.40361 3.06061 9.89442 3.06061V0.0606112C6.74675 0.0606112 4.19507 2.6123 4.19507 5.75997H7.19507ZM9.89442 8.45932C8.40361 8.45932 7.19507 7.25078 7.19507 5.75997H4.19507C4.19507 8.90763 6.74675 11.4593 9.89442 11.4593V8.45932ZM14.1544 5.75997C14.1544 8.11268 12.2471 10.0199 9.89442 10.0199V13.0199C13.904 13.0199 17.1544 9.76953 17.1544 5.75997H14.1544ZM9.89442 1.5C12.2471 1.5 14.1544 3.40725 14.1544 5.75997H17.1544C17.1544 1.7504 13.904 -1.5 9.89442 -1.5V1.5ZM5.63446 5.75997C5.63446 3.40725 7.54171 1.5 9.89442 1.5V-1.5C5.88485 -1.5 2.63446 1.7504 2.63446 5.75997H5.63446ZM9.89442 10.0199C7.54171 10.0199 5.63446 8.11268 5.63446 5.75997H2.63446C2.63446 9.76953 5.88485 13.0199 9.89442 13.0199V10.0199ZM16.527 18.0476C17.2357 19.3274 17.2634 21.0002 17.1058 22.2519L20.0823 22.6267C20.2674 21.1567 20.3225 18.7089 19.1514 16.5942L16.527 18.0476ZM10.2158 15.5406C12.4247 15.5406 13.8563 15.9284 14.789 16.4093C15.7022 16.8801 16.2113 17.4776 16.527 18.0476L19.1514 16.5942C18.5741 15.5517 17.6498 14.509 16.1638 13.7428C14.6972 12.9867 12.7635 12.5406 10.2158 12.5406V15.5406ZM3.79949 18.0784C4.13808 17.4945 4.67519 16.887 5.61347 16.4109C6.56933 15.9259 8.01538 15.5406 10.2158 15.5406V12.5406C7.67539 12.5406 5.73607 12.9846 4.25598 13.7356C2.75829 14.4956 1.80883 15.5309 1.20421 16.5736L3.79949 18.0784ZM3.11178 22.2878C2.98497 21.0386 3.05228 19.3671 3.79949 18.0784L1.20421 16.5736C-0.0146168 18.6756 -0.0230096 21.1118 0.127118 22.5908L3.11178 22.2878ZM10.2158 20.9393H1.61945V23.9393H10.2158V20.9393ZM18.594 20.9393H10.2158V23.9393H18.594V20.9393ZM18.6296 22.6302C18.6324 22.6104 18.6403 22.5852 18.6547 22.5604C18.6686 22.5366 18.6841 22.5206 18.6959 22.5111C18.7181 22.4933 18.7241 22.4999 18.7042 22.4999V25.4999C20.0483 25.4999 21.382 24.5832 21.5997 23.0526L18.6296 22.6302ZM10.2158 13.98C14.9888 13.98 16.986 15.6552 17.8922 17.2916C18.8848 19.084 18.8227 21.2722 18.6296 22.6302L21.5997 23.0526C21.8222 21.4885 21.9885 18.496 20.5167 15.8382C18.9584 13.0243 15.7984 10.98 10.2158 10.98V13.98ZM1.58014 22.6363C1.41881 21.2742 1.40973 19.0887 2.44941 17.2956C3.40589 15.6461 5.45865 13.98 10.2158 13.98V10.98C4.65097 10.98 1.4669 13.0094 -0.145862 15.7908C-1.67541 18.4287 -1.58613 21.4096 -1.39904 22.9892L1.58014 22.6363ZM1.50433 22.4999C1.48373 22.4999 1.49024 22.493 1.51332 22.5119C1.5256 22.522 1.54158 22.539 1.5556 22.564C1.57022 22.5901 1.57777 22.6163 1.58014 22.6363L-1.39904 22.9892C-1.21378 24.5533 0.13954 25.4999 1.50433 25.4999V22.4999ZM10.2158 22.4999H1.50433V25.4999H10.2158V22.4999ZM18.7042 22.4999H10.2158V25.4999H18.7042V22.4999ZM4.50001 29C4.50001 29.8284 3.82844 30.5 3.00001 30.5V33.5C5.48529 33.5 7.50001 31.4853 7.50001 29H4.50001ZM3.00001 27.5C3.82844 27.5 4.50001 28.1716 4.50001 29H7.50001C7.50001 26.5147 5.48529 24.5 3.00001 24.5V27.5ZM1.50001 29C1.50001 28.1716 2.17158 27.5 3.00001 27.5V24.5C0.51473 24.5 -1.49999 26.5147 -1.49999 29H1.50001ZM3.00001 30.5C2.17158 30.5 1.50001 29.8284 1.50001 29H-1.49999C-1.49999 31.4853 0.51473 33.5 3.00001 33.5V30.5ZM10 33.5C12.4853 33.5 14.5 31.4853 14.5 29H11.5C11.5 29.8284 10.8284 30.5 10 30.5V33.5ZM5.50001 29C5.50001 31.4853 7.51473 33.5 10 33.5V30.5C9.17159 30.5 8.50001 29.8284 8.50001 29H5.50001ZM10 24.5C7.51473 24.5 5.50001 26.5147 5.50001 29H8.50001C8.50001 28.1716 9.17159 27.5 10 27.5V24.5ZM14.5 29C14.5 26.5147 12.4853 24.5 10 24.5V27.5C10.8284 27.5 11.5 28.1716 11.5 29H14.5ZM18.5 29C18.5 29.8284 17.8284 30.5 17 30.5V33.5C19.4853 33.5 21.5 31.4853 21.5 29H18.5ZM17 27.5C17.8284 27.5 18.5 28.1716 18.5 29H21.5C21.5 26.5147 19.4853 24.5 17 24.5V27.5ZM15.5 29C15.5 28.1716 16.1716 27.5 17 27.5V24.5C14.5147 24.5 12.5 26.5147 12.5 29H15.5ZM17 30.5C16.1716 30.5 15.5 29.8284 15.5 29H12.5C12.5 31.4853 14.5147 33.5 17 33.5V30.5Z" fill="#003462" mask="url(#path-1-inside-1)"/>
</g>
</svg>
