<svg width="33" height="26" viewBox="0 0 33 26" fill="none" xmlns="http://www.w3.org/2000/svg">
<path id="scan" fill-rule="evenodd" clip-rule="evenodd" d="M7.11162 1C7.11162 0.447715 6.6639 0 6.11162 0H1.46469C0.655765 0 0 0.655766 0 1.46469V5.64693C0 6.19921 0.447715 6.64693 1 6.64693C1.55228 6.64693 2 6.19921 2 5.64693V2H6.11162C6.6639 2 7.11162 1.55228 7.11162 1ZM26.0061 0C25.4538 0 25.0061 0.447715 25.0061 1C25.0061 1.55228 25.4538 2 26.0061 2H30.1177V5.64693C30.1177 6.19921 30.5654 6.64693 31.1177 6.64693C31.67 6.64693 32.1177 6.19921 32.1177 5.64693V1.46469C32.1177 0.655766 31.4619 0 30.653 0H26.0061ZM5.82346 19.4029V5.74462H26.9169V19.4029H5.82346ZM3.82346 4.74462C3.82346 4.19233 4.27117 3.74462 4.82346 3.74462H27.9169C28.4691 3.74462 28.9169 4.19234 28.9169 4.74462V20.4029C28.9169 20.9552 28.4691 21.4029 27.9169 21.4029H4.82346C4.27117 21.4029 3.82346 20.9552 3.82346 20.4029V4.74462ZM26.0061 25.1475C25.4538 25.1475 25.0061 24.6997 25.0061 24.1475C25.0061 23.5952 25.4538 23.1475 26.0061 23.1475H30.1177V19.5005C30.1177 18.9482 30.5654 18.5005 31.1177 18.5005C31.67 18.5005 32.1177 18.9482 32.1177 19.5005V23.6828C32.1177 24.4917 31.4619 25.1475 30.653 25.1475H26.0061ZM7.11162 24.1475C7.11162 24.6997 6.6639 25.1475 6.11162 25.1475H1.46469C0.655765 25.1475 0 24.4917 0 23.6828V19.5005C0 18.9482 0.447715 18.5005 1 18.5005C1.55228 18.5005 2 18.9482 2 19.5005V23.1475H6.11162C6.6639 23.1475 7.11162 23.5952 7.11162 24.1475ZM9.4705 6.6675C10.0228 6.6675 10.4705 7.11521 10.4705 7.6675V17.744C10.4705 18.2963 10.0228 18.744 9.4705 18.744C8.91822 18.744 8.4705 18.2963 8.4705 17.744V7.6675C8.4705 7.11521 8.91822 6.6675 9.4705 6.6675ZM14.1764 6.6675C14.7287 6.6675 15.1764 7.11521 15.1764 7.6675V17.744C15.1764 18.2963 14.7287 18.744 14.1764 18.744C13.6241 18.744 13.1764 18.2963 13.1764 17.744V7.6675C13.1764 7.11521 13.6241 6.6675 14.1764 6.6675ZM19.8823 7.6675C19.8823 7.11521 19.4346 6.6675 18.8823 6.6675C18.3301 6.6675 17.8823 7.11521 17.8823 7.6675V17.744C17.8823 18.2963 18.3301 18.744 18.8823 18.744C19.4346 18.744 19.8823 18.2963 19.8823 17.744V7.6675ZM23.5883 6.6675C24.1405 6.6675 24.5883 7.11521 24.5883 7.6675V17.744C24.5883 18.2963 24.1405 18.744 23.5883 18.744C23.036 18.744 22.5883 18.2963 22.5883 17.744V7.6675C22.5883 7.11521 23.036 6.6675 23.5883 6.6675Z" fill="#003462"/>
</svg>
