<svg width="16" height="16" viewBox="0 0 16 16" fill="none" xmlns="http://www.w3.org/2000/svg">
<path d="M13.4119 9.85722C13.3758 9.96407 13.3361 10.0702 13.295 10.1749C13.2863 10.1965 13.2791 10.216 13.2697 10.2384C13.2394 10.3142 13.2712 10.237 13.2755 10.224C13.2539 10.2875 13.2214 10.3481 13.1926 10.4081C13.0858 10.6319 12.9906 10.8427 12.9964 11.0975C13 11.3358 13.0743 11.5812 13.2185 11.7703C13.2892 11.8642 13.3664 11.945 13.4479 12.0288C13.5201 12.101 13.5936 12.1746 13.6658 12.2468C13.6715 12.2526 13.6788 12.2576 13.6838 12.2649C13.691 12.2721 13.6982 12.2793 13.704 12.2865C13.7386 12.3212 13.7004 12.3168 13.6809 12.2576C13.6845 12.2685 13.699 12.2901 13.7062 12.301C13.7531 12.3746 13.6831 12.2013 13.699 12.2865C13.7004 12.301 13.7062 12.3226 13.7119 12.3356C13.6773 12.2468 13.7047 12.2548 13.7047 12.314C13.7047 12.3284 13.699 12.4136 13.7062 12.3284C13.7134 12.2454 13.7026 12.3248 13.699 12.3414C13.6903 12.3861 13.6643 12.3573 13.717 12.3038C13.7062 12.3147 13.6939 12.345 13.6867 12.3602C13.6614 12.4121 13.7646 12.2771 13.7026 12.3421C13.699 12.3457 13.6896 12.3551 13.6845 12.3623C13.6831 12.3638 13.6788 12.3681 13.6773 12.3695C13.6485 12.3999 13.6182 12.4287 13.5871 12.4598L12.3774 13.6705C12.3688 13.6791 12.3594 13.6907 12.3486 13.6993L12.3428 13.7051C12.337 13.7109 12.3298 13.7181 12.3226 13.7232C12.2613 13.7824 12.4113 13.669 12.319 13.7195C12.2555 13.7556 12.2988 13.7037 12.3464 13.7109C12.3392 13.7094 12.3031 13.7239 12.2974 13.7253C12.2122 13.7506 12.3911 13.7217 12.332 13.7217H12.2707C12.2202 13.7232 12.2577 13.6928 12.3154 13.7289C12.3024 13.7203 12.2707 13.7159 12.2562 13.713C12.2021 13.7001 12.3558 13.7708 12.2837 13.7239C12.2476 13.7008 12.2151 13.6553 12.2894 13.7383C12.1726 13.6098 12.0405 13.4914 11.9158 13.3687C11.602 13.0583 11.1208 12.9211 10.6967 13.0727C10.5813 13.1138 10.4731 13.1723 10.3612 13.2243C10.3107 13.2474 10.2602 13.2748 10.2083 13.2929C10.3021 13.2604 10.2444 13.2784 10.2227 13.2871C10.1924 13.3001 10.1593 13.3124 10.129 13.3246C9.92337 13.4055 9.69614 13.4582 9.51581 13.5918C9.18398 13.8408 9.01086 14.1946 9.01086 14.6082V14.9129V15.0269V15.0428C9.01086 15.0573 9.00509 15.1425 9.0123 15.0573C9.02096 14.9598 8.99787 15.0861 8.99787 15.0919C8.99643 15.0833 9.05198 14.9908 9.01591 15.0508C9.00869 15.0638 9.00004 15.0782 8.99283 15.0919C8.95531 15.1677 9.06857 15.0183 9.00725 15.076C8.99643 15.0869 8.98417 15.0977 8.97479 15.1085C8.93007 15.1576 9.0022 15.0833 9.01086 15.0811C8.99499 15.0847 8.96397 15.1085 8.94954 15.1172C8.90626 15.1424 8.93367 15.0955 8.99066 15.0991C8.97768 15.0991 8.93295 15.11 8.91997 15.1172C8.97768 15.0825 9.01952 15.1085 8.95459 15.11H8.94161H8.93295H8.88102H7.71818H7.1685H7.05165H7.04587C7.03 15.11 7.01125 15.1064 6.99538 15.1085C7.10719 15.1049 7.07833 15.1244 7.04227 15.1121C7.03505 15.1107 7.0264 15.1085 7.01918 15.1064C6.97446 15.0919 6.98889 15.0977 7.0603 15.1266C7.04948 15.1179 7.03001 15.1121 7.01918 15.1049C7.01053 15.0991 6.99033 15.0833 6.97951 15.0796C7.03866 15.1287 7.05164 15.1374 7.01558 15.1071C7.00692 15.0999 6.99971 15.0912 6.99033 15.0818C6.94705 15.0443 6.98889 15.0349 7.00836 15.1107C7.00476 15.0999 6.98816 15.0804 6.98312 15.071C6.9759 15.058 6.93623 14.988 6.9759 15.0602C7.01197 15.1287 6.98312 15.0638 6.9759 15.0457C6.96148 15.0024 6.9961 15.0082 6.97951 15.0926C6.97807 15.0984 6.97807 15.0363 6.97807 15.0421V15.0147V14.7129C6.97807 14.6277 6.97951 14.5411 6.97085 14.4566C6.942 14.1982 6.84822 13.9802 6.68591 13.7794C6.53803 13.5975 6.33244 13.4885 6.11459 13.4127C6.01937 13.3802 5.92342 13.3441 5.82965 13.3059C5.8044 13.295 5.77771 13.2842 5.75174 13.2734C5.68682 13.2459 5.85273 13.3181 5.75174 13.2734C5.70124 13.2503 5.64931 13.2286 5.59881 13.2026C5.36798 13.0943 5.1458 12.9918 4.88251 13.0063C4.65167 13.0193 4.42228 13.0871 4.23473 13.2264C4.06016 13.3564 3.91372 13.5224 3.75864 13.6755C3.75143 13.6827 3.74566 13.6885 3.73844 13.6957C3.73123 13.7029 3.72546 13.7087 3.71824 13.7159C3.65332 13.7794 3.78894 13.6762 3.73628 13.7C3.72185 13.7073 3.69155 13.7203 3.68001 13.7304C3.73195 13.6784 3.76297 13.7029 3.71752 13.7123C3.71031 13.7138 3.70165 13.7159 3.69444 13.7195C3.64755 13.7282 3.66198 13.7282 3.74133 13.7159C3.71969 13.7123 3.68939 13.7174 3.66775 13.7174C3.61725 13.7188 3.65476 13.6885 3.71247 13.7246C3.69949 13.7159 3.66775 13.7116 3.65332 13.7087C3.59922 13.6957 3.75287 13.7665 3.68073 13.7195C3.66991 13.7123 3.64827 13.6964 3.63745 13.6943C3.70382 13.7159 3.70093 13.7484 3.65765 13.7073C3.65404 13.7036 3.65044 13.7 3.64683 13.6986L3.63962 13.6914C3.39074 13.4474 3.14764 13.199 2.90023 12.9514C2.75596 12.807 2.60952 12.6605 2.46596 12.5168C2.42268 12.4735 2.38084 12.4316 2.33756 12.3883C2.32891 12.3796 2.31953 12.3702 2.31015 12.3609C2.30871 12.3594 2.30871 12.3594 2.30654 12.3572C2.31015 12.3609 2.26687 12.3161 2.27048 12.3175C2.31015 12.3717 2.32097 12.384 2.30294 12.3551C2.29572 12.3442 2.28995 12.3334 2.28274 12.3226C2.24523 12.2591 2.30077 12.3515 2.29717 12.3601C2.29861 12.3544 2.2813 12.2915 2.27697 12.2879C2.28274 12.2952 2.28418 12.4071 2.28418 12.3327V12.2822C2.28057 12.1934 2.25388 12.3868 2.28274 12.3038C2.28851 12.2908 2.29572 12.2677 2.29716 12.2547C2.28634 12.3378 2.2611 12.3284 2.28851 12.2822C2.3354 12.197 2.24739 12.3183 2.27769 12.2894C2.33395 12.2331 2.3895 12.1753 2.44577 12.1197C2.66074 11.9046 2.86993 11.6996 2.95216 11.3942C3.01347 11.1704 3.00987 10.9119 2.92908 10.6939C2.88435 10.5726 2.82232 10.4571 2.76893 10.3402C2.76028 10.3199 2.7509 10.299 2.74152 10.2788C2.74008 10.2752 2.69463 10.172 2.72349 10.2391C2.75234 10.3055 2.70906 10.2044 2.70762 10.1994C2.69463 10.1691 2.68237 10.1359 2.67011 10.1055C2.59437 9.90917 2.54171 9.69547 2.41403 9.52295C2.2575 9.31215 2.06056 9.16415 1.8117 9.07535C1.58087 8.99449 1.31757 9.01759 1.07735 9.01759H0.974921H0.937411C0.886916 9.01759 0.924427 8.99233 0.9843 9.02481C0.97348 9.01904 0.928034 9.0046 0.913608 9.00677C0.935249 9.01543 0.954726 9.02481 0.977087 9.03564C0.96266 9.02842 0.948233 9.0212 0.935969 9.01398C0.925149 9.00821 0.907115 8.99233 0.896295 8.98872C0.962659 9.00677 0.964823 9.05008 0.932363 9.01615C0.919378 9.00316 0.899902 8.975 0.883311 8.96562C0.891968 8.97139 0.942462 9.05947 0.912166 9.00027C0.904952 8.98727 0.896296 8.97139 0.889082 8.95912C0.8458 8.88548 0.91433 9.0638 0.899903 8.97933C0.89846 8.97211 0.896296 8.96345 0.894132 8.95623C0.885475 8.9093 0.885475 8.92591 0.897738 9.00316C0.903509 8.97428 0.896296 8.92374 0.896296 8.89126V8.68911V8.05742C0.896296 7.72532 0.890525 7.39179 0.896296 7.05972V7.05394C0.896296 7.0395 0.902067 6.95432 0.894853 7.0395C0.887639 7.12253 0.89846 7.04528 0.902067 7.02867C0.912887 6.9637 0.889082 7.059 0.881868 7.06983C0.892688 7.05683 0.902067 7.03373 0.90928 7.01785C0.930921 6.97092 0.959775 6.99041 0.886196 7.04311C0.900624 7.03229 0.922264 7.00558 0.935248 6.99258C0.991514 6.93338 0.859505 7.03228 0.907836 7.01279C0.923705 7.00557 0.943903 6.99258 0.958331 6.98392C1.00161 6.95865 0.974201 7.00557 0.917213 7.00196C0.93164 7.00341 0.960495 6.99114 0.974922 6.98608C1.03119 6.9702 0.852292 6.99186 0.940297 6.99186H0.965544H0.998005C1.20143 6.99186 1.40774 7.00485 1.61116 6.97742C1.85065 6.94493 2.062 6.8417 2.24595 6.68504C2.42268 6.53344 2.52367 6.32985 2.59796 6.11327C2.63259 6.0122 2.6701 5.91112 2.71194 5.8115C2.71915 5.79346 2.72636 5.76241 2.73718 5.74797C2.72997 5.76241 2.7242 5.7783 2.71699 5.79273C2.7242 5.77685 2.72997 5.76241 2.73718 5.74581C2.76243 5.6895 2.78768 5.63391 2.81509 5.5776C2.92185 5.35381 3.01346 5.13144 2.99543 4.87878C2.97523 4.60589 2.88001 4.36478 2.70473 4.15324C2.65279 4.08971 2.59075 4.03412 2.53304 3.9742C2.46235 3.90345 2.39021 3.83343 2.32025 3.76124L2.30582 3.7468C2.30943 3.75041 2.26615 3.70565 2.26976 3.7071C2.33107 3.73742 2.31448 3.77785 2.295 3.73453C2.28923 3.72154 2.24595 3.6479 2.28418 3.72009C2.32025 3.78868 2.28995 3.71865 2.28274 3.70205C2.25966 3.63707 2.28995 3.7367 2.28635 3.74897C2.29212 3.73092 2.2849 3.69483 2.2849 3.67533C2.2813 3.58654 2.25461 3.78001 2.28346 3.69699C2.28923 3.684 2.29645 3.6609 2.29789 3.6479C2.28707 3.73092 2.26038 3.72154 2.28346 3.68544C2.28707 3.67822 2.29212 3.671 2.29645 3.66378C2.32169 3.62408 2.31232 3.63346 2.2712 3.69122C2.28707 3.684 2.30149 3.65656 2.31592 3.64213C2.34622 3.60964 2.3794 3.5786 2.4097 3.54828C2.54315 3.41472 2.67804 3.27972 2.81222 3.14544C3.08056 2.87689 3.34964 2.60759 3.61654 2.34048C3.62519 2.33182 3.63457 2.32243 3.64395 2.31305C3.64539 2.31161 3.64539 2.31161 3.64755 2.30944C3.65838 2.29861 3.71103 2.2358 3.66198 2.29356C3.62952 2.31666 3.62952 2.32099 3.65838 2.29933C3.6728 2.29067 3.68723 2.28345 3.7031 2.27623C3.69589 2.28489 3.5985 2.31088 3.66559 2.29428C3.6728 2.29284 3.70526 2.28706 3.71464 2.28128C3.69156 2.28489 3.66775 2.28706 3.64395 2.28995C3.65982 2.2885 3.67641 2.2885 3.693 2.2885C3.70887 2.2885 3.72763 2.29211 3.74205 2.28995C3.63024 2.29356 3.66126 2.27407 3.69516 2.28634C3.70238 2.28778 3.71103 2.28995 3.71825 2.29356C3.76297 2.308 3.75071 2.30222 3.68073 2.27551C3.68795 2.28273 3.71825 2.29572 3.72546 2.29861C3.8012 2.33615 3.65693 2.22786 3.71825 2.28995C3.83727 2.4069 3.95484 2.52819 4.07532 2.64514C4.39777 2.95918 4.889 3.0913 5.31606 2.92669C5.43292 2.88193 5.54329 2.82417 5.65655 2.77147C5.68685 2.75703 5.71786 2.74404 5.74816 2.73032C5.78279 2.71588 5.79144 2.69062 5.73373 2.7361C5.77702 2.70144 5.85636 2.68556 5.90686 2.66751C6.00208 2.63142 6.10019 2.6011 6.19396 2.56283C6.33463 2.50652 6.44644 2.44155 6.5633 2.34625C6.8504 2.11163 6.97592 1.75065 6.97592 1.38753V1.0771V0.96881C6.97592 0.954371 6.97736 0.938489 6.97736 0.92405C6.97736 0.866296 6.94706 1.041 6.97375 0.960146C6.9752 0.952927 6.97736 0.944264 6.97952 0.937044C6.99395 0.892284 6.98818 0.906724 6.95932 0.978195C6.97231 0.962312 7.03723 0.859077 6.98457 0.92405C6.93047 0.989023 7.0192 0.902392 7.0293 0.884345C6.9788 0.957982 6.95716 0.929105 7.00405 0.907446C7.01992 0.900227 7.04156 0.891564 7.05599 0.880013C6.97303 0.93921 6.97664 0.90889 7.01487 0.900227C7.03074 0.894452 7.04517 0.891564 7.06176 0.889399C7.03867 0.893008 7.01487 0.895174 6.98962 0.898062C7.01704 0.905281 7.07835 0.896618 7.10648 0.896618H7.60062H8.82548H8.93007H8.95893C9.03106 0.896618 8.91925 0.895174 8.91204 0.889399C8.9207 0.895174 8.95893 0.903837 8.96975 0.903837C9.02168 0.905281 8.86876 0.847526 8.93945 0.889399C8.95244 0.896618 8.96686 0.905281 8.98057 0.9125C9.0527 0.948596 8.92286 0.84897 8.95532 0.890842C8.96831 0.906724 8.995 0.939932 9.01303 0.948596C9.00437 0.942821 8.95388 0.854746 8.98418 0.913944C8.99139 0.926938 9.00005 0.942821 9.00726 0.955094C9.05054 1.02873 8.98201 0.850414 8.99644 0.934881C8.99788 0.94932 9.00365 0.969534 9.00726 0.981807C8.9748 0.89301 9.00005 0.89301 9.00005 0.934881V0.963758V0.998411V1.3074C9.00005 1.43013 9.00365 1.54564 9.02313 1.6662C9.0592 1.88638 9.16884 2.08491 9.31527 2.25097C9.47181 2.42784 9.67595 2.52386 9.89596 2.59893C9.99118 2.63359 10.0871 2.66752 10.1809 2.70722C10.2011 2.71589 10.3093 2.75054 10.1968 2.71444C10.217 2.72166 10.2379 2.73249 10.2581 2.74188C10.3144 2.76714 10.3699 2.79241 10.4262 2.81984C10.6483 2.92669 10.872 3.01333 11.1223 2.99311C11.3949 2.97145 11.6344 2.87182 11.8436 2.69567C11.9792 2.58016 12.0997 2.44299 12.2259 2.31882C12.2295 2.31521 12.2331 2.3116 12.2367 2.30799C12.2476 2.29716 12.3002 2.23435 12.2512 2.2921C12.2079 2.34264 12.2497 2.29932 12.2714 2.28633C12.3161 2.25745 12.2872 2.30943 12.2339 2.30077C12.2469 2.30221 12.2808 2.28777 12.293 2.28488C12.3493 2.26684 12.1718 2.28633 12.2584 2.29066C12.28 2.29066 12.3103 2.29644 12.332 2.2921C12.2454 2.30799 12.2432 2.27406 12.2851 2.28849C12.301 2.29427 12.3702 2.32459 12.3031 2.28994C12.231 2.2524 12.3046 2.29571 12.3175 2.30077C12.3789 2.3282 12.2959 2.28994 12.2901 2.2755C12.2959 2.28994 12.3248 2.30582 12.3392 2.32026C12.4308 2.4105 12.5231 2.50435 12.6147 2.59604L13.6888 3.67099C13.73 3.7143 13.6636 3.67243 13.6658 3.64211C13.6658 3.64933 13.6946 3.70131 13.7033 3.70853C13.6564 3.66377 13.6708 3.6219 13.6874 3.68326C13.7004 3.72802 13.6816 3.75545 13.6874 3.64861C13.6874 3.67027 13.6838 3.80021 13.691 3.71214C13.6982 3.62912 13.6874 3.70853 13.6838 3.72513C13.6708 3.79155 13.691 3.69626 13.7018 3.68759C13.691 3.69626 13.6787 3.72874 13.6715 3.7439C13.6535 3.77278 13.6643 3.75979 13.704 3.70637C13.6932 3.7208 13.6809 3.7338 13.6679 3.74607C13.6174 3.79805 13.5669 3.84714 13.515 3.89912C13.2986 4.1157 13.088 4.3265 13.0137 4.63909C12.9545 4.88817 12.9725 5.14589 13.0714 5.38123C13.1161 5.48807 13.1709 5.59203 13.2171 5.69889C13.2257 5.7191 13.2351 5.74004 13.2445 5.76025C13.2892 5.86132 13.2192 5.69528 13.2445 5.76025C13.2676 5.81801 13.2914 5.87576 13.313 5.93352C13.3541 6.0418 13.3888 6.15154 13.4342 6.25838C13.4861 6.38255 13.5482 6.48073 13.6362 6.58541C13.7769 6.75362 13.9767 6.87418 14.1844 6.93916C14.4138 7.01135 14.6735 6.98969 14.9108 6.98969H15.0025C15.0205 6.98969 15.04 6.9933 15.0602 6.99114C14.9484 6.99475 14.9772 6.97526 15.0133 6.98753C15.0291 6.99114 15.0436 6.99619 15.0602 7.00052C14.9938 6.9702 14.975 6.96298 15.0082 6.97742C15.0227 6.98825 15.0429 6.99764 15.0602 7.0063C15.0977 7.02651 15.0746 7.046 15.0255 6.97742C15.0342 6.99186 15.0544 7.0063 15.0688 7.01713C15.1121 7.05467 15.0703 7.06405 15.0508 6.98825C15.0566 7.0063 15.1244 7.11459 15.0833 7.03878C15.0472 6.9702 15.076 7.03518 15.0833 7.05322C15.1085 7.12903 15.0818 6.94349 15.0818 7.03012V7.33189V8.6227C15.0818 8.73243 15.0833 8.84288 15.0818 8.95117C15.0818 8.96416 15.0804 8.9786 15.0804 8.99087C15.0804 9.04863 15.1107 8.87392 15.084 8.95478C15.0804 8.96344 15.0695 8.99448 15.071 9.0017C15.0652 8.93673 15.1179 8.91507 15.084 8.96922C15.0768 8.98221 15.0551 9.00531 15.0537 9.01975C15.0551 9.01109 15.1294 8.93673 15.0811 8.98365C15.0667 8.99809 15.0414 9.01398 15.0306 9.03275C15.0811 8.95911 15.1027 8.98798 15.0558 9.00964C15.04 9.01686 15.0183 9.02553 15.0039 9.03708C15.0869 8.97788 15.0833 9.0082 15.045 9.01686C15.0292 9.02047 14.9512 9.0313 15.0342 9.02408C15.1172 9.01686 14.9981 9.02264 14.9729 9.02264C14.7962 9.02264 14.6122 9.00964 14.4355 9.02986C13.9529 9.08906 13.5756 9.39588 13.4119 9.85719C13.3325 10.0795 13.502 10.3611 13.7278 10.4131C13.9803 10.4708 14.1981 10.3373 14.2832 10.0969C14.3135 10.0081 14.2313 10.1907 14.276 10.1113C14.2847 10.0969 14.2919 10.0824 14.2991 10.068C14.3099 10.05 14.3222 10.0333 14.3337 10.016C14.364 9.96693 14.2544 10.099 14.3179 10.0391C14.3287 10.0283 14.3395 10.016 14.3525 10.003C14.3655 9.99003 14.4261 9.94888 14.3612 9.99003C14.2926 10.0333 14.3626 9.99003 14.3741 9.98281C14.3943 9.96982 14.4153 9.95755 14.4376 9.94672C14.5134 9.9034 14.3525 9.97559 14.4088 9.95755C14.429 9.95177 14.4463 9.94311 14.4665 9.93733C14.4823 9.93372 14.4989 9.93011 14.5155 9.92434C14.6021 9.90268 14.4217 9.93011 14.4831 9.92795C14.5206 9.9265 14.5566 9.92434 14.5949 9.92434C14.817 9.92434 15.0551 9.94599 15.273 9.89402C15.7058 9.78934 15.9929 9.38145 15.9994 8.94829C16.0008 8.82412 15.9994 8.69921 15.9994 8.57434V7.27848C15.9994 7.12327 16.0051 6.96949 15.9691 6.81645C15.8623 6.37463 15.4439 6.0909 15.0039 6.08946H14.7117H14.5761H14.5487H14.5213C14.5083 6.08946 14.496 6.08802 14.4838 6.08802C14.4477 6.08441 14.4679 6.08802 14.5415 6.09668C14.509 6.08224 14.4564 6.07502 14.4225 6.06636C14.3539 6.04615 14.4571 6.07719 14.4621 6.08441C14.4492 6.06997 14.4131 6.05914 14.3972 6.04976C14.3828 6.04109 14.3698 6.03171 14.3561 6.02232C14.284 5.9754 14.421 6.08152 14.3792 6.04037C14.3648 6.02593 14.3489 6.01294 14.3359 5.99922C14.3085 5.97034 14.2818 5.91042 14.3431 6.0151C14.3229 5.97901 14.2998 5.94436 14.2782 5.90826C14.2493 5.85772 14.3056 5.91187 14.2926 5.9458C14.2984 5.93136 14.2724 5.88804 14.2674 5.87361C14.2299 5.76171 14.1866 5.64982 14.1411 5.54152C14.0921 5.4224 14.0416 5.30327 13.9882 5.18632C13.9651 5.13579 13.9413 5.08525 13.9161 5.03472C13.8786 4.96253 13.9319 5.06215 13.9291 5.06504C13.9348 5.05638 13.906 4.98707 13.9017 4.97335C13.8908 4.92643 13.9103 4.89972 13.9031 5.00079C13.9045 4.98491 13.9017 4.96469 13.8995 4.94664C13.8995 4.92498 13.9009 4.90188 13.9009 4.88022C13.9009 4.81886 13.8757 4.99718 13.8973 4.90766C13.906 4.87156 13.937 4.81381 13.9348 4.77916C13.9348 4.79215 13.8843 4.87445 13.9218 4.81381C13.9363 4.79215 13.9507 4.76688 13.963 4.74523C14.012 4.66437 13.8923 4.81742 13.9615 4.751C13.9687 4.74378 13.9745 4.73656 13.9817 4.73079C13.9889 4.72357 13.9947 4.71779 14.0019 4.71057C14.0344 4.67808 14.0654 4.64704 14.0971 4.61528C14.1678 4.54453 14.24 4.4745 14.3099 4.40232C14.6288 4.07745 14.7124 3.55622 14.4455 3.16926C14.3604 3.04653 14.2508 2.94547 14.1462 2.84079L13.2264 1.92033C13.1457 1.83947 13.0663 1.75789 12.9848 1.67848C12.6111 1.31968 12.047 1.30669 11.6539 1.64094C11.5204 1.75501 11.4029 1.89001 11.2788 2.01273C11.2701 2.02139 11.2608 2.03078 11.2514 2.04016C11.185 2.10875 11.3379 1.98963 11.2572 2.03872C11.2413 2.04738 11.2269 2.05893 11.2124 2.0676C11.1944 2.07843 11.1237 2.09792 11.1944 2.08059C11.2701 2.06254 11.1872 2.08204 11.1728 2.08637C11.1569 2.09214 11.1381 2.0972 11.1223 2.10081C11.1042 2.10441 11.0876 2.10802 11.0703 2.11163C11.092 2.10802 11.115 2.10441 11.1367 2.10297C11.115 2.09431 11.0321 2.10153 11.0032 2.10297C11.1042 2.09575 11.0768 2.11597 11.0306 2.10441C11.009 2.09864 10.9874 2.09142 10.9657 2.08637C10.8864 2.06832 11.0004 2.09359 10.996 2.10225C10.996 2.10081 10.9325 2.07193 10.9253 2.0676C10.8691 2.04016 10.8135 2.01562 10.7573 1.98818C10.6346 1.93187 10.5106 1.87989 10.3858 1.83153C10.3389 1.81348 10.292 1.79543 10.2429 1.77738C10.2105 1.76655 10.1795 1.75428 10.1477 1.74273C10.1275 1.73551 10.0756 1.70663 10.059 1.71241C10.0936 1.69941 10.1477 1.75717 10.0965 1.72685C10.0749 1.71385 10.0532 1.70374 10.0316 1.69075C10.0171 1.68209 10.0042 1.67054 9.99045 1.66332C10.0842 1.71746 10.0482 1.71241 10.0251 1.68642C10.0092 1.66837 9.99045 1.65177 9.97314 1.63444C9.94573 1.60917 9.95294 1.58246 9.99623 1.66909C9.9818 1.63877 9.94429 1.56441 9.92048 1.54276C9.92625 1.54853 9.95799 1.65104 9.93852 1.58246C9.93274 1.56225 9.92553 1.54276 9.92048 1.52326C9.91471 1.50521 9.91471 1.4785 9.9075 1.4619C9.91111 1.46912 9.91471 1.57885 9.91471 1.50666C9.91471 1.47201 9.91327 1.43591 9.91327 1.40198V1.08578C9.91327 0.957279 9.91327 0.8295 9.8772 0.704603C9.80651 0.46636 9.64493 0.251237 9.42852 0.128503C9.23375 0.0187697 9.026 0 8.8103 0H7.54794H7.08771C6.7328 0 6.40243 0.166044 6.21848 0.476468C6.06556 0.734911 6.08503 1.01936 6.08503 1.30669V1.42941V1.45252C6.08503 1.46551 6.08503 1.47778 6.08359 1.49222C6.07782 1.60195 6.10884 1.40198 6.08503 1.485C6.07421 1.5211 6.06483 1.55575 6.05473 1.59185C6.0367 1.64816 6.10884 1.48717 6.06555 1.56297C6.05834 1.57741 6.05113 1.59185 6.04247 1.60629C6.02949 1.6265 6.01001 1.64599 6.00135 1.66765C6.00496 1.66043 6.07493 1.58246 6.02444 1.633C6.01362 1.64383 6.0028 1.6561 5.98981 1.66765C5.97683 1.67848 5.96673 1.68931 5.95374 1.70014C6.01001 1.65899 6.02444 1.64816 5.99703 1.66765C5.96457 1.68786 5.93355 1.70519 5.90181 1.7254C5.82246 1.77016 6.00424 1.69292 5.91624 1.71818C5.89459 1.72396 5.87295 1.73262 5.85131 1.73984C5.74455 1.77738 5.63852 1.81781 5.53537 1.86113C5.40552 1.91527 5.27713 1.96942 5.15161 2.02934C5.10688 2.051 5.06144 2.07049 5.01816 2.09431C4.96406 2.12319 5.12636 2.05966 5.03619 2.08565C5.00878 2.09287 4.98425 2.10009 4.95684 2.10586C4.86667 2.12752 5.04557 2.10225 4.98425 2.10225C4.96261 2.10225 4.93953 2.1037 4.91789 2.1037C4.90202 2.1037 4.88182 2.10009 4.86595 2.10009C4.9655 2.09287 4.94169 2.11308 4.8948 2.10153C4.86018 2.09431 4.81545 2.06688 4.78083 2.06688C4.80103 2.0741 4.8205 2.08276 4.83998 2.08998C4.82411 2.08276 4.80752 2.0741 4.79309 2.06471C4.77506 2.05388 4.74404 2.02356 4.72456 2.01995C4.77145 2.02573 4.79093 2.07771 4.75198 2.038C4.7462 2.03222 4.73755 2.02356 4.73033 2.01634L4.7123 1.99829C4.67623 1.9622 4.64017 1.9261 4.6041 1.89C4.39851 1.68425 4.20158 1.46551 3.89861 1.41354C3.54514 1.35217 3.22775 1.46768 2.97672 1.71818C2.69684 1.99829 2.41549 2.27985 2.13633 2.55923C2.0101 2.68557 1.88242 2.81335 1.75546 2.94041C1.73021 2.96568 1.70496 2.99095 1.67971 3.01621C1.5102 3.19309 1.41642 3.40966 1.39695 3.65295C1.37531 3.91646 1.48568 4.17418 1.66025 4.36766C1.71075 4.42397 1.76701 4.47451 1.81895 4.52649L2.01516 4.72285C2.02381 4.73151 2.05123 4.76978 2.05844 4.76761C2.03536 4.77122 2.00434 4.68676 2.03824 4.74018C2.05267 4.76328 2.06565 4.7871 2.07936 4.80876C2.10461 4.84847 2.0707 4.84486 2.06638 4.77411C2.06638 4.79216 2.08224 4.81887 2.08802 4.83764C2.09379 4.8593 2.09884 4.88095 2.10389 4.90261C2.12553 4.98563 2.10028 4.79576 2.10028 4.88817C2.10028 4.90622 2.10172 4.92427 2.10028 4.94232C2.10028 4.95098 2.10028 4.96037 2.09884 4.96975C2.09523 5.01884 2.09739 5.00585 2.10605 4.93005C2.09018 4.95748 2.08441 5.01668 2.07575 5.047C2.06133 5.10619 2.12769 4.94448 2.08441 5.02895C2.07359 5.04916 2.06421 5.06865 2.05556 5.08815C2.0267 5.14951 1.99785 5.20943 1.97044 5.27007C1.9185 5.38703 1.868 5.50686 1.82039 5.62743C1.80019 5.67941 1.78072 5.73211 1.76124 5.78625C1.75403 5.80791 1.74682 5.82957 1.73816 5.84978C1.73239 5.86567 1.68406 5.98551 1.72013 5.90754C1.75475 5.83534 1.69848 5.94508 1.6855 5.96529C1.67829 5.97612 1.6314 6.04615 1.67829 5.97973C1.72301 5.91476 1.67684 5.97829 1.6653 5.99056C1.65448 6.00139 1.64222 6.01222 1.63068 6.02521C1.56936 6.09018 1.72085 5.9689 1.6451 6.01655C1.61264 6.03676 1.56575 6.05264 1.53834 6.07791C1.55999 6.06925 1.57946 6.05986 1.60182 6.05265C1.5874 6.05842 1.57153 6.06347 1.55493 6.06853C1.53907 6.0743 1.52247 6.07719 1.50805 6.08152C1.49506 6.08513 1.47198 6.08513 1.45899 6.09235C1.48208 6.08874 1.50588 6.08658 1.52969 6.08369C1.51382 6.08513 1.49506 6.0873 1.47919 6.0873C1.45034 6.08874 1.42148 6.0873 1.39407 6.0873C1.16684 6.0873 0.912199 6.06203 0.692906 6.127C0.278125 6.25117 0.0076247 6.63812 0.00256482 7.0655C-0.00320603 7.41926 0.00256482 7.77443 0.00256482 8.13034V8.75121C0.00256482 8.90787 -0.00464881 9.0674 0.0386322 9.21901C0.164869 9.65361 0.563789 9.92289 1.00669 9.92289H1.31544H1.43446H1.45466C1.47053 9.92289 1.48929 9.92433 1.50516 9.92433C1.59388 9.92794 1.40417 9.90123 1.48496 9.92289C1.52463 9.93372 1.56431 9.94599 1.60398 9.95898C1.49434 9.92866 1.53906 9.93011 1.57369 9.95032C1.59172 9.95898 1.60976 9.97053 1.62563 9.98064C1.63861 9.98786 1.65304 10.0023 1.6653 10.0081C1.57874 9.96692 1.60615 9.96115 1.64005 9.99219L1.68333 10.0355C1.74465 10.0947 1.62923 9.94888 1.67468 10.0211C1.69488 10.0536 1.71219 10.1019 1.73599 10.1294C1.68694 10.0702 1.7057 10.0499 1.71796 10.0933C1.72662 10.1258 1.7396 10.1582 1.75042 10.1886C1.78793 10.2954 1.82977 10.3994 1.87305 10.5048C1.9221 10.6239 1.9726 10.743 2.02814 10.8585C2.04978 10.9054 2.06926 10.9596 2.09883 11.0043C2.04473 10.9191 2.07575 10.9451 2.08585 10.9863C2.09306 11.0094 2.09306 11.0585 2.10749 11.078C2.10028 11.0693 2.10172 10.9639 2.10028 11.0383C2.10028 11.0599 2.10172 11.083 2.10028 11.1047C2.09883 11.1639 2.07142 11.1458 2.10749 11.0773C2.10172 11.0902 2.10028 11.1184 2.09667 11.1292C2.0909 11.1509 2.08585 11.1725 2.07864 11.1928C2.06277 11.2433 2.03535 11.2375 2.08946 11.1711C2.0808 11.1841 2.07359 11.2036 2.06421 11.218C2.05555 11.2339 2.04617 11.2483 2.03535 11.2628C2.01371 11.2931 2.01371 11.2917 2.0368 11.2613C2.05988 11.2036 2.0368 11.2577 2.0166 11.2772L2.01516 11.2787C2.00794 11.2873 1.99929 11.2946 1.99207 11.3018C1.95745 11.3364 1.92571 11.3682 1.89108 11.4028C1.82255 11.4714 1.75402 11.54 1.68549 11.6086C1.3212 11.9804 1.30678 12.5384 1.63355 12.9384C1.70208 13.0236 1.78648 13.0972 1.86295 13.1752C2.01443 13.3268 2.16447 13.4769 2.31595 13.6285C2.55039 13.8632 2.77906 14.1014 3.01712 14.3303C3.39799 14.6948 3.97652 14.6999 4.36822 14.3505C4.49445 14.2364 4.60627 14.1086 4.72673 13.9917L4.72817 13.9902C4.74837 13.97 4.80175 13.9491 4.74404 13.97C4.67912 13.9953 4.74981 13.9686 4.76424 13.957C4.77867 13.9484 4.7967 13.939 4.81113 13.9296C4.88904 13.879 4.71158 13.9585 4.80247 13.931C4.81834 13.9253 4.8371 13.9202 4.85297 13.9151C4.871 13.9094 4.88759 13.9079 4.90491 13.9021C4.99003 13.879 4.7931 13.9079 4.90346 13.9036C4.92511 13.9036 4.94819 13.905 4.96983 13.9036C5.04341 13.9021 4.93953 13.9036 4.93016 13.8964C4.95035 13.9108 5.03259 13.9267 5.06144 13.931C4.99075 13.9238 4.98931 13.8964 5.03115 13.918C5.06 13.9339 5.0903 13.9469 5.12132 13.9613C5.17181 13.9844 5.22231 14.0083 5.27424 14.0321C5.40264 14.0898 5.53248 14.144 5.66234 14.1945C5.70923 14.2126 5.75756 14.2306 5.80517 14.2465C5.83258 14.2552 5.85927 14.2646 5.88452 14.2754C5.89894 14.2812 5.91337 14.284 5.9278 14.2898C5.96026 14.3028 5.94367 14.2956 5.87875 14.2682C5.9076 14.2913 5.95449 14.3093 5.98695 14.3295C6.04827 14.3656 5.9581 14.3115 5.95449 14.3043C5.96171 14.3187 5.98695 14.3331 5.99922 14.3454C6.0122 14.3584 6.02663 14.3815 6.04033 14.3902C5.9884 14.3599 5.9884 14.3165 6.01509 14.3577C6.02807 14.3793 6.0425 14.3988 6.0526 14.419C6.07279 14.4537 6.08289 14.5201 6.04899 14.3988C6.05981 14.4349 6.07207 14.4696 6.08145 14.5057C6.09011 14.5468 6.08001 14.5865 6.08001 14.471C6.08001 14.4869 6.08361 14.5057 6.08361 14.5216C6.08506 14.554 6.08361 14.5865 6.08361 14.619V14.9309C6.08361 15.0608 6.08722 15.1944 6.1269 15.3193C6.20264 15.5518 6.36855 15.7705 6.59001 15.8824C6.78837 15.9835 6.98818 15.9994 7.20316 15.9994H7.78384C8.1604 15.9994 8.53765 16.0008 8.91493 15.9994C9.272 15.9979 9.63124 15.8203 9.79642 15.4926C9.92987 15.2312 9.91328 14.9598 9.91328 14.6768V14.5598V14.5346C9.91328 14.5165 9.92049 14.4898 9.91689 14.471C9.91328 14.4941 9.91111 14.518 9.90823 14.5418C9.91184 14.5259 9.914 14.5093 9.91905 14.4927C9.92266 14.4768 9.92771 14.4602 9.93203 14.4458C9.93348 14.4385 9.9378 14.4299 9.93925 14.4227C9.95512 14.3793 9.95007 14.3923 9.92121 14.4624C9.9443 14.4371 9.95728 14.3959 9.97532 14.3671C10.0099 14.3151 10.0114 14.3598 9.95512 14.3902C9.96377 14.3844 9.98253 14.3613 9.98758 14.3541C10.002 14.3396 10.0179 14.3266 10.0323 14.3129C10.0576 14.2913 10.0431 14.3021 9.98902 14.3454C10.002 14.3367 10.0164 14.3252 10.0301 14.318C10.0503 14.305 10.16 14.2494 10.0878 14.2833C10.0099 14.3194 10.1037 14.2797 10.1131 14.2761C10.1347 14.2689 10.1564 14.2617 10.178 14.2544C10.2898 14.2147 10.4002 14.1714 10.5098 14.1259C10.6339 14.074 10.7565 14.0213 10.8777 13.9635C10.8979 13.9548 10.9174 13.9433 10.9391 13.9346C10.9499 13.9289 10.9593 13.926 10.9693 13.9202C11.0126 13.9 11.0018 13.9043 10.9391 13.9332C10.9499 13.939 11.0559 13.9058 11.0703 13.8985C11.0487 13.9021 11.0256 13.9043 11.004 13.9072C11.022 13.9058 11.04 13.9058 11.0581 13.9036H11.1122C11.1858 13.9036 11.0797 13.9021 11.0711 13.8964C11.0891 13.9072 11.1288 13.9072 11.149 13.9123C11.167 13.918 11.1836 13.9231 11.1995 13.9281C11.286 13.9556 11.1259 13.8884 11.1778 13.9195C11.198 13.9325 11.2175 13.9411 11.237 13.952C11.2478 13.9592 11.2601 13.9664 11.2716 13.9751C11.299 13.9953 11.286 13.9859 11.2341 13.9462C11.2752 14.0112 11.3603 14.0704 11.4144 14.1252C11.4793 14.1902 11.5443 14.2566 11.6092 14.3201C11.7823 14.4898 11.9879 14.5786 12.2259 14.6053C12.5376 14.64 12.8189 14.4934 13.0324 14.2783C13.1514 14.1592 13.269 14.0415 13.3873 13.9231C13.678 13.6322 13.9659 13.3441 14.2566 13.0532C14.2782 13.0315 14.3013 13.0084 14.3229 12.9868C14.4975 12.8048 14.5934 12.5789 14.6057 12.3262C14.6187 12.0627 14.5033 11.805 14.3229 11.6173C14.271 11.5631 14.2162 11.5104 14.1642 11.4584C14.1051 11.3992 14.043 11.3393 13.9839 11.278C13.9803 11.2744 13.9478 11.2332 13.9428 11.2332C13.9558 11.2491 13.9659 11.2657 13.9788 11.2823C13.968 11.2679 13.9572 11.2534 13.9485 11.2375C13.9399 11.2231 13.9305 11.2072 13.9211 11.1906C13.8742 11.1112 13.9464 11.27 13.9283 11.2123C13.9211 11.1906 13.9139 11.1711 13.9081 11.1487C13.9024 11.1307 13.8995 11.1141 13.8952 11.0968C13.8735 11.0065 13.8988 11.187 13.8988 11.1242C13.8988 11.0939 13.9096 11.0325 13.9002 11.0051C13.8966 11.0267 13.8944 11.0498 13.8916 11.0715C13.8952 11.0534 13.8988 11.0354 13.9024 11.0195C13.906 11.0015 13.9132 10.9849 13.9168 10.9675C13.9421 10.8773 13.8793 11.0397 13.9081 10.9856C13.9211 10.9625 13.9312 10.9365 13.9442 10.9134C13.9659 10.8686 13.9875 10.8231 14.0091 10.7762C14.1116 10.551 14.2039 10.3214 14.2833 10.0868C14.359 9.86298 14.1967 9.58286 13.9673 9.53089C13.7163 9.48613 13.4927 9.61969 13.4119 9.8572L13.4119 9.85722Z" fill="#003462"/>
<path d="M10.6108 8.01144C10.6108 8.08724 10.6072 8.16304 10.6021 8.23885C10.5985 8.28 10.5949 8.32187 10.5913 8.36303C10.5899 8.37891 10.5877 8.39551 10.5855 8.41212C10.5985 8.26917 10.5927 8.3558 10.587 8.39046C10.5617 8.54206 10.5257 8.69366 10.4788 8.8395C10.4571 8.90808 10.4297 8.97522 10.4052 9.04309C10.3749 9.12395 10.4449 8.9579 10.4182 9.01277C10.4095 9.03082 10.4023 9.04886 10.3929 9.06691C10.3771 9.10301 10.3583 9.13911 10.341 9.17376C10.2725 9.30731 10.1953 9.4351 10.1087 9.55782C10.0957 9.5737 10.0222 9.67333 10.0741 9.60691C10.126 9.54049 10.0488 9.63723 10.0366 9.65383C9.98609 9.71303 9.93415 9.77295 9.88005 9.82854C9.831 9.87908 9.7805 9.92817 9.72712 9.97437C9.69971 9.99747 9.67519 10.0213 9.64777 10.0451C9.61892 10.0682 9.49485 10.152 9.61892 10.0704C9.49268 10.1534 9.3751 10.2422 9.24236 10.3144C9.17888 10.349 9.11613 10.3808 9.0512 10.4097C9.03677 10.4169 9.02234 10.4227 9.00791 10.4299C8.94299 10.4602 9.04542 10.414 9.04903 10.4119C9.00431 10.4263 8.9603 10.448 8.91558 10.4638C8.77492 10.5144 8.63064 10.5541 8.48422 10.5851C8.44815 10.5923 8.41208 10.5996 8.37601 10.6053C8.36158 10.6068 8.27863 10.6183 8.36303 10.6089C8.44815 10.5981 8.36447 10.6089 8.3486 10.6104C8.26925 10.6191 8.19207 10.6248 8.112 10.6284C7.95331 10.6342 7.79316 10.6284 7.63591 10.6082C7.59985 10.6046 7.5443 10.5851 7.67054 10.614C7.65467 10.6104 7.63808 10.6082 7.62149 10.6068C7.58542 10.601 7.54935 10.5938 7.51328 10.5866C7.43393 10.5707 7.35459 10.5519 7.27669 10.5288C7.206 10.5086 7.13819 10.4877 7.0711 10.4624C7.03647 10.4494 7.00473 10.4371 6.97011 10.4248C6.90374 10.3996 7.00762 10.4407 7.01123 10.4429C6.98958 10.4321 6.96794 10.4227 6.9463 10.414C6.80925 10.3505 6.67796 10.2783 6.55101 10.196C6.49186 10.1585 6.43559 10.113 6.37788 10.0733C6.50195 10.1541 6.38509 10.079 6.35768 10.0552C6.32738 10.03 6.29853 10.0047 6.26895 9.97725C6.15714 9.87763 6.05398 9.76934 5.95877 9.65455C5.93352 9.62567 5.85922 9.51016 5.94073 9.63433C5.9227 9.6069 5.90322 9.5838 5.88447 9.55853C5.83974 9.49356 5.79574 9.42858 5.75462 9.36C5.71856 9.29864 5.68393 9.23728 5.65219 9.17231C5.63416 9.13621 5.61612 9.10156 5.60025 9.06546C5.59304 9.05102 5.58727 9.03659 5.58006 9.02215C5.54255 8.93912 5.62117 9.12683 5.58871 9.04236C5.53245 8.89942 5.48411 8.75503 5.45021 8.60559C5.43434 8.5334 5.41991 8.46121 5.40693 8.38901C5.40549 8.37313 5.40332 8.35652 5.39972 8.33992C5.42857 8.46625 5.40837 8.41067 5.40549 8.37457C5.39972 8.32981 5.39683 8.28433 5.3925 8.2374C5.38168 8.07858 5.38168 7.9183 5.39394 7.75949C5.39539 7.72701 5.39972 7.69308 5.4026 7.65987C5.40404 7.64543 5.41342 7.56024 5.40404 7.64543C5.39539 7.73062 5.40404 7.64687 5.40765 7.63244C5.42063 7.55158 5.4365 7.47217 5.4567 7.39275C5.49277 7.24692 5.54326 7.10976 5.5952 6.96825C5.61684 6.91194 5.54615 7.07799 5.58222 6.99857C5.58943 6.98413 5.5952 6.9697 5.60242 6.95526C5.61829 6.91916 5.63704 6.88306 5.65435 6.84841C5.68898 6.78199 5.72505 6.71485 5.764 6.65205C5.80007 6.59068 5.83974 6.53076 5.88086 6.47301C5.90106 6.44413 5.92414 6.4167 5.94434 6.38638C5.86138 6.51055 5.94434 6.38638 5.96958 6.3575C6.06336 6.2456 6.16435 6.14092 6.27255 6.04347C6.3014 6.01603 6.3317 5.99149 6.36128 5.9655C6.37715 5.9525 6.47309 5.87526 6.40817 5.92796C6.3418 5.97994 6.44063 5.90486 6.45722 5.89331C6.48968 5.8702 6.52214 5.84854 6.5546 5.82689C6.68084 5.74387 6.81284 5.67167 6.9499 5.60886C6.96793 5.6002 6.98597 5.59298 7.004 5.5836C7.0581 5.55833 6.89219 5.62836 6.9737 5.59659C7.004 5.58576 7.03285 5.57349 7.06387 5.56194C7.13962 5.5345 7.21536 5.50996 7.29327 5.4883C7.36396 5.46809 7.43393 5.45221 7.50606 5.43632C7.54573 5.42766 7.58541 5.42044 7.62725 5.41466C7.64312 5.41322 7.65971 5.40889 7.6763 5.40744C7.53347 5.43271 7.6222 5.41466 7.65466 5.41106C7.81336 5.39301 7.97206 5.38795 8.13075 5.39301C8.20649 5.39662 8.28079 5.40167 8.35436 5.41106C8.37023 5.4125 8.38682 5.41466 8.40341 5.41683C8.2678 5.40384 8.33488 5.40817 8.36879 5.41322C8.41351 5.42044 8.45751 5.42766 8.50224 5.43632C8.65228 5.46664 8.79944 5.50851 8.9437 5.56266C8.97833 5.57565 9.01007 5.59009 9.0447 5.60236C9.10096 5.62402 8.93505 5.55327 9.0144 5.58937C9.02883 5.59659 9.04325 5.60236 9.05768 5.60958C9.12982 5.64207 9.20051 5.67817 9.26831 5.71787C9.32963 5.75253 9.39094 5.79007 9.4501 5.82761C9.47895 5.84782 9.50925 5.86731 9.53882 5.8868C9.56768 5.90702 9.6867 6.00592 9.57128 5.90846C9.68526 6.00592 9.79852 6.09978 9.90311 6.20806C9.95216 6.2586 9.99833 6.31274 10.0438 6.36689C10.064 6.38999 10.0835 6.41598 10.1029 6.44052C10.0034 6.32502 10.1029 6.44197 10.1246 6.47301C10.2111 6.59574 10.289 6.72569 10.3554 6.85923C10.3713 6.89172 10.3879 6.92421 10.4023 6.95669C10.4095 6.97113 10.4153 6.98557 10.4225 7.00001C10.4586 7.07942 10.3879 6.91338 10.4095 6.96969C10.4369 7.04549 10.4672 7.11985 10.4925 7.19494C10.5372 7.33788 10.5733 7.48371 10.5971 7.63387C10.5985 7.64831 10.61 7.73133 10.6007 7.64687C10.5898 7.56168 10.6007 7.64542 10.6021 7.66131C10.6057 7.69885 10.6093 7.73494 10.6129 7.77321C10.6086 7.85117 10.6108 7.93203 10.6108 8.01145C10.6122 8.24823 10.8185 8.47348 11.0616 8.46265C11.3054 8.45182 11.5146 8.26413 11.5125 8.01145C11.5089 7.29674 11.2924 6.57338 10.8741 5.98996C10.4449 5.39436 9.86561 4.95038 9.17743 4.69626C7.82849 4.19814 6.21629 4.63707 5.30515 5.75027C4.83266 6.32782 4.55133 7.01364 4.49001 7.76086C4.4323 8.47773 4.61408 9.22277 4.98774 9.83632C5.34481 10.4225 5.88223 10.9178 6.5098 11.2008C7.20807 11.517 7.9691 11.6065 8.72286 11.4549C10.1021 11.1791 11.2461 10.0002 11.4626 8.60468C11.4929 8.40832 11.5145 8.21123 11.5145 8.01126C11.516 7.77448 11.3068 7.54923 11.0637 7.56006C10.8163 7.57089 10.6128 7.75859 10.6107 8.01126L10.6108 8.01144Z" fill="#003462"/>
</svg>
