<svg width="26" height="26" viewBox="0 0 26 26" fill="none" xmlns="http://www.w3.org/2000/svg">
<path id="task" fill-rule="evenodd" clip-rule="evenodd" d="M3 2H23C23.5523 2 24 2.44772 24 3V23C24 23.5523 23.5523 24 23 24H3C2.44772 24 2 23.5523 2 23V3C2 2.44772 2.44772 2 3 2ZM0 3C0 1.34315 1.34315 0 3 0H23C24.6569 0 26 1.34315 26 3V23C26 24.6569 24.6569 26 23 26H3C1.34315 26 0 24.6569 0 23V3ZM19.9599 6.39065L10.9928 17.2045L6.43519 12.7076C6.01248 12.2919 5.32918 12.2919 4.90647 12.7076C4.48512 13.1247 4.48512 13.7989 4.90647 14.2159L10.3083 19.5456C10.7607 19.9907 11.5034 19.9547 11.9085 19.467L21.6318 7.74171C22.0099 7.28603 21.9424 6.61451 21.4805 6.24142C21.0187 5.86836 20.3381 5.93497 19.9599 6.39065Z" fill="#003462"/>
</svg>
