<svg width="28" height="32" viewBox="0 0 28 32" fill="none" xmlns="http://www.w3.org/2000/svg">
<path id="text" fill-rule="evenodd" clip-rule="evenodd" d="M23.6654 0H13.4474C11.1944 0 9.36035 1.84026 9.36035 4.10088V10.9357C9.36035 12.7913 10.6273 14.4009 12.3558 14.8862V17.4988C12.3558 17.8303 12.5551 18.1293 12.8616 18.2558C12.9621 18.2985 13.0694 18.319 13.1733 18.319C13.3844 18.319 13.5956 18.2353 13.7523 18.0781L16.7835 15.0366H23.665C25.918 15.0366 27.7522 13.1963 27.7522 10.9357V4.1009C27.7522 1.84028 25.918 2.21096e-05 23.665 2.21096e-05L23.6654 0ZM26.1176 10.9357C26.1176 12.2924 25.0176 13.3962 23.6654 13.3962H16.4464C16.2284 13.3962 16.0206 13.4816 15.8674 13.6371L13.9924 15.5201V14.2044C13.9924 13.7773 13.6655 13.4235 13.2414 13.3877C11.9795 13.2834 10.9935 12.2087 10.9935 10.9374V4.10258C10.9935 2.74586 12.0953 1.64034 13.4475 1.64034H23.6654C25.0176 1.64034 26.1176 2.74586 26.1176 4.10258V10.9357ZM16.379 7.51932C16.379 9.15968 13.9268 9.15968 13.9268 7.51932C13.9268 5.87898 16.379 5.87898 16.379 7.51932ZM20.3653 7.51932C20.3653 9.15968 17.9131 9.15968 17.9131 7.51932C17.9131 5.87898 20.3653 5.87898 20.3653 7.51932ZM24.3518 7.51932C24.3518 9.15968 21.8994 9.15968 21.8994 7.51932C21.8994 5.87898 24.3518 5.87898 24.3518 7.51932ZM1.65337 25.6434H17.7392L17.7408 17.4931C17.7409 17.0422 18.1065 16.6766 18.5575 16.6766C19.0085 16.6766 19.3742 17.0422 19.3742 17.4933V27.8992C19.3742 30.1598 17.54 32.0002 15.287 32.0002H4.10563C1.85261 32.0002 0.0185547 30.1598 0.0185547 27.8992V8.49846C0.0185547 6.23784 1.85261 4.39758 4.10563 4.39758H6.90762C7.36059 4.39758 7.72779 4.76479 7.72779 5.21776C7.72779 5.67074 7.36059 6.03794 6.90762 6.03794H4.10733C2.75517 6.03794 1.65337 7.14174 1.65337 8.49846V25.6434ZM15.2853 30.3594C16.6374 30.3594 17.7392 29.2556 17.7392 27.8988L17.7389 27.2838H1.65129V27.8988C1.65129 29.2556 2.75307 30.3594 4.10523 30.3594H15.2853Z" fill="currentColor"/>
</svg>
