<svg width="16" height="16" viewBox="0 0 16 16" fill="none" xmlns="http://www.w3.org/2000/svg">
<path fill-rule="evenodd" clip-rule="evenodd" d="M0 0.5C0 0.223858 0.223858 0 0.5 0H15.5037C15.7798 0 16.0037 0.223858 16.0037 0.5C16.0037 0.776142 15.7798 1 15.5037 1H0.5C0.223858 1 0 0.776142 0 0.5ZM0 8.00172C0 7.72557 0.223858 7.50172 0.5 7.50172H15.5037C15.7798 7.50172 16.0037 7.72557 16.0037 8.00172C16.0037 8.27786 15.7798 8.50172 15.5037 8.50172H0.5C0.223858 8.50172 0 8.27786 0 8.00172ZM5.5 3.75098C5.22386 3.75098 5 3.97483 5 4.25098C5 4.52712 5.22386 4.75098 5.5 4.75098H15.5C15.7761 4.75098 16 4.52712 16 4.25098C16 3.97483 15.7761 3.75098 15.5 3.75098H5.5ZM5 11.7529C5 11.4768 5.22386 11.2529 5.5 11.2529H15.5C15.7761 11.2529 16 11.4768 16 11.7529C16 12.0291 15.7761 12.2529 15.5 12.2529H5.5C5.22386 12.2529 5 12.0291 5 11.7529ZM0.5 15.0037C0.223858 15.0037 0 15.2275 0 15.5037C0 15.7798 0.223858 16.0037 0.5 16.0037H15.5037C15.7798 16.0037 16.0037 15.7798 16.0037 15.5037C16.0037 15.2275 15.7798 15.0037 15.5037 15.0037H0.5Z" fill="#003462"/>
</svg>
