<svg width="16" height="16" viewBox="0 0 16 16" fill="none" xmlns="http://www.w3.org/2000/svg">
<path fill-rule="evenodd" clip-rule="evenodd" d="M0 0.5C0 0.223858 0.223858 0 0.5 0H15.5037C15.7798 0 16.0037 0.223858 16.0037 0.5C16.0037 0.776142 15.7798 1 15.5037 1H0.5C0.223858 1 0 0.776142 0 0.5ZM0 8.00172C0 7.72557 0.223858 7.50172 0.5 7.50172H15.5037C15.7798 7.50172 16.0037 7.72557 16.0037 8.00172C16.0037 8.27786 15.7798 8.50172 15.5037 8.50172H0.5C0.223858 8.50172 0 8.27786 0 8.00172ZM0.5 3.75086C0.223858 3.75086 0 3.97472 0 4.25086C0 4.527 0.223858 4.75086 0.5 4.75086H10.5C10.7761 4.75086 11 4.527 11 4.25086C11 3.97472 10.7761 3.75086 10.5 3.75086H0.5ZM0 11.7528C0 11.4767 0.223858 11.2528 0.5 11.2528H10.5C10.7761 11.2528 11 11.4767 11 11.7528C11 12.029 10.7761 12.2528 10.5 12.2528H0.5C0.223858 12.2528 0 12.029 0 11.7528ZM0.5 15.0037C0.223858 15.0037 0 15.2275 0 15.5037C0 15.7798 0.223858 16.0037 0.5 16.0037H15.5037C15.7798 16.0037 16.0037 15.7798 16.0037 15.5037C16.0037 15.2275 15.7798 15.0037 15.5037 15.0037H0.5Z" fill="#003462"/>
</svg>
