<svg width="16" height="16" viewBox="0 0 16 16" fill="none" xmlns="http://www.w3.org/2000/svg">
<path fill-rule="evenodd" clip-rule="evenodd" d="M7.65127 10.5596C7.65127 10.8165 7.85954 11.0248 8.11645 11.0248C8.37337 11.0248 8.58164 10.8165 8.58164 10.5596V7.42867H14.2217V14.654C14.2217 14.9328 14.0026 15.1441 13.7134 15.1441H2.28677C1.9976 15.1441 1.77761 14.9328 1.77761 14.654L1.7775 7.42867H7.65127V10.5596ZM8.58164 6.57129H14.6667C14.9209 6.57129 15.1109 6.38809 15.1109 6.14302V5.28565C15.1109 5.04138 14.9209 4.85737 14.6667 4.85737H8.58164V6.57129ZM7.65127 4V1.45102L5.97623 3.11768C5.79623 3.29678 5.50523 3.29642 5.32568 3.11687C5.14581 2.937 5.14581 2.64537 5.32568 2.4655L7.56117 0.230006C7.70844 0.0827355 7.90818 0 8.11645 0C8.32472 0 8.52446 0.0827355 8.67173 0.230006L10.9072 2.4655C11.0871 2.64537 11.0871 2.937 10.9072 3.11687C10.7277 3.29642 10.4367 3.29678 10.2567 3.11768L8.58164 1.45102V4H14.6667C15.3975 4 16 4.58095 16 5.28565V6.14302C16 6.69745 15.6258 7.16993 15.1108 7.34832V14.6541C15.1108 15.3925 14.48 16 13.7133 16H2.28669C1.52001 16 0.889178 15.3925 0.889178 14.6541V7.34832C0.374167 7.16993 0 6.69745 0 6.14302V5.28565C0 4.58095 0.602499 4 1.33334 4H7.65127ZM7.65127 4.85737H1.33334C1.07918 4.85737 0.889178 5.04137 0.889178 5.28565V6.14302C0.889178 6.38809 1.07917 6.57129 1.33334 6.57129H7.65127V4.85737Z" fill="#003462"/>
</svg>
