<svg width="16" height="13" viewBox="0 0 16 13" fill="none" xmlns="http://www.w3.org/2000/svg">
<path d="M11.2923 2.8651H1.6064L3.66428 0.807229C3.84884 0.622665 3.84884 0.323667 3.66428 0.139115C3.47971 -0.0463718 3.1798 -0.0463718 2.99524 0.139115L0.120659 3.00165C0.0985116 3.0238 0.0791328 3.04687 0.0615989 3.07271V3.09209C0.0486794 3.11147 0.0376065 3.13177 0.0283766 3.15299V3.1816C0.0209941 3.20098 0.0145344 3.22036 0.00899743 3.24066C-0.00299914 3.30249 -0.00299914 3.36524 0.00899743 3.42707C0.0145344 3.44737 0.0209941 3.46675 0.0283766 3.48613V3.51473C0.0376049 3.53596 0.0486784 3.55626 0.0615989 3.57564V3.59502C0.0791323 3.61993 0.0985116 3.64393 0.120659 3.66607L2.99524 6.54538C3.17981 6.72995 3.47973 6.72995 3.66428 6.54538C3.84883 6.36082 3.84884 6.06182 3.66428 5.87727L1.5944 3.81016H11.2803C12.6396 3.84338 13.8818 4.5881 14.5518 5.77115C15.2217 6.9542 15.2217 8.40217 14.5518 9.58527C13.8818 10.7692 12.6397 11.513 11.2803 11.5472H7.54296C7.28271 11.5472 7.07048 11.7585 7.07048 12.0197C7.07048 12.2808 7.28272 12.4921 7.54296 12.4921H11.2923C12.9866 12.4543 14.5359 11.5287 15.3729 10.0551C16.209 8.58133 16.209 6.77629 15.3729 5.30261C14.5359 3.82795 12.9864 2.9024 11.2923 2.86555L11.2923 2.8651Z" fill="#003462"/>
</svg>
