<svg width="24" height="32" viewBox="0 0 24 32" fill="none" xmlns="http://www.w3.org/2000/svg">
<path id="volunteer" fill-rule="evenodd" clip-rule="evenodd" d="M12.3123 31.9999H16.2927C20.2731 31.9999 23.6421 28.6325 23.6421 24.6506V10.8705C23.6421 9.34032 22.4177 8.11448 20.8861 8.11448C20.5804 8.11448 20.2732 8.11448 19.9674 8.26807V5.66566C19.9674 3.98044 18.743 2.75603 17.0578 2.75603C16.6027 2.75603 16.1477 2.90679 15.6926 3.05755L15.6798 3.06178V2.90962C15.6798 1.22441 14.4554 0 12.7716 0C11.0864 0 9.86199 1.22445 9.86199 2.90962V4.13403C9.55626 3.98044 9.09692 3.82829 8.63759 3.82829C7.10597 3.82829 5.88156 5.05269 5.88156 6.58431L5.72797 18.6792L3.73702 16.8419C2.81835 16.0768 1.59391 16.0768 0.828834 16.6897C0.0623036 17.4548 -0.243442 18.6792 0.215895 19.9051L5.2686 28.0195C6.64661 30.4698 9.40263 31.9999 12.3123 31.9999ZM1.7475 17.9141C1.7475 17.7605 1.89965 17.7605 2.05324 17.7605C2.35898 17.7605 2.66628 17.9141 2.81844 18.0677L6.03379 21.1294C6.18736 21.283 6.49311 21.4352 6.8003 21.283C7.10604 21.1294 7.25963 20.8237 7.25963 20.5165L7.41179 6.73641C7.41179 6.12494 8.02469 5.512 8.63763 5.512C9.2491 5.512 9.86204 6.1249 9.86204 6.73641V15.9954C9.86204 16.4547 10.1678 16.7605 10.6271 16.7605C11.0864 16.7605 11.3936 16.4548 11.3936 15.9954V2.90958C11.3936 2.14307 12.0051 1.53157 12.7716 1.53157C13.5367 1.53157 14.1496 2.14307 14.1496 2.90958V15.8418C14.1496 16.3011 14.4554 16.6083 14.9147 16.6083C15.374 16.6083 15.6798 16.3012 15.6798 15.8418V5.6656C15.6798 4.8991 16.2927 4.28759 17.0578 4.28759C17.8243 4.28759 18.4358 4.8991 18.4358 5.6656L18.2836 15.8418C18.2836 16.3011 18.5894 16.6083 19.0487 16.6083C19.508 16.6083 19.8138 16.3012 19.8138 15.8418L19.9674 10.8704C19.9674 10.259 20.2731 9.64603 20.8861 9.64603C21.499 9.64603 22.1105 10.2589 22.1105 10.8704V24.6505C22.1105 27.8659 19.508 30.4698 16.2927 30.4698H12.3123C9.86197 30.4698 7.71885 29.0918 6.49301 27.1008L1.59391 19.1385C1.28816 18.6792 1.44031 18.0677 1.7475 17.9141ZM11.7874 20.75C12.2776 20.7489 12.914 21.0436 13.3617 21.7305C13.3919 21.7794 13.428 21.8253 13.4697 21.867C13.5335 21.9309 13.6073 21.9815 13.6868 22.0179C13.8813 22.1071 14.1103 22.1114 14.3131 22.0179C14.3927 21.9815 14.4664 21.9309 14.5303 21.867C14.572 21.8253 14.6081 21.7794 14.6383 21.7305C15.086 21.0436 15.7224 20.7489 16.2126 20.75C16.6556 20.751 17.045 20.9813 17.1913 21.5873C17.3358 22.1853 16.9743 22.8882 16.2754 23.6245L14 26.0217L11.7246 23.6245C11.0257 22.8882 10.6642 22.1853 10.8086 21.5873C10.955 20.9813 11.3444 20.751 11.7874 20.75ZM11.7841 19.25C12.5667 19.2483 13.3607 19.5774 14 20.1734C14.6393 19.5774 15.4333 19.2483 16.2159 19.25C17.3343 19.2525 18.337 19.9414 18.6494 21.2352C18.9919 22.6532 18.0922 23.8893 17.3633 24.6572L14.548 27.6232C14.5424 27.6292 14.5366 27.6351 14.5308 27.641C14.469 27.7029 14.399 27.7518 14.3241 27.7877C14.1192 27.8859 13.8797 27.8853 13.6759 27.7877C13.601 27.7518 13.531 27.7029 13.4692 27.641C13.4634 27.6351 13.4576 27.6292 13.452 27.6232L10.6367 24.6572C9.90777 23.8893 9.00813 22.6532 9.35055 21.2352C9.66297 19.9414 10.6657 19.2525 11.7841 19.25Z" fill="#003462"/>
</svg>
